SplineFontDB: 3.2
FontName: Kitisakkullian
FullName: Kitisakkullian
FamilyName: Kitisakkullian
Weight: Regular
Copyright: CC0 - public domain
Version: 000.100
ItalicAngle: 0
UnderlinePosition: -100
UnderlineWidth: 50
Ascent: 800
Descent: 200
InvalidEm: 0
sfntRevision: 0x00001999
LayerCount: 2
Layer: 0 0 "Back" 1
Layer: 1 0 "Fore" 0
XUID: [1021 178 1911899458 16960]
StyleMap: 0x0000
FSType: 0
OS2Version: 4
OS2_WeightWidthSlopeOnly: 0
OS2_UseTypoMetrics: 1
CreationTime: 1587428190
ModificationTime: 1588736369
PfmFamily: 17
TTFWeight: 400
TTFWidth: 5
LineGap: 90
VLineGap: 0
Panose: 2 0 5 3 0 0 0 0 0 0
OS2TypoAscent: 800
OS2TypoAOffset: 0
OS2TypoDescent: -200
OS2TypoDOffset: 0
OS2TypoLinegap: 90
OS2WinAscent: 799
OS2WinAOffset: 0
OS2WinDescent: 198
OS2WinDOffset: 0
HheadAscent: 799
HheadAOffset: 0
HheadDescent: -198
HheadDOffset: 0
OS2SubXSize: 650
OS2SubYSize: 699
OS2SubXOff: 0
OS2SubYOff: 140
OS2SupXSize: 650
OS2SupYSize: 699
OS2SupXOff: 0
OS2SupYOff: 479
OS2StrikeYSize: 49
OS2StrikeYPos: 258
OS2CapHeight: 797
OS2Vendor: 'PfEd'
OS2CodePages: 00000001.00000000
OS2UnicodeRanges: 00000001.00000000.00000000.00000000
MarkAttachClasses: 1
DEI: 91125
LangName: 1033
Encoding: UnicodeBmp
UnicodeInterp: none
NameList: AGL For New Fonts
DisplaySize: -48
AntiAlias: 1
FitToEm: 0
WinInfo: 0 26 6
BeginPrivate: 6
BlueValues 15 [-20 0 796 797]
BlueShift 1 0
StdHW 5 [134]
StdVW 5 [156]
StemSnapH 25 [122 132 134 135 137 149]
StemSnapV 41 [129 133 134 149 151 156 165 179 180 187]
EndPrivate
BeginChars: 65537 73

StartChar: .notdef
Encoding: 65536 -1 0
Width: 500
Flags: MW
HStem: 0 50<100 400 100 450> 483 50<100 400 100 100>
VStem: 50 50<50 50 50 483> 400 50<50 483 483 483>
LayerCount: 2
Fore
SplineSet
50 0 m 1
 50 533 l 1
 450 533 l 1
 450 0 l 1
 50 0 l 1
100 50 m 1
 400 50 l 1
 400 483 l 1
 100 483 l 1
 100 50 l 1
EndSplineSet
Validated: 1
EndChar

StartChar: space
Encoding: 32 32 1
Width: 655
Flags: HMW
HStem: 285 135<314 323>
VStem: 233 156<357 360>
LayerCount: 2
Fore
SplineSet
294.768554688 455.100585938 m 4
 295.8515625 455.387695312 303.876953125 452.86328125 312.588867188 449.48828125 c 4
 321.30078125 446.112304688 329.313476562 442.07421875 330.409179688 440.525390625 c 4
 331.4921875 438.962890625 342.631835938 433.25 355.159179688 427.8125 c 4
 369.494140625 421.599609375 383.037109375 412.038085938 391.723632812 402 c 4
 399.299804688 393.23828125 406.533203125 380.163085938 407.787109375 372.9375 c 4
 409.397460938 363.674804688 407.654296875 355.387695312 401.887695312 344.8125 c 4
 397.385742188 336.5625 393.782226562 328.125 393.861328125 326.0625 c 4
 393.953125 324 389.518554688 317.674804688 384 312 c 4
 378.483398438 306.325195312 373.96875 300.849609375 373.96875 299.8125 c 4
 373.96875 298.787109375 340.916015625 253.5 337.774414062 247.3125 c 4
 332.428710938 236.787109375 330.791992188 236.125 312.430664062 237.112304688 c 4
 301.620117188 237.6875 288.776367188 240.650390625 283.87890625 243.674804688 c 4
 278.981445312 246.711914062 270.427734375 252.987304688 264.884765625 257.625 c 4
 259.33984375 262.262695312 247.763671875 272.38671875 239.14453125 280.125 c 4
 230.537109375 287.86328125 220.163085938 300.51171875 216.083007812 308.25 c 4
 208.797851562 322.112304688 208.810546875 322.63671875 217.073242188 344.8125 c 4
 221.693359375 357.1875 226.353515625 368.162109375 227.44921875 369.1875 c 4
 228.53125 370.224609375 233.151367188 376.125 237.705078125 382.3125 c 4
 242.258789062 388.5 253.625 406.537109375 262.943359375 422.38671875 c 4
 272.276367188 438.25 282.810546875 451.975585938 286.34765625 452.887695312 c 4
 289.884765625 453.8125 293.672851562 454.80078125 294.768554688 455.100585938 c 4
EndSplineSet
Validated: 524321
EndChar

StartChar: A
Encoding: 65 65 2
Width: 844
Flags: HMW
LayerCount: 2
Fore
SplineSet
538.5 799.8203125 m 0
 538.5 800 543.219726562 798.209960938 549 795.83984375 c 0
 554.76953125 793.459960938 562.870117188 788 567 783.6796875 c 0
 571.120117188 779.370117188 576.190429688 775.879882812 578.25 775.919921875 c 0
 580.309570312 775.969726562 589.370117188 768.91015625 598.379882812 760.25 c 0
 607.389648438 751.58984375 619.030273438 741.129882812 624.25 737 c 0
 629.469726562 732.879882812 642.8203125 720.73046875 653.919921875 710 c 0
 666.389648438 697.940429688 677.099609375 684.200195312 681.969726562 674 c 0
 686.450195312 664.629882812 691.08984375 647.780273438 692.719726562 635 c 0
 694.290039062 622.629882812 695.049804688 575.379882812 694.400390625 530 c 0
 693.75 484.629882812 692.440429688 439.400390625 691.490234375 429.5 c 0
 690.540039062 419.599609375 691.240234375 395.98046875 693.040039062 377 c 0
 694.83984375 358.030273438 696.23046875 320.23046875 696.110351562 293 c 0
 696 265.780273438 695.9296875 236.080078125 695.959960938 227 c 0
 695.990234375 217.9296875 698.099609375 202.400390625 700.639648438 192.5 c 0
 703.1796875 182.599609375 705.049804688 169.099609375 704.799804688 162.5 c 0
 704.559570312 155.900390625 706.860351562 142.51953125 709.9296875 132.759765625 c 0
 713.83984375 120.309570312 717.860351562 113.599609375 723.419921875 110.259765625 c 0
 727.76953125 107.639648438 740.75 98.080078125 752.25 89 c 0
 763.75 79.9296875 775.610351562 69.1298828125 778.599609375 65 c 0
 781.599609375 60.8798828125 783.969726562 52.7802734375 783.860351562 47 c 0
 783.73046875 39.6396484375 779.530273438 30.4404296875 769.83984375 16.25 c 0
 762.23046875 5.1103515625 701.76953125 -35.3798828125 696 -36.830078125 c 0
 690.219726562 -38.2802734375 677.400390625 -40.9501953125 667.5 -42.759765625 c 0
 657.599609375 -44.5595703125 644.76953125 -45.169921875 639 -44.1201171875 c 0
 631.379882812 -42.7197265625 623.120117188 -36.75 608.889648438 -22.349609375 c 0
 593.219726562 -6.490234375 588.509765625 0.51953125 585.450195312 12.5 c 0
 583.33984375 20.75 580.450195312 32.23046875 579.030273438 38 c 0
 577.599609375 43.7802734375 573.540039062 66.0498046875 570.009765625 87.5 c 0
 566.48046875 108.950195312 562.33984375 132.580078125 560.799804688 140 c 0
 559.259765625 147.4296875 556.780273438 164.98046875 555.280273438 179 c 0
 553.780273438 193.030273438 553.08984375 222.73046875 553.75 245 c 0
 554.620117188 274.209960938 553.91015625 286.889648438 551.23046875 290.5 c 0
 549.1796875 293.240234375 540.75 297.719726562 532.5 300.440429688 c 0
 524.25 303.169921875 507.370117188 306.669921875 495 308.23046875 c 0
 480.330078125 310.080078125 467.01953125 310.009765625 456.75 308.030273438 c 0
 446.51953125 306.059570312 438.110351562 306.009765625 432.75 307.900390625 c 0
 427.780273438 309.639648438 422.8203125 314.709960938 420.26953125 320.650390625 c 0
 416.639648438 329.110351562 416.639648438 332.830078125 420.25 347 c 0
 422.549804688 356.080078125 427.16015625 366.889648438 430.469726562 371.01953125 c 0
 433.790039062 375.16015625 438 381.240234375 439.83984375 384.51953125 c 0
 441.669921875 387.809570312 449.099609375 394.870117188 456.33984375 400.219726562 c 0
 463.580078125 405.559570312 474.559570312 411.969726562 480.75 414.469726562 c 0
 486.940429688 416.959960938 491.969726562 420.009765625 491.9296875 421.25 c 0
 491.900390625 422.490234375 499.66015625 425.129882812 509.1796875 427.120117188 c 0
 518.709960938 429.110351562 534.599609375 431.540039062 544.5 432.51953125 c 0
 554.400390625 433.5 563.490234375 435.919921875 564.700195312 437.900390625 c 0
 565.919921875 439.879882812 566.780273438 467.830078125 566.620117188 500 c 0
 566.459960938 532.1796875 565.469726562 571.080078125 562.5 614.419921875 c 1
 541.5 623.400390625 l 2
 529.950195312 628.33984375 512.400390625 635.879882812 502.5 640.169921875 c 0
 492.599609375 644.450195312 475.6796875 654.16015625 464.900390625 661.73046875 c 0
 454.120117188 669.299804688 439.940429688 677.360351562 433.400390625 679.629882812 c 0
 426.849609375 681.900390625 417.790039062 682.91015625 413.25 681.879882812 c 0
 408.709960938 680.83984375 386.919921875 664.08984375 377.650390625 655.360351562 c 0
 365.669921875 644.080078125 360.23046875 636.469726562 358.809570312 629 c 0
 357.200195312 620.490234375 358.370117188 616.219726562 373.129882812 594.5 c 1
 372.629882812 386 l 2
 372.330078125 262.5 373.290039062 172 374.990234375 164 c 0
 376.5703125 156.580078125 379.919921875 139.360351562 382.4296875 125.75 c 0
 384.940429688 112.139648438 387 94.58984375 387 86.75 c 0
 387 78.91015625 388.290039062 67.7802734375 389.860351562 62 c 0
 391.440429688 56.23046875 391.780273438 42.400390625 390.620117188 31.26953125 c 0
 389.26953125 18.3798828125 389.58984375 11.009765625 391.5 10.9599609375 c 0
 393.150390625 10.919921875 394.009765625 7.8701171875 393.41015625 4.1904296875 c 0
 392.809570312 0.509765625 393.950195312 -9.25 395.950195312 -17.5 c 0
 398.66015625 -28.669921875 398.75 -35.3701171875 396.299804688 -43.75 c 0
 393.26953125 -54.0703125 391.629882812 -55.3701171875 376.5 -59.5 c 0
 367.419921875 -61.9697265625 317.209960938 -79.6298828125 302.25 -81.009765625 c 0
 285.790039062 -82.51953125 278.959960938 -81.98046875 274.150390625 -78.759765625 c 0
 270.66015625 -76.41015625 262.889648438 -68.08984375 256.900390625 -60.25 c 0
 249.190429688 -50.1796875 245.120117188 -40.9404296875 242.98046875 -28.75 c 0
 241.3203125 -19.259765625 239.969726562 0.3095703125 239.98046875 14.75 c 0
 239.990234375 29.26953125 238.66015625 41.669921875 237 42.5 c 0
 235.349609375 43.330078125 181.459960938 5.51953125 177.75 2.1396484375 c 0
 173.879882812 -1.3798828125 163.009765625 -5.4404296875 152.25 -7.3896484375 c 0
 136.059570312 -10.3203125 130.940429688 -10.009765625 114.690429688 -5.1396484375 c 0
 104.349609375 -2.0400390625 95.2900390625 2.5302734375 94.5595703125 5 c 0
 93.830078125 7.48046875 89.5 11.5302734375 84.919921875 14 c 0
 80.349609375 16.48046875 73.580078125 21.8798828125 69.8798828125 26 c 0
 66.1904296875 30.1298828125 59.1796875 41.599609375 54.3203125 51.5 c 0
 49.4599609375 61.400390625 41.25 80.2998046875 36.0703125 93.5 c 0
 30.900390625 106.700195312 24.1796875 122.900390625 21.1396484375 129.5 c 0
 18.099609375 136.099609375 14.2197265625 145.549804688 12.51953125 150.5 c 0
 10.8203125 155.450195312 7.33984375 171.650390625 4.7900390625 186.5 c 0
 1.8603515625 203.559570312 0.1396484375 232.26953125 0.1201171875 264.5 c 0
 0.1103515625 292.549804688 2.099609375 335.41015625 4.5498046875 359.75 c 0
 7 384.08984375 8.3203125 405.349609375 7.5 407 c 0
 6.669921875 408.650390625 7.9296875 417.08984375 10.2802734375 425.75 c 0
 12.6396484375 434.41015625 16.6904296875 451.629882812 19.2802734375 464 c 0
 22.2197265625 477.990234375 29.9501953125 498.23046875 39.75 517.530273438 c 0
 48.41015625 534.599609375 56.849609375 551.059570312 58.5 554.120117188 c 0
 60.150390625 557.1796875 117.4296875 603.459960938 130.360351562 616.25 c 0
 143.280273438 629.040039062 160 643.549804688 167.5 648.5 c 0
 175.009765625 653.450195312 185.280273438 659.990234375 190.3203125 663.030273438 c 0
 195.370117188 666.0703125 202.870117188 671.610351562 207 675.349609375 c 0
 211.120117188 679.08984375 219.219726562 684.700195312 225 687.830078125 c 0
 230.76953125 690.950195312 236.169921875 694.1796875 237 695 c 0
 237.8203125 695.830078125 242.419921875 698.530273438 247.209960938 701 c 0
 252.709960938 703.83984375 263.759765625 705.419921875 277.209960938 705.26953125 c 0
 294.440429688 705.08984375 300.620117188 703.66015625 309.620117188 697.76953125 c 0
 315.740234375 693.76953125 320.76953125 689.150390625 320.799804688 687.5 c 0
 320.8203125 685.849609375 323.919921875 681.440429688 327.669921875 677.709960938 c 0
 332.73046875 672.6796875 336.209960938 671.509765625 341.080078125 673.209960938 c 0
 344.700195312 674.469726562 351.450195312 678.620117188 356.080078125 682.4296875 c 0
 360.709960938 686.240234375 371.919921875 694.009765625 381 699.700195312 c 0
 390.0703125 705.400390625 398.509765625 710.040039062 399.75 710.030273438 c 0
 400.990234375 710.009765625 404.73046875 712.360351562 408.080078125 715.25 c 0
 411.419921875 718.139648438 421.419921875 724.549804688 430.299804688 729.5 c 0
 439.169921875 734.450195312 455.6796875 744.049804688 466.969726562 750.830078125 c 0
 478.259765625 757.620117188 492.219726562 768.549804688 498 775.139648438 c 0
 503.76953125 781.719726562 511.870117188 788.870117188 516 791.030273438 c 0
 520.120117188 793.200195312 526.870117188 795.98046875 531 797.219726562 c 0
 535.120117188 798.469726562 538.5 799.629882812 538.5 799.8203125 c 0
162.639648438 544.25 m 0
 152.419921875 533.940429688 144.040039062 523.139648438 144.030273438 520.25 c 0
 144.009765625 517.360351562 142.440429688 511.959960938 140.540039062 508.25 c 0
 138.639648438 504.540039062 135.389648438 493.400390625 133.3203125 483.5 c 0
 131.259765625 473.599609375 129.1796875 453.349609375 128.700195312 438.5 c 0
 128.23046875 423.650390625 127.919921875 405.4296875 128.009765625 398 c 0
 128.099609375 390.580078125 128.3203125 369.650390625 128.5 351.5 c 0
 128.6796875 333.349609375 129.51953125 296.900390625 130.370117188 270.5 c 0
 131.219726562 244.099609375 132.370117188 219.799804688 132.919921875 216.5 c 0
 133.469726562 213.200195312 134.700195312 208.48046875 135.639648438 206 c 0
 136.580078125 203.530273438 138.849609375 187.66015625 140.6796875 170.75 c 0
 142.5 153.83984375 146.01953125 135.950195312 148.5 131 c 0
 150.969726562 126.049804688 152.969726562 119.639648438 152.919921875 116.75 c 0
 152.879882812 113.860351562 155.919921875 108.629882812 159.669921875 105.129882812 c 0
 163.4296875 101.629882812 170.549804688 97.4599609375 175.5 95.8603515625 c 0
 180.450195312 94.259765625 188.549804688 94 193.5 95.2802734375 c 0
 198.450195312 96.5703125 207.900390625 99.009765625 214.5 100.719726562 c 2
 226.5 103.830078125 l 1
 225.4296875 258.5703125 224.419921875 325.780273438 223.559570312 353 c 0
 222.709960938 380.23046875 220.559570312 411.280273438 218.780273438 422 c 0
 217.009765625 432.73046875 214.379882812 471.200195312 212.950195312 507.5 c 0
 211.51953125 543.799804688 209.139648438 574.1796875 207.66015625 575 c 0
 206.190429688 575.830078125 172.860351562 554.559570312 162.639648438 544.25 c 0
EndSplineSet
Validated: 524321
EndChar

StartChar: B
Encoding: 66 66 3
Width: 925
Flags: HMW
LayerCount: 2
Fore
SplineSet
487.5 799.8203125 m 4
 490.799804688 799.870117188 495.080078125 798.919921875 497.01953125 797.700195312 c 4
 498.959960938 796.490234375 501.900390625 792.129882812 503.559570312 788 c 4
 505.830078125 782.379882812 505.41015625 778.25 501.919921875 771.5 c 4
 498.259765625 764.419921875 496.959960938 748.080078125 495.849609375 695 c 4
 495.0703125 657.879882812 494.389648438 625.48046875 494.33984375 623 c 4
 494.299804688 620.530273438 495.849609375 608.379882812 497.799804688 596 c 4
 499.759765625 583.629882812 501.950195312 572.490234375 502.6796875 571.25 c 4
 503.400390625 570.009765625 511.419921875 569 520.5 569 c 4
 529.5703125 569 732.030273438 599 744 599 c 4
 755.549804688 599 768.040039062 597.48046875 771.75 595.629882812 c 4
 775.459960938 593.76953125 781.5703125 589.379882812 785.330078125 585.879882812 c 4
 789.879882812 581.620117188 792.169921875 576 792.209960938 569 c 4
 792.240234375 563.219726562 749.639648438 482.790039062 745.509765625 478.25 c 4
 740.290039062 472.51953125 733.200195312 469.110351562 722.25 467.0703125 c 4
 713.58984375 465.459960938 688.26953125 464.580078125 666 465.110351562 c 4
 643.719726562 465.650390625 620.099609375 464.849609375 613.5 463.330078125 c 4
 606.900390625 461.8203125 598.120117188 460.080078125 594 459.459960938 c 4
 589.870117188 458.849609375 573 456.379882812 556.5 453.969726562 c 4
 540 451.559570312 523.120117188 450.259765625 519 451.080078125 c 4
 514.76953125 451.919921875 509.870117188 450.799804688 507.780273438 448.530273438 c 4
 505.1796875 445.719726562 504.26953125 434.5 505.5 378.5 c 5
 537 377.809570312 l 6
 554.3203125 377.419921875 593.469726562 378.5703125 624 380.349609375 c 4
 654.51953125 382.129882812 686.25 383.530273438 694.5 383.459960938 c 4
 702.75 383.389648438 716.919921875 381.139648438 726 378.459960938 c 4
 735.0703125 375.76953125 751.950195312 370.73046875 763.5 367.25 c 4
 783.169921875 361.330078125 786.349609375 359.059570312 813.75 331.459960938 c 4
 829.83984375 315.259765625 842.990234375 300.309570312 842.969726562 298.25 c 4
 842.959960938 296.190429688 845.879882812 289.099609375 849.459960938 282.5 c 4
 854.280273438 273.639648438 856.049804688 265.009765625 856.240234375 249.5 c 4
 856.419921875 235.080078125 854.860351562 225.209960938 851.259765625 218 c 4
 848.370117188 212.23046875 841.98046875 202.099609375 837.059570312 195.5 c 4
 832.129882812 188.900390625 826.400390625 180.129882812 824.3203125 176 c 4
 822.240234375 171.879882812 818.139648438 165.799804688 815.209960938 162.5 c 4
 812.280273438 159.200195312 795.0703125 136.400390625 786 126.5 c 4
 776.919921875 116.599609375 764.440429688 104.790039062 758.25 100.25 c 4
 752.059570312 95.7099609375 733.799804688 77.1796875 730.5 74.009765625 c 4
 727.200195312 70.830078125 717.75 61.9697265625 709.5 54.3095703125 c 4
 701.25 46.650390625 642.639648438 10.990234375 639.75 10.990234375 c 4
 636.860351562 10.98046875 536.830078125 -33.5 529.5 -40.58984375 c 4
 522.900390625 -46.9599609375 515.809570312 -52.1396484375 513.75 -52.08984375 c 4
 511.690429688 -52.0400390625 508.309570312 -48.599609375 506.25 -44.4501953125 c 4
 504.190429688 -40.2900390625 499.120117188 -35.5703125 495 -33.9599609375 c 4
 490.870117188 -32.349609375 481.419921875 -24.9296875 474 -17.4697265625 c 4
 466.5703125 -10.01953125 424.190429688 35.23046875 420.709960938 41 c 4
 417.23046875 46.7802734375 411.580078125 53.5302734375 408.16015625 56 c 4
 404.740234375 58.48046875 402.009765625 61.849609375 402.099609375 63.5 c 4
 402.190429688 65.150390625 400.009765625 68.5302734375 397.259765625 71 c 4
 394.5 73.48046875 389.599609375 81.580078125 386.379882812 89 c 4
 383.150390625 96.4296875 379.01953125 105.200195312 377.200195312 108.5 c 4
 375.209960938 112.099609375 373.530273438 137.26953125 372.990234375 171.5 c 4
 372.5 202.849609375 371.450195312 244.700195312 370.669921875 264.5 c 4
 369.879882812 284.299804688 369.099609375 303.200195312 368.940429688 306.5 c 4
 368.780273438 309.799804688 369.400390625 335.790039062 370.3203125 364.25 c 4
 371.25 392.709960938 373.009765625 417.5 374.25 419.33984375 c 4
 375.490234375 421.169921875 374.469726562 423.849609375 372 425.290039062 c 4
 369.51953125 426.73046875 361.419921875 427.919921875 354 427.940429688 c 4
 346.5703125 427.959960938 329.700195312 426.360351562 316.5 424.379882812 c 4
 296.490234375 421.389648438 290.3203125 421.509765625 279.379882812 425.139648438 c 4
 270.219726562 428.190429688 264.870117188 432.209960938 261.650390625 438.5 c 4
 258.889648438 443.870117188 257.3203125 453.549804688 257.75 462.5 c 4
 258.139648438 470.75 259.9296875 480.200195312 261.719726562 483.5 c 4
 263.509765625 486.799804688 269.150390625 494.16015625 274.240234375 499.849609375 c 4
 279.330078125 505.540039062 288.900390625 515.3203125 295.5 521.58984375 c 4
 302.099609375 527.849609375 314.919921875 536.919921875 324 541.73046875 c 4
 333.0703125 546.540039062 346.5703125 551.330078125 354 552.379882812 c 4
 365.599609375 554.030273438 367.740234375 555.440429688 369.169921875 562.400390625 c 4
 370.08984375 566.849609375 370.76953125 594.259765625 370.669921875 623.290039062 c 4
 370.530273438 665.66015625 361.959960938 690.849609375 363.41015625 703.629882812 c 4
 365.040039062 718.059570312 366.780273438 721.6796875 375.41015625 728.620117188 c 4
 380.959960938 733.08984375 462.900390625 790.139648438 469.5 793.549804688 c 4
 476.099609375 796.950195312 484.200195312 799.76953125 487.5 799.8203125 c 4
530.25 278.049804688 m 4
 525.709960938 278.01953125 521.3203125 276.650390625 520.5 275 c 4
 519.669921875 273.349609375 518.419921875 256.139648438 517.709960938 236.75 c 4
 517 217.360351562 517.6796875 194.080078125 519.219726562 185 c 4
 520.759765625 175.9296875 526.110351562 159.73046875 531.099609375 149 c 4
 536.08984375 138.280273438 540.139648438 127.139648438 540.08984375 124.25 c 4
 540.040039062 121.360351562 547.51953125 112.58984375 556.719726562 104.75 c 4
 565.919921875 96.91015625 578.400390625 86.0703125 584.469726562 80.650390625 c 4
 590.540039062 75.240234375 632.01953125 50 634.5 50 c 4
 636.969726562 50 645.41015625 54.009765625 653.25 58.91015625 c 4
 661.08984375 63.8203125 668.509765625 67.8701171875 669.75 67.91015625 c 4
 670.990234375 67.9599609375 677.059570312 72.580078125 683.25 78.1796875 c 4
 689.440429688 83.76953125 698.549804688 91.919921875 703.5 96.2802734375 c 4
 708.450195312 100.639648438 713.169921875 104.099609375 714 103.98046875 c 4
 714.8203125 103.860351562 719.139648438 108.879882812 723.599609375 115.129882812 c 4
 728.049804688 121.379882812 733.059570312 131.900390625 734.740234375 138.5 c 4
 736.41015625 145.099609375 739.650390625 157.25 741.940429688 165.5 c 4
 745.509765625 178.360351562 745.490234375 182.860351562 741.8203125 197 c 4
 739.469726562 206.080078125 735.299804688 216.879882812 732.559570312 221 c 4
 729.8203125 225.129882812 725.9296875 231.200195312 723.919921875 234.5 c 4
 721.900390625 237.799804688 718.9296875 243.200195312 717.309570312 246.5 c 4
 715.6796875 249.799804688 710.559570312 255.58984375 705.9296875 259.370117188 c 4
 701.290039062 263.16015625 693.450195312 269.490234375 688.5 273.450195312 c 4
 683.549804688 277.41015625 672.0703125 282.080078125 663 283.830078125 c 4
 653.919921875 285.580078125 626.919921875 286.690429688 603 286.309570312 c 4
 577.58984375 285.900390625 555.129882812 284.040039062 549 281.849609375 c 4
 543.219726562 279.780273438 534.790039062 278.0703125 530.25 278.049804688 c 4
68.6103515625 559.9296875 m 0
 71.2998046875 559.900390625 76.8701171875 557.23046875 81 554 c 0
 85.1201171875 550.76953125 90.23046875 548.099609375 92.349609375 548.0703125 c 0
 94.4697265625 548.030273438 99.2001953125 544.370117188 102.849609375 539.940429688 c 0
 106.509765625 535.509765625 120.639648438 522.690429688 134.25 511.440429688 c 0
 147.860351562 500.200195312 171 476.98046875 171 474.5 c 0
 171 472.030273438 167.290039062 463.059570312 162.75 454.580078125 c 0
 158.209960938 446.099609375 153.150390625 436.9296875 151.5 434.190429688 c 0
 149.849609375 431.450195312 109.809570312 390.759765625 102.75 388.6796875 c 0
 93.2001953125 385.860351562 89.91015625 386.23046875 81 391.139648438 c 0
 75.2197265625 394.3203125 66.1201171875 399.530273438 60.76953125 402.709960938 c 0
 55.419921875 405.889648438 51.0302734375 409.509765625 51.01953125 410.75 c 0
 51.009765625 411.990234375 47.16015625 417.389648438 42.4697265625 422.75 c 0
 37.7802734375 428.110351562 29.33984375 434.41015625 23.7197265625 436.740234375 c 0
 18.099609375 439.080078125 11.08984375 443.129882812 8.150390625 445.740234375 c 0
 5.169921875 448.400390625 2.8701171875 454.469726562 2.9599609375 459.5 c 0
 3.0498046875 464.450195312 7.150390625 476.940429688 12.0595703125 487.25 c 0
 16.98046875 497.559570312 32.75 524.23046875 35.2099609375 530 c 0
 37.669921875 535.780273438 45.08984375 544.889648438 51.7001953125 550.25 c 0
 58.3095703125 555.610351562 65.919921875 559.969726562 68.6103515625 559.9296875 c 0
105 268.73046875 m 0
 105.8203125 268.959960938 111.900390625 266.940429688 118.5 264.240234375 c 0
 125.099609375 261.540039062 131.169921875 258.309570312 132 257.0703125 c 0
 132.8203125 255.8203125 141.259765625 251.25 150.75 246.900390625 c 0
 161.610351562 241.9296875 171.870117188 234.280273438 178.450195312 226.25 c 0
 184.190429688 219.240234375 189.669921875 208.780273438 190.620117188 203 c 0
 191.83984375 195.58984375 190.51953125 188.959960938 186.150390625 180.5 c 0
 182.740234375 173.900390625 180.009765625 167.150390625 180.0703125 165.5 c 0
 180.139648438 163.849609375 176.780273438 158.790039062 172.599609375 154.25 c 0
 168.419921875 149.709960938 165 145.330078125 165 144.5 c 0
 165 143.6796875 139.959960938 107.450195312 137.580078125 102.5 c 0
 133.530273438 94.080078125 132.290039062 93.5498046875 118.379882812 94.33984375 c 0
 110.190429688 94.7998046875 100.459960938 97.169921875 96.75 99.58984375 c 0
 93.0400390625 102.01953125 86.5595703125 107.040039062 82.3603515625 110.75 c 0
 78.16015625 114.459960938 69.3896484375 122.559570312 62.8603515625 128.75 c 0
 56.33984375 134.940429688 48.48046875 145.059570312 45.3896484375 151.25 c 0
 39.8701171875 162.33984375 39.8798828125 162.759765625 46.1396484375 180.5 c 0
 49.6396484375 190.400390625 53.169921875 199.1796875 54 200 c 0
 54.8203125 200.830078125 58.3203125 205.549804688 61.76953125 210.5 c 0
 65.2197265625 215.450195312 73.830078125 229.879882812 80.8896484375 242.559570312 c 0
 87.9599609375 255.25 95.9404296875 266.23046875 98.6201171875 266.959960938 c 0
 101.299804688 267.700195312 104.169921875 268.490234375 105 268.73046875 c 0
EndSplineSet
Validated: 524321
EndChar

StartChar: C
Encoding: 67 67 4
Width: 739
Flags: HMW
LayerCount: 2
Fore
SplineSet
97.5 793.540039062 m 0
 101.58984375 797.700195312 107.559570312 799.700195312 116.25 799.8203125 c 0
 123.259765625 799.919921875 131.219726562 798.990234375 133.9296875 797.75 c 0
 136.650390625 796.509765625 141.370117188 790.440429688 144.4296875 784.25 c 0
 148.559570312 775.900390625 150.009765625 766.219726562 150.040039062 746.75 c 0
 150.059570312 732.309570312 151.740234375 716.139648438 153.790039062 710.809570312 c 0
 156.540039062 703.620117188 160.599609375 700.009765625 169.5 696.830078125 c 0
 179.110351562 693.400390625 198.559570312 692.740234375 267 693.51953125 c 0
 336.389648438 694.3203125 363.809570312 695.9296875 412.5 702.08984375 c 0
 445.5 706.26953125 541.650390625 705.5703125 556.5 706.3203125 c 0
 579.700195312 707.48046875 584.4296875 706.879882812 590.129882812 702.080078125 c 0
 595.610351562 697.469726562 596.76953125 693.360351562 596.809570312 678.5 c 0
 596.830078125 668.599609375 596.3203125 652.400390625 595.669921875 642.5 c 0
 595.030273438 632.599609375 593.040039062 620.790039062 591.25 616.25 c 0
 589.459960938 611.709960938 588.01953125 602.259765625 588.049804688 595.25 c 0
 588.0703125 588.240234375 585.580078125 575.080078125 582.51953125 566 c 0
 579.450195312 556.9296875 573.5703125 542.75 569.450195312 534.5 c 0
 565.3203125 526.25 555.3203125 510.48046875 547.219726562 499.459960938 c 0
 539.120117188 488.440429688 531.150390625 479.290039062 529.5 479.120117188 c 0
 527.849609375 478.950195312 514.349609375 466.580078125 499.5 451.629882812 c 0
 484.650390625 436.6796875 468.450195312 422.349609375 463.5 419.780273438 c 0
 458.549804688 417.209960938 453.009765625 412.950195312 451.190429688 410.299804688 c 0
 449.379882812 407.66015625 439.25 400.349609375 428.690429688 394.049804688 c 0
 418.139648438 387.75 404.280273438 381 397.91015625 379.049804688 c 0
 391.530273438 377.099609375 384.110351562 373.459960938 381.41015625 370.969726562 c 0
 378.709960938 368.48046875 367.719726562 361.879882812 357 356.299804688 c 0
 346.26953125 350.709960938 335.469726562 344.349609375 333 342.150390625 c 0
 330.51953125 339.950195312 327.490234375 338.120117188 326.25 338.080078125 c 0
 325.009765625 338.030273438 319.610351562 334.5703125 314.25 330.370117188 c 0
 308.889648438 326.169921875 294.66015625 313.6796875 282.629882812 302.620117188 c 0
 270.599609375 291.549804688 236.599609375 246.73046875 229.419921875 236 c 0
 222.240234375 225.280273438 205.719726562 185.639648438 204.16015625 182.75 c 0
 202.309570312 179.3203125 202.5703125 173.450195312 208.5 154.150390625 c 1
 238.5 155.599609375 l 2
 255 156.389648438 270.51953125 158.26953125 273 159.76953125 c 0
 275.469726562 161.26953125 298.419921875 164.129882812 324 166.120117188 c 0
 349.5703125 168.110351562 378.599609375 170.450195312 388.5 171.330078125 c 0
 398.400390625 172.209960938 409.200195312 173.559570312 412.5 174.330078125 c 0
 415.799804688 175.110351562 428.620117188 175.849609375 441 175.990234375 c 0
 453.370117188 176.129882812 475.650390625 175.5703125 490.5 174.740234375 c 0
 505.349609375 173.91015625 528.969726562 171.629882812 543 169.669921875 c 0
 557.01953125 167.709960938 569.849609375 164.940429688 571.5 163.509765625 c 0
 573.150390625 162.0703125 576.51953125 160.959960938 579 161.040039062 c 0
 581.469726562 161.120117188 589.5703125 157.870117188 597 153.830078125 c 0
 604.419921875 149.790039062 617.25 139.66015625 625.5 131.3203125 c 0
 633.75 122.98046875 641.849609375 116.099609375 643.5 116.040039062 c 0
 645.150390625 115.969726562 652.48046875 109.51953125 659.790039062 101.709960938 c 0
 671.740234375 88.9404296875 673.040039062 86.1298828125 672.599609375 74 c 0
 672.330078125 66.580078125 669.799804688 57.1298828125 666.969726562 53 c 0
 664.139648438 48.8798828125 656.76953125 40.7802734375 650.599609375 35 c 0
 644.419921875 29.23046875 634.559570312 20.1103515625 628.6796875 14.75 c 0
 622.809570312 9.3896484375 574.120117188 -19.75 570 -23.3203125 c 0
 565.870117188 -26.8896484375 559.459960938 -30.759765625 555.75 -31.91015625 c 0
 550.900390625 -33.41015625 544.98046875 -31.4501953125 534.75 -24.9501953125 c 0
 526.91015625 -19.98046875 516.900390625 -13.5703125 512.490234375 -10.7001953125 c 0
 508.08984375 -7.83984375 501.33984375 -0.91015625 497.490234375 4.7099609375 c 0
 493.650390625 10.3203125 488.459960938 17.0703125 485.969726562 19.7099609375 c 0
 483.48046875 22.33984375 478.41015625 26.1904296875 474.719726562 28.25 c 0
 471.01953125 30.3095703125 454.16015625 33.26953125 437.25 34.830078125 c 0
 420.33984375 36.3896484375 376.120117188 38.3701171875 339 39.2197265625 c 0
 301.870117188 40.080078125 135.450195312 24.23046875 130.5 22.6103515625 c 0
 125.549804688 20.98046875 108.669921875 18.8798828125 93 17.9404296875 c 0
 77.3203125 17.009765625 62.4697265625 15.259765625 60 14.0498046875 c 0
 57.51953125 12.83984375 50.76953125 13.5400390625 45 15.6103515625 c 0
 36.8095703125 18.5302734375 33.66015625 21.91015625 30.669921875 30.9296875 c 0
 27.7197265625 39.849609375 27.599609375 46.6201171875 30.1396484375 60.5 c 0
 31.9501953125 70.400390625 33.33984375 87.2802734375 33.23046875 98 c 0
 33.1201171875 108.73046875 33.58984375 135.049804688 34.2802734375 156.5 c 0
 34.9599609375 177.950195312 36.900390625 200.900390625 38.58984375 207.5 c 0
 40.2802734375 214.099609375 43.080078125 224.900390625 44.8095703125 231.5 c 0
 46.5400390625 238.099609375 49.990234375 246.540039062 52.48046875 250.25 c 0
 54.9599609375 253.959960938 57.0400390625 258.690429688 57.080078125 260.75 c 0
 57.1298828125 262.809570312 61.2197265625 268.549804688 66.169921875 273.5 c 0
 71.1201171875 278.450195312 75.1396484375 283.849609375 75.1103515625 285.5 c 0
 75.08984375 287.150390625 82.1396484375 295.599609375 90.7802734375 304.280273438 c 0
 99.4296875 312.969726562 118.389648438 330.009765625 123.75 334.91015625 c 0
 129.110351562 339.809570312 146.209960938 347.219726562 150.75 351.400390625 c 0
 155.290039062 355.580078125 160.690429688 358.969726562 162.75 358.9296875 c 0
 164.809570312 358.900390625 171.900390625 363.330078125 178.5 368.780273438 c 0
 185.099609375 374.23046875 193.870117188 380.360351562 198 382.400390625 c 0
 202.120117188 384.4296875 211.5703125 390.099609375 219 395 c 0
 226.419921875 399.900390625 234.51953125 404.83984375 237 405.98046875 c 0
 239.469726562 407.120117188 245.549804688 410.860351562 250.5 414.290039062 c 0
 255.450195312 417.709960938 262.200195312 422.240234375 265.5 424.33984375 c 0
 268.799804688 426.450195312 275.349609375 430.5 280.049804688 433.33984375 c 0
 284.759765625 436.1796875 296.459960938 444.580078125 306.0703125 452 c 0
 315.669921875 459.4296875 331.98046875 471.580078125 342.309570312 479 c 0
 352.639648438 486.4296875 362.530273438 494 364.290039062 495.830078125 c 0
 366.059570312 497.66015625 371.209960938 503.400390625 375.75 508.580078125 c 0
 380.290039062 513.759765625 384 518.6796875 384 519.5 c 0
 384 520.330078125 388.780273438 528.08984375 394.610351562 536.75 c 0
 400.450195312 545.41015625 405.1796875 554.190429688 405.110351562 556.25 c 0
 405.049804688 558.309570312 406.349609375 560 408 560 c 0
 409.650390625 560 411 564.049804688 411 569 c 0
 411 573.950195312 409.919921875 578 408.599609375 578 c 0
 407.280273438 578 389.700195312 571.860351562 376.5 571.530273438 c 0
 363.299804688 571.209960938 268.799804688 564.8203125 232.5 563.4296875 c 0
 196.200195312 562.040039062 85.7197265625 556.8203125 75 555.940429688 c 0
 58.91015625 554.639648438 52.8798828125 555.549804688 40.5 561.16015625 c 0
 32.25 564.900390625 23.1396484375 571.5703125 20.25 575.98046875 c 0
 17.3603515625 580.389648438 4.009765625 653 2.58984375 669.5 c 0
 0.2001953125 697.23046875 0.48046875 700.290039062 6.3095703125 710 c 0
 9.7802734375 715.780273438 94.2001953125 790.1796875 97.5 793.540039062 c 0
EndSplineSet
Validated: 524321
EndChar

StartChar: D
Encoding: 68 68 5
Width: 742
Flags: HMW
LayerCount: 2
Fore
SplineSet
352.5 797.919921875 m 0
 355.799804688 798.75 362.540039062 799.23046875 367.48046875 798.969726562 c 0
 374.120117188 798.620117188 392.440429688 796.349609375 395.23046875 790.25 c 0
 397.299804688 785.709960938 396.690429688 776.639648438 397.530273438 773.75 c 0
 398.379882812 770.860351562 404.370117188 635.299804688 404.5 615.5 c 0
 404.620117188 595.700195312 404.790039062 578.490234375 404.860351562 577.25 c 0
 404.940429688 576.009765625 407.01953125 575 409.5 575 c 0
 411.969726562 575 418.389648438 571.990234375 423.75 568.3203125 c 0
 429.110351562 564.639648438 505.950195312 527.879882812 517.5 522.219726562 c 0
 529.049804688 516.549804688 539.849609375 511.940429688 541.5 511.959960938 c 0
 543.150390625 511.98046875 552.259765625 506.58984375 561.75 500 c 0
 571.240234375 493.400390625 580.009765625 488.040039062 581.25 488.08984375 c 0
 582.490234375 488.139648438 587.030273438 484.419921875 591.33984375 479.83984375 c 0
 597.98046875 472.76953125 599.51953125 467.620117188 601.440429688 446 c 0
 602.690429688 431.98046875 603.75 413.75 603.809570312 405.5 c 0
 603.870117188 397.25 603.690429688 387.129882812 603.400390625 383 c 0
 603.120117188 378.879882812 602.919921875 370.780273438 602.950195312 365 c 0
 602.990234375 359.23046875 604.5 339.650390625 606.3203125 321.5 c 0
 608.139648438 303.349609375 622 258.4296875 626.889648438 251 c 0
 631.790039062 243.580078125 640.5703125 232.099609375 646.419921875 225.5 c 0
 652.259765625 218.900390625 657.900390625 210.129882812 658.940429688 206 c 0
 659.98046875 201.879882812 659.610351562 195.129882812 658.110351562 191 c 0
 656.240234375 185.83984375 652.830078125 183.26953125 647.190429688 182.75 c 0
 642.690429688 182.33984375 635.290039062 178.490234375 630.75 174.190429688 c 0
 626.209960938 169.889648438 617.76953125 164.490234375 612 162.190429688 c 0
 606.219726562 159.889648438 595.419921875 151.76953125 588 144.16015625 c 0
 580.5703125 136.549804688 570.790039062 128.450195312 566.25 126.16015625 c 0
 559.459960938 122.740234375 555.830078125 122.66015625 545.75 125.75 c 0
 538.58984375 127.940429688 531.620117188 132.610351562 528.969726562 137 c 0
 526.48046875 141.129882812 518.870117188 148.549804688 512.059570312 153.5 c 0
 505.25 158.450195312 494.91015625 165.309570312 489.08984375 168.740234375 c 0
 483.1796875 172.219726562 477.16015625 178.849609375 475.469726562 183.740234375 c 0
 473.799804688 188.559570312 470.129882812 195.879882812 467.299804688 200 c 0
 464.48046875 204.129882812 459.299804688 215.599609375 455.799804688 225.5 c 0
 452.290039062 235.400390625 448.709960938 252.950195312 447.83984375 264.5 c 0
 446.759765625 278.8203125 456.540039062 341.400390625 455.0703125 375.5 c 0
 454.080078125 398.599609375 451.370117188 423.580078125 449.059570312 431 c 0
 445.9296875 441.030273438 443 444.919921875 437.669921875 446.150390625 c 0
 433.73046875 447.059570312 425.440429688 450.099609375 419.25 452.900390625 c 0
 413.059570312 455.709960938 406.650390625 458 405 458 c 0
 403.349609375 458 400.650390625 461 399 461 c 0
 397.219726562 461 396.259765625 455.169921875 396.639648438 442.25 c 0
 396.98046875 430.290039062 396.950195312 400.25 396.549804688 375.5 c 0
 396.150390625 350.75 396.650390625 296.75 397.66015625 255.5 c 0
 398.66015625 214.25 400.719726562 178.139648438 402.240234375 175.25 c 0
 403.759765625 172.360351562 405.610351562 161.559570312 406.349609375 151.25 c 0
 407.099609375 140.940429688 409.0703125 115.629882812 410.73046875 95 c 0
 412.860351562 68.48046875 415.5703125 53.5498046875 419.969726562 44 c 0
 423.389648438 36.580078125 427.379882812 28.48046875 428.83984375 26 c 0
 430.299804688 23.5302734375 433.639648438 16.4404296875 436.25 10.25 c 0
 438.860351562 4.0595703125 441 -3.01953125 441 -5.5 c 0
 441 -7.9697265625 439.650390625 -10.669921875 438 -11.5 c 0
 436.349609375 -12.3203125 435 -16.3701171875 435 -20.5 c 0
 435 -25.169921875 431.599609375 -30.830078125 426 -35.5 c 0
 421.049804688 -39.6201171875 410.870117188 -44.6904296875 403.370117188 -46.75 c 0
 395.049804688 -49.0400390625 389.209960938 -52.5400390625 388.370117188 -55.75 c 0
 387.580078125 -58.76953125 382.849609375 -61.849609375 377.25 -63 c 0
 371.889648438 -64.1103515625 361.419921875 -68.349609375 354 -72.4296875 c 0
 344.51953125 -77.650390625 337.8203125 -79.3603515625 331.5 -78.1796875 c 0
 326.549804688 -77.259765625 316.419921875 -75 309 -73.16015625 c 0
 299.809570312 -70.8896484375 293.8203125 -67.2197265625 290.25 -61.66015625 c 0
 287.360351562 -57.169921875 282 -48.76953125 278.33984375 -43 c 0
 274.6796875 -37.2197265625 268.599609375 -30.1396484375 264.83984375 -27.25 c 0
 261.080078125 -24.3603515625 257.240234375 -17.6103515625 256.309570312 -12.25 c 0
 255.379882812 -6.8896484375 251.879882812 4.9296875 248.549804688 14 c 0
 245.209960938 23.080078125 241.009765625 33.8798828125 239.209960938 38 c 0
 237.419921875 42.1298828125 236.190429688 46.509765625 236.48046875 47.75 c 0
 236.759765625 48.990234375 237.08984375 79.3603515625 237.190429688 115.25 c 0
 237.299804688 151.139648438 235.879882812 192.650390625 234.040039062 207.5 c 0
 232.190429688 222.349609375 230.200195312 273.650390625 229.610351562 321.5 c 0
 229.01953125 369.349609375 227.6796875 418.629882812 226.629882812 431 c 0
 225.580078125 443.379882812 224.110351562 457.549804688 223.370117188 462.5 c 0
 222.490234375 468.280273438 220.25 471.5 217.099609375 471.5 c 0
 214.400390625 471.5 210.959960938 468.799804688 209.459960938 465.5 c 0
 207.959960938 462.200195312 200.16015625 454.780273438 192.120117188 449 c 0
 184.08984375 443.23046875 146.139648438 410.4296875 143.25 409.209960938 c 0
 138.639648438 407.26953125 138.219726562 404 139.790039062 382.25 c 0
 140.76953125 368.639648438 142.059570312 347.379882812 142.639648438 335 c 0
 143.23046875 322.629882812 144.48046875 305.080078125 145.4296875 296 c 0
 146.370117188 286.9296875 147.73046875 272.080078125 148.440429688 263 c 0
 149.16015625 253.9296875 150.8203125 245.830078125 152.120117188 245 c 0
 153.4296875 244.1796875 154.5 233.4296875 154.5 198.75 c 1
 145.5 196.879882812 l 2
 140.549804688 195.849609375 132.450195312 192.870117188 127.5 190.26953125 c 0
 122.549804688 187.66015625 110.759765625 178.3203125 101.299804688 169.51953125 c 0
 91.83984375 160.709960938 78.33984375 149.900390625 71.2998046875 145.5 c 0
 64.259765625 141.099609375 54.7900390625 136.709960938 50.25 135.75 c 0
 44.6904296875 134.5703125 39.0703125 135.950195312 33 140 c 0
 28.0498046875 143.299804688 22.650390625 148.700195312 21 152 c 0
 18.9296875 156.150390625 7.33984375 296.900390625 4.9599609375 303.5 c 0
 1.16015625 314.08984375 1.1904296875 316.379882812 5.259765625 323 c 0
 7.7998046875 327.129882812 11.3798828125 331.849609375 13.23046875 333.5 c 0
 15.0703125 335.150390625 18.240234375 340.209960938 20.2900390625 344.75 c 0
 22.330078125 349.290039062 66.41015625 411.330078125 74.25 416.620117188 c 0
 82.08984375 421.91015625 116.620117188 445.290039062 129 451.959960938 c 0
 143.440429688 459.740234375 158.219726562 471.049804688 170.25 483.540039062 c 0
 180.559570312 494.240234375 191.01953125 503 193.5 503 c 0
 195.969726562 503 200.040039062 506.040039062 202.51953125 509.75 c 0
 205.009765625 513.459960938 206.990234375 515.150390625 206.919921875 513.5 c 0
 206.849609375 511.849609375 209.540039062 514.209960938 212.900390625 518.75 c 0
 217.919921875 525.540039062 218.469726562 528.599609375 216 536 c 0
 214.349609375 540.950195312 213.669921875 546.349609375 214.5 548 c 0
 215.3203125 549.650390625 214.01953125 569.559570312 211.610351562 592.25 c 0
 209.200195312 614.940429688 207.349609375 641.599609375 207.51953125 651.5 c 0
 207.6796875 661.400390625 206.959960938 671.190429688 205.91015625 673.25 c 0
 204.860351562 675.309570312 205.009765625 685.330078125 206.25 695.5 c 0
 208.33984375 712.66015625 349.200195312 797.080078125 352.5 797.919921875 c 0
EndSplineSet
Validated: 524321
EndChar

StartChar: E
Encoding: 69 69 6
Width: 493
Flags: HMW
LayerCount: 2
Fore
SplineSet
82.5 764.669921875 m 0
 87.4501953125 768.75 159.379882812 802.959960938 163.509765625 799.25 c 0
 169.490234375 793.879882812 171.98046875 786.990234375 175.73046875 765.5 c 0
 178.3203125 750.650390625 179.870117188 733.780273438 179.169921875 728 c 0
 178.469726562 722.23046875 178.860351562 709.400390625 180.040039062 699.5 c 0
 181.33984375 688.559570312 180.549804688 669.150390625 178.030273438 650 c 0
 175.75 632.6796875 174.139648438 605.6796875 174.450195312 590 c 0
 174.759765625 574.330078125 173.360351562 553.400390625 171.349609375 543.5 c 0
 169.330078125 533.599609375 168.450195312 524.830078125 169.389648438 524 c 0
 170.3203125 523.1796875 175.120117188 525.540039062 180.040039062 529.25 c 0
 184.969726562 532.959960938 189.669921875 536 190.5 536 c 0
 191.3203125 536 200.440429688 541.4296875 210.75 548.080078125 c 0
 221.059570312 554.719726562 370.549804688 679.4296875 380.25 680.969726562 c 0
 389.91015625 682.509765625 394.91015625 681.73046875 400.900390625 677.75 c 0
 405.240234375 674.860351562 410.639648438 668.790039062 412.900390625 664.25 c 0
 415.150390625 659.709960938 417.009765625 652.290039062 417.009765625 647.75 c 0
 417.01953125 643.209960938 414.66015625 632.969726562 411.759765625 624.98046875 c 0
 407.83984375 614.150390625 401.549804688 606.110351562 387 593.259765625 c 0
 376.26953125 583.799804688 360.139648438 572.110351562 351.139648438 567.280273438 c 0
 342.139648438 562.450195312 332.01953125 556.059570312 328.639648438 553.080078125 c 0
 325.259765625 550.099609375 316.419921875 544.700195312 309 541.08984375 c 0
 301.5703125 537.469726562 294.8203125 533.549804688 294 532.389648438 c 0
 293.169921875 531.23046875 282.709960938 528.860351562 270.75 527.139648438 c 0
 258.790039062 525.41015625 243.259765625 521.830078125 236.25 519.190429688 c 0
 229.240234375 516.540039062 217.419921875 512.099609375 210 509.3203125 c 0
 202.5703125 506.530273438 191.5 500.940429688 185.379882812 496.879882812 c 0
 179.01953125 492.66015625 171.969726562 484.360351562 168.919921875 477.5 c 0
 165.099609375 468.900390625 163.790039062 459.33984375 164.290039062 443.75 c 0
 164.6796875 431.790039062 163.8203125 419.639648438 162.379882812 416.75 c 0
 160.9296875 413.860351562 160.709960938 408.799804688 161.879882812 405.5 c 0
 163.049804688 402.200195312 162.540039062 395.860351562 160.75 391.400390625 c 0
 158.959960938 386.950195312 158.459960938 382.219726562 159.629882812 380.900390625 c 0
 160.799804688 379.580078125 165.860351562 382.209960938 170.879882812 386.75 c 0
 175.889648438 391.290039062 181.009765625 395 182.25 395 c 0
 183.490234375 395.009765625 188.549804688 398.349609375 193.5 402.440429688 c 0
 198.450195312 406.540039062 204.190429688 411.259765625 206.25 412.940429688 c 0
 208.309570312 414.620117188 215.740234375 418.599609375 222.75 421.76953125 c 0
 229.759765625 424.950195312 239.549804688 430.66015625 244.5 434.469726562 c 0
 249.450195312 438.26953125 262.950195312 445.969726562 274.5 451.559570312 c 0
 286.049804688 457.16015625 299.549804688 464.790039062 304.5 468.51953125 c 0
 309.450195312 472.25 316.870117188 476.330078125 321 477.58984375 c 0
 325.120117188 478.849609375 333.219726562 482.76953125 339 486.309570312 c 0
 344.76953125 489.849609375 354.900390625 494.900390625 361.5 497.530273438 c 0
 368.099609375 500.16015625 380.919921875 503.66015625 390 505.3203125 c 0
 399.0703125 506.98046875 408.51953125 507.280273438 411 506 c 0
 413.469726562 504.709960938 417.259765625 500.48046875 419.41015625 496.580078125 c 0
 422.620117188 490.759765625 422.620117188 488.080078125 419.41015625 481.540039062 c 0
 417.259765625 477.16015625 407.400390625 467.309570312 397.5 459.650390625 c 0
 387.599609375 452 334.620117188 430.709960938 329.259765625 428.51953125 c 0
 323.889648438 426.3203125 255.620117188 395.700195312 253.799804688 394.719726562 c 0
 251.990234375 393.740234375 247.120117188 391.150390625 243 388.969726562 c 0
 238.870117188 386.790039062 228.75 381.66015625 220.5 377.580078125 c 0
 212.25 373.5 197.83984375 365.280273438 188.469726562 359.330078125 c 0
 178.299804688 352.860351562 169.540039062 344.5703125 166.719726562 338.75 c 0
 163.580078125 332.259765625 161.950195312 320.209960938 161.83984375 302.75 c 0
 161.759765625 288.309570312 162.490234375 273.129882812 163.459960938 269 c 0
 164.4296875 264.879882812 190.900390625 153.799804688 193.349609375 150.5 c 0
 195.799804688 147.200195312 241.639648438 75.8701171875 245.48046875 67.2197265625 c 0
 250.719726562 55.41015625 252 48.51953125 250.599609375 39.5 c 0
 249.580078125 32.900390625 245.76953125 22.6103515625 242.120117188 16.6298828125 c 0
 238.48046875 10.66015625 226.059570312 -8.240234375 214.51953125 -25.3701171875 c 0
 202.98046875 -42.490234375 187.459960938 -62.419921875 180.01953125 -69.650390625 c 0
 172.580078125 -76.8798828125 163.459960938 -83.9697265625 159.75 -85.400390625 c 0
 156.040039062 -86.830078125 148.26953125 -88 142.5 -88 c 0
 134.490234375 -88 129.690429688 -85.58984375 122.25 -77.849609375 c 0
 116.889648438 -72.26953125 104.719726562 -59.1103515625 95.2197265625 -48.599609375 c 0
 85.7197265625 -38.099609375 71.4404296875 -20.7197265625 63.5 -10 c 0
 55.5595703125 0.73046875 48.23046875 12.2001953125 47.2001953125 15.5 c 0
 46.169921875 18.7998046875 43.169921875 23.5302734375 40.5302734375 26 c 0
 37.0498046875 29.259765625 35.76953125 35.8603515625 35.8701171875 50 c 0
 35.9501953125 60.73046875 34.7197265625 87.0498046875 33.150390625 108.5 c 0
 31.5703125 129.950195312 29.580078125 181.9296875 28.73046875 224 c 0
 27.759765625 271.700195312 25.3798828125 311.790039062 22.41015625 330.5 c 0
 19.7802734375 347 17.6201171875 365.23046875 17.58984375 371 c 0
 17.5703125 376.780273438 15.6201171875 395.6796875 13.259765625 413 c 0
 10.900390625 430.330078125 7.6298828125 453.950195312 6 465.5 c 0
 4.3701171875 477.049804688 2.8701171875 531.73046875 2.669921875 587 c 0
 2.3896484375 663.700195312 3.2197265625 689.280273438 6.169921875 695 c 0
 8.2998046875 699.129882812 11.490234375 704.049804688 13.26953125 705.959960938 c 0
 15.0498046875 707.860351562 24.599609375 717.780273438 34.5 728.01953125 c 0
 44.400390625 738.25 57.2197265625 749.01953125 63 751.940429688 c 0
 68.76953125 754.870117188 77.5498046875 760.58984375 82.5 764.669921875 c 0
EndSplineSet
Validated: 524321
EndChar

StartChar: F
Encoding: 70 70 7
Width: 1150
Flags: W
HStem: 628.75 168.3<362.258 600.542> 636.25 154.88<363.531 602.723>
VStem: 192.65 169.21<165.617 627.783> 208.32 165.05<175.045 628.449> 616.47 148.36<302.537 616.732>
LayerCount: 2
Fore
SplineSet
305.169921875 797.049804688 m 0xa8
 314.700195312 797.0703125 626.360351562 791.059570312 629.25 791.129882812 c 0
 632.139648438 791.200195312 643.26953125 789.8203125 654 788.049804688 c 0
 664.719726562 786.290039062 875.25 777.719726562 883.5 777.030273438 c 0
 891.75 776.33984375 909.01953125 774.139648438 921.870117188 772.139648438 c 0
 934.73046875 770.139648438 979.240234375 743.5 986.25 738 c 0
 993.259765625 732.5 999 726.650390625 999 725 c 0
 999 723.349609375 1001.45996094 718.290039062 1004.45996094 713.75 c 0
 1007.46972656 709.209960938 1013.62011719 693.349609375 1018.13964844 678.5 c 0
 1022.65039062 663.650390625 1028.16015625 645.4296875 1030.36035156 638 c 0
 1032.5703125 630.580078125 1036.0703125 617.080078125 1038.12988281 608 c 0
 1040.20019531 598.9296875 1045.78027344 581.379882812 1050.54980469 569 c 0
 1055.30957031 556.629882812 1062.87011719 542.169921875 1067.34960938 536.889648438 c 0
 1071.83007812 531.599609375 1076.84960938 527.25 1078.5 527.219726562 c 0
 1080.15039062 527.200195312 1083.19042969 523.759765625 1085.25 519.58984375 c 0
 1087.30957031 515.41015625 1088.96972656 508.290039062 1088.94042969 503.75 c 0
 1088.90039062 499.209960938 1084.84960938 487.059570312 1079.94042969 476.75 c 0
 1075.01953125 466.440429688 1033.79980469 418.790039062 1030.5 415.919921875 c 0
 1027.20019531 413.059570312 947.469726562 372.129882812 945 369.51953125 c 0
 942.299804688 366.669921875 938.099609375 365.490234375 934.5 366.5703125 c 0
 931.200195312 367.559570312 925.309570312 369.98046875 921.41015625 371.940429688 c 0
 917.509765625 373.900390625 912.26953125 379.549804688 909.76953125 384.5 c 0
 906.190429688 391.58984375 904.990234375 408.9296875 904.110351562 466.25 c 0
 903.5 506.259765625 901.650390625 542.379882812 900 546.5 c 0
 898.349609375 550.629882812 896.959960938 557.040039062 896.919921875 560.75 c 0
 896.870117188 564.459960938 893.5 571.889648438 889.419921875 577.25 c 0
 885.33984375 582.610351562 873.900390625 591.049804688 864 596 c 0
 854.099609375 600.950195312 840.259765625 605.889648438 833.25 606.969726562 c 0
 826.240234375 608.049804688 814.759765625 611.4296875 807.75 614.469726562 c 0
 796.01953125 619.559570312 793.919921875 619.639648438 781.5 615.5 c 0
 769.76953125 611.58984375 767.8203125 609.719726562 766.629882812 601.25 c 0
 765.870117188 595.889648438 764.400390625 577.330078125 763.360351562 560 c 0
 762.3203125 542.6796875 762.990234375 501.5 764.830078125 468.5 c 0
 766.6796875 435.5 770.099609375 399.73046875 772.419921875 389 c 0
 774.75 378.280273438 777.360351562 358.030273438 778.219726562 344 c 0
 779.450195312 323.870117188 782.110351562 312.8203125 790.830078125 291.5 c 0
 796.91015625 276.650390625 804.919921875 261.129882812 808.620117188 257 c 0
 812.330078125 252.879882812 818.209960938 243.08984375 821.6796875 235.25 c 0
 825.16015625 227.41015625 829.349609375 220.330078125 831 219.5 c 0
 832.650390625 218.6796875 837.23046875 211.58984375 841.1796875 203.75 c 0
 845.120117188 195.91015625 849.900390625 183.4296875 851.799804688 176 c 0
 854.620117188 164.91015625 834.450195312 128.700195312 829.5 123.559570312 c 0
 824.549804688 118.4296875 685.120117188 55.509765625 681 52.419921875 c 0
 675.950195312 48.6298828125 668.599609375 46.8203125 658.5 46.8701171875 c 0
 650.25 46.919921875 640.459960938 48.990234375 636.75 51.48046875 c 0
 633.040039062 53.9599609375 629.969726562 57.6904296875 629.919921875 59.75 c 0
 629.879882812 61.8095703125 627.91015625 65.5302734375 625.549804688 68 c 0
 623.01953125 70.650390625 619.290039062 87.2998046875 616.469726562 108.5 c 0
 612.469726562 138.599609375 611.830078125 172.259765625 612.5703125 314 c 0
 613.059570312 407.23046875 612.620117188 505.099609375 611.58984375 531.5 c 0
 610.559570312 557.900390625 608.08984375 583.549804688 606.08984375 588.5 c 0
 604.099609375 593.450195312 602.58984375 605.940429688 602.73046875 616.25 c 0
 602.879882812 626.559570312 601.990234375 635.559570312 600.75 636.25 c 0x68
 599.509765625 636.940429688 390.98046875 626.48046875 382.5 628.75 c 0
 375.900390625 630.51953125 361.559570312 626.580078125 361.860351562 599.75 c 0xa8
 362.059570312 582.009765625 363.120117188 538.48046875 364.219726562 503 c 0
 365.3203125 467.530273438 367.48046875 429.73046875 369.009765625 419 c 0
 370.549804688 408.280273438 372.509765625 379.25 373.370117188 354.5 c 0
 374.240234375 329.75 375.75 290.599609375 376.73046875 267.5 c 0
 378.379882812 228.650390625 377.9296875 223.299804688 370.759765625 196.25 c 0
 366.490234375 180.16015625 363 164.299804688 363 161 c 0
 363 157.700195312 360.059570312 149.940429688 356.469726562 143.75 c 0
 352.870117188 137.559570312 346.219726562 125.75 341.690429688 117.5 c 0
 337.150390625 109.25 328.650390625 97.7802734375 322.799804688 92 c 0
 316.940429688 86.23046875 310.8203125 80.150390625 309.200195312 78.5 c 0
 307.580078125 76.849609375 297.759765625 66.650390625 287.379882812 55.83984375 c 0
 277 45.01953125 261.0703125 31.400390625 252 25.5703125 c 0
 241.200195312 18.6396484375 227.73046875 13.33984375 213 10.23046875 c 0
 200.620117188 7.6201171875 186.450195312 4.73046875 181.5 3.8095703125 c 0
 176.549804688 2.8798828125 171.370117188 3.1103515625 170 4.3095703125 c 0
 168.620117188 5.51953125 157.8203125 6.5 146 6.5 c 0
 128.389648438 6.5 119.889648438 8.3798828125 99 16.8798828125 c 0
 84.9697265625 22.58984375 65.0595703125 33.0498046875 54.75 40.1298828125 c 0
 44.4404296875 47.2099609375 34.650390625 53 33 53 c 0
 31.349609375 53 25.9501953125 59.080078125 21 66.5 c 0
 16.0498046875 73.9296875 9.900390625 89.1103515625 7.330078125 100.25 c 0
 3.76953125 115.709960938 2.5498046875 140.709960938 2.1904296875 206 c 0
 1.7998046875 275.700195312 2.5302734375 293.16015625 6.1103515625 300.5 c 0
 8.98046875 306.379882812 15.900390625 312.099609375 26.08984375 317 c 0
 34.66015625 321.129882812 43.1201171875 327.200195312 44.8798828125 330.5 c 0
 46.6396484375 333.799804688 53.7998046875 338.940429688 60.7900390625 341.91015625 c 0
 67.7802734375 344.889648438 81.599609375 354.709960938 91.5 363.73046875 c 0
 101.400390625 372.75 110.849609375 380.080078125 112.5 380.030273438 c 0
 114.150390625 379.969726562 118.120117188 384.330078125 121.309570312 389.709960938 c 0
 124.509765625 395.099609375 129.23046875 401.01953125 131.809570312 402.870117188 c 0
 134.389648438 404.719726562 139.200195312 405.549804688 142.5 404.709960938 c 0
 145.799804688 403.860351562 151.549804688 400.3203125 155.280273438 396.83984375 c 0
 159.009765625 393.349609375 162.719726562 386.790039062 163.530273438 382.25 c 0
 164.4296875 377.200195312 163.25 372.25 160.5 369.5 c 0
 158.01953125 367.030273438 155.860351562 361.959960938 155.700195312 358.25 c 0
 155.530273438 354.540039062 155.530273438 332.259765625 155.700195312 308.75 c 0
 155.860351562 285.240234375 157.450195312 262.290039062 159.209960938 257.75 c 0
 160.98046875 253.209960938 163.719726562 233.98046875 165.290039062 215 c 0
 167.099609375 193.200195312 169.889648438 177.740234375 177.599609375 165.5 c 1
 184.790039062 173 l 2
 188.740234375 177.129882812 195.700195312 189.950195312 200.240234375 201.5 c 0
 207.990234375 221.209960938 208.490234375 225.259765625 208.3203125 267.5 c 0x98
 208.23046875 292.25 207.200195312 326.6796875 206.040039062 344 c 0
 204.879882812 361.330078125 202.540039062 391.030273438 200.860351562 410 c 0
 199.169921875 428.98046875 197.959960938 464.080078125 198.16015625 488 c 0
 198.370117188 511.9296875 197.150390625 537.580078125 195.450195312 545 c 0
 193.75 552.4296875 192.490234375 560.530273438 192.650390625 563 c 0
 192.809570312 565.48046875 192.73046875 581.33984375 192.469726562 598.25 c 0
 192.01953125 627.389648438 204.280273438 694.9296875 211.719726562 704 c 0
 219.16015625 713.080078125 225.190429688 721.849609375 225.110351562 723.5 c 0
 225.040039062 725.150390625 270.419921875 774.08984375 272.76953125 778.490234375 c 0
 275.120117188 782.900390625 292.759765625 797.009765625 305.169921875 797.049804688 c 0xa8
EndSplineSet
Validated: 524321
EndChar

StartChar: G
Encoding: 71 71 8
Width: 937
Flags: W
HStem: -152.34 31.3896<8.84581 23.7581> 623 171.24<504.155 596.674> 648.19 137.46<259.26 362.875>
VStem: 57.3496 134.2<59.2825 480.187> 63.0596 138.551<-7.35346 412.081> 364.1 193.07<227.8 350.93> 366.63 137.18<372.661 622.956> 677.7 152.149<158.776 550.848>
LayerCount: 2
Fore
SplineSet
651 797.08984375 m 0xd1
 653.469726562 798.58984375 771.8203125 772.259765625 774.66015625 767.73046875 c 0
 777.5 763.200195312 780.969726562 757.48046875 782.360351562 755 c 0
 783.759765625 752.530273438 789.870117188 740.709960938 795.950195312 728.75 c 0
 802.030273438 716.790039062 808.459960938 701.259765625 810.25 694.25 c 0
 812.030273438 687.240234375 815.389648438 670.700195312 817.709960938 657.5 c 0
 820.01953125 644.299804688 823.419921875 629.450195312 825.259765625 624.5 c 0
 827.099609375 619.549804688 829.16015625 601.330078125 829.849609375 584 c 0
 830.530273438 566.6796875 832.450195312 540.349609375 834.110351562 525.5 c 0
 835.76953125 510.650390625 836.58984375 489.049804688 835.9296875 477.5 c 0
 835.280273438 465.950195312 818.16015625 262.1796875 820.700195312 230 c 0
 823.240234375 197.830078125 826.48046875 168.799804688 827.889648438 165.5 c 0
 829.309570312 162.200195312 832.610351562 152.41015625 835.23046875 143.75 c 0
 837.849609375 135.08984375 840.009765625 125.639648438 840.030273438 122.75 c 0
 840.049804688 119.860351562 843.099609375 114.799804688 846.809570312 111.5 c 0
 850.509765625 108.200195312 858.030273438 98.080078125 863.509765625 89 c 0
 871.6796875 75.4599609375 873.75 68.4599609375 875.08984375 50 c 0
 876.6796875 27.9501953125 876.51953125 27.2998046875 867.349609375 17.75 c 0
 862.209960938 12.3896484375 857.3203125 8 856.5 8 c 0
 855.669921875 8 849.940429688 4.73046875 843.75 0.7197265625 c 0
 836.110351562 -4.2099609375 822.870117188 -8.1201171875 802.5 -11.4404296875 c 0
 786 -14.1298828125 765.75 -17.0302734375 757.5 -17.8701171875 c 0
 748.469726562 -18.7998046875 738.919921875 -17.8701171875 733.5 -15.5400390625 c 0
 728.549804688 -13.400390625 721.120117188 -7.7099609375 717 -2.8896484375 c 0
 712.870117188 1.9404296875 708.25 8.0498046875 706.719726562 10.6904296875 c 0
 705.200195312 13.33984375 701.48046875 26.6396484375 698.469726562 40.25 c 0
 695.459960938 53.8603515625 691.549804688 74.7900390625 689.76953125 86.75 c 0
 687.990234375 98.7099609375 685.919921875 113.23046875 685.16015625 119 c 0
 684.400390625 124.780273438 682.419921875 165.280273438 680.75 209 c 0
 679.08984375 252.73046875 677.709960938 327.650390625 677.700195312 375.5 c 0
 677.6796875 423.349609375 676.509765625 475.330078125 675.08984375 491 c 0
 673.309570312 510.66015625 670.190429688 524.620117188 665.01953125 536 c 0
 660.08984375 546.83984375 649.969726562 559.950195312 635.509765625 574.219726562 c 0
 622.33984375 587.219726562 609.280273438 597.25 603 599.200195312 c 0
 597.219726562 600.990234375 584.400390625 604.4296875 574.5 606.849609375 c 0
 564.599609375 609.26953125 551.099609375 612.290039062 544.5 613.5703125 c 0
 537.900390625 614.849609375 529.459960938 617.490234375 525.75 619.450195312 c 0
 522.040039062 621.400390625 515.620117188 623 511.5 623 c 0
 504.740234375 623 503.959960938 621.740234375 503.580078125 610.25 c 0
 503.349609375 603.240234375 503.450195312 592.780273438 503.809570312 587 c 0xd3
 504.1796875 581.23046875 504.879882812 563 505.389648438 546.5 c 0
 505.889648438 530 507.809570312 491.530273438 509.650390625 461 c 0
 511.669921875 427.4296875 514.889648438 399.5703125 517.790039062 390.5 c 0
 520.419921875 382.25 549.129882812 324.4296875 552.379882812 317 c 0
 556.58984375 307.360351562 557.959960938 298.780273438 557.169921875 287 c 0
 556.5703125 277.9296875 553.780273438 263.080078125 551 254 c 0
 546.990234375 240.950195312 542.009765625 233.669921875 527.209960938 219.200195312 c 0
 516.919921875 209.139648438 502.419921875 196.990234375 495 192.200195312 c 0
 487.5703125 187.419921875 476.030273438 179.450195312 469.349609375 174.5 c 0
 462.66015625 169.549804688 453.889648438 163.169921875 449.849609375 160.3203125 c 0
 445.809570312 157.48046875 435.41015625 150.389648438 426.75 144.5703125 c 0
 415.259765625 136.860351562 407.75 134 399 134 c 0
 392.400390625 134 383.290039062 135.830078125 378.75 138.080078125 c 0
 374.209960938 140.3203125 369.389648438 144.709960938 368.040039062 147.830078125 c 0
 366.690429688 150.950195312 364.919921875 180.5 364.099609375 213.5 c 0xc5
 363.280273438 246.5 361.280273438 279.580078125 359.639648438 287 c 0
 358 294.4296875 356.25 335.599609375 355.75 378.5 c 0
 355.240234375 421.400390625 355.969726562 470.6796875 357.360351562 488 c 0
 358.759765625 505.330078125 361.219726562 530.98046875 362.830078125 545 c 0
 364.450195312 559.030273438 366.16015625 584.389648438 366.629882812 601.370117188 c 0
 367.330078125 626.25 366.629882812 632.759765625 363 634.969726562 c 0
 360.51953125 636.48046875 346.349609375 640 331.5 642.799804688 c 0
 316.650390625 645.58984375 295.530273438 648.01953125 284.5703125 648.190429688 c 0
 270.280273438 648.41015625 263.059570312 647.139648438 259.0703125 643.709960938 c 0
 256.009765625 641.0703125 239.790039062 619.780273438 235.66015625 614 c 0
 231.530273438 608.23046875 226.629882812 600.129882812 224.780273438 596 c 0
 222.919921875 591.879882812 218.280273438 584.450195312 214.459960938 579.5 c 0
 210.639648438 574.549804688 204.549804688 562.400390625 200.9296875 552.5 c 0
 195.559570312 537.849609375 194.129882812 526.41015625 193.209960938 491 c 0
 192.599609375 467.080078125 191.900390625 440.75 191.66015625 432.5 c 0
 191.419921875 424.25 191.120117188 407.379882812 190.990234375 395 c 0
 190.860351562 382.629882812 191.120117188 359 191.549804688 342.5 c 0xb3
 191.98046875 326 192.23046875 281.450195312 192.08984375 243.5 c 0
 191.950195312 205.549804688 193.1796875 167.75 194.799804688 159.5 c 0
 196.4296875 151.25 198.629882812 127.629882812 199.690429688 107 c 0
 200.75 86.3798828125 201.610351562 64.7802734375 201.610351562 59 c 0
 201.599609375 53.23046875 199.580078125 43.099609375 197.120117188 36.5 c 0
 194.650390625 29.900390625 190.950195312 19.7802734375 188.879882812 14 c 0
 186.809570312 8.23046875 181.799804688 -3.25 177.73046875 -11.5 c 0
 173.669921875 -19.75 167.200195312 -31.900390625 163.360351562 -38.5 c 0
 159.51953125 -45.099609375 104.959960938 -106.440429688 101.25 -110.639648438 c 0
 97.5400390625 -114.849609375 85.7197265625 -122.580078125 75 -127.830078125 c 0
 64.26953125 -133.080078125 50.76953125 -140.349609375 45 -143.98046875 c 0
 39.2197265625 -147.620117188 29.76953125 -151.379882812 24 -152.33984375 c 0
 15.3701171875 -153.780273438 12.6396484375 -152.879882812 8.66015625 -147.290039062 c 0
 6 -143.559570312 2.9599609375 -136.110351562 1.91015625 -130.75 c 0
 0.33984375 -122.75 0.9404296875 -120.990234375 5.25 -120.950195312 c 0
 8.1396484375 -120.919921875 13.240234375 -117.879882812 16.599609375 -114.200195312 c 0
 19.9501953125 -110.509765625 24.83984375 -104.120117188 27.4697265625 -100 c 0
 30.099609375 -95.8701171875 37.1298828125 -76.9697265625 43.08984375 -58 c 0
 49.0595703125 -39.01953125 53.9501953125 -19.4501953125 53.9697265625 -14.5 c 0
 53.98046875 -9.5498046875 55.3896484375 -0.76953125 57.08984375 5 c 0
 58.7900390625 10.7802734375 61.48046875 25.6298828125 63.0595703125 38 c 0xa9
 64.9404296875 52.669921875 64.83984375 90.26953125 62.76953125 146 c 0
 61.0302734375 193.030273438 58.58984375 262.549804688 57.349609375 300.5 c 0
 55.9501953125 343.549804688 57.7197265625 410.8203125 58.650390625 422 c 0
 59.5498046875 432.73046875 62.5 447.580078125 65.2001953125 455 c 0
 67.91015625 462.4296875 74.33984375 473.900390625 79.490234375 480.5 c 0
 84.650390625 487.099609375 89.9697265625 495.879882812 91.330078125 500 c 0
 92.6796875 504.129882812 96.099609375 510.879882812 98.9296875 515 c 0
 101.759765625 519.129882812 109.25 531.950195312 115.5703125 543.5 c 0
 121.889648438 555.049804688 134.0703125 578 142.639648438 594.5 c 0
 151.209960938 611 162.389648438 632.599609375 167.469726562 642.5 c 0
 172.559570312 652.400390625 180.259765625 668.599609375 184.580078125 678.5 c 0
 188.900390625 688.400390625 195.509765625 701.23046875 199.259765625 707 c 0
 203.01953125 712.780273438 210.969726562 724.9296875 216.940429688 734 c 0
 222.91015625 743.080078125 232 756.580078125 237.139648438 764 c 0
 242.280273438 771.4296875 250.759765625 779.360351562 255.990234375 781.639648438 c 0
 262.169921875 784.33984375 276.51953125 785.740234375 297 785.650390625 c 0xb1
 314.3203125 785.580078125 343.349609375 785.450195312 361.5 785.370117188 c 0
 379.650390625 785.280273438 414.0703125 785.5703125 438 786 c 0
 461.919921875 786.440429688 499.719726562 788.629882812 522 790.870117188 c 0
 544.26953125 793.110351562 567.219726562 794.629882812 573 794.240234375 c 0
 578.76953125 793.860351562 597.669921875 793.719726562 615 793.950195312 c 0
 632.3203125 794.1796875 648.51953125 795.58984375 651 797.08984375 c 0xd1
EndSplineSet
Validated: 524321
EndChar

StartChar: H
Encoding: 72 72 9
Width: 856
Flags: W
HStem: 30.4902 127.51<183.079 357.458> 342.63 109.98<190.086 296.599> 356.4 99.9795<429.005 489.933>
VStem: 27.6201 148.27<446.322 617.051 650.94 698.149> 131.97 48.1006<756.516 783.403> 288.04 140.54<456.596 709.918> 296.45 132.13<456.596 646.474> 510.57 166.76<476.253 720.75>
LayerCount: 2
Fore
SplineSet
637.5 796.330078125 m 0xa5
 642.450195312 798.08984375 649.870117188 799.6796875 654 799.860351562 c 0
 658.120117188 800.049804688 663.700195312 797.790039062 666.389648438 794.849609375 c 0
 670.650390625 790.1796875 670.9296875 785.129882812 668.599609375 755 c 0
 667.129882812 736.030273438 666.870117188 717.129882812 668.009765625 713 c 0
 669.16015625 708.879882812 670.259765625 700.099609375 670.459960938 693.5 c 0
 670.66015625 686.900390625 671.879882812 648.4296875 673.169921875 608 c 0
 674.469726562 567.580078125 676.530273438 523.030273438 677.759765625 509 c 0
 678.98046875 494.98046875 678.790039062 478.780273438 677.330078125 473 c 0
 675.879882812 467.23046875 672.389648438 457.780273438 669.58984375 452 c 0
 666.790039062 446.23046875 663.639648438 440.830078125 662.58984375 440 c 0
 661.540039062 439.1796875 658.16015625 434.400390625 655.08984375 429.400390625 c 0
 652.009765625 424.389648438 646.799804688 415.830078125 643.5 410.360351562 c 0
 640.200195312 404.900390625 633.639648438 395.490234375 628.9296875 389.459960938 c 0
 624.219726562 383.4296875 616.790039062 376.360351562 612.4296875 373.75 c 0
 608.0703125 371.139648438 593.01953125 365.370117188 579 360.919921875 c 0
 554.48046875 353.139648438 551.759765625 352.900390625 508.5 354.73046875 c 0
 483.75 355.76953125 459.450195312 356.709960938 454.5 356.8203125 c 0
 449.549804688 356.919921875 441.450195312 356.73046875 436.5 356.400390625 c 0xa5
 431.549804688 356.059570312 420.0703125 356.690429688 411 357.790039062 c 0
 401.8203125 358.91015625 385.1796875 358.23046875 373.5 356.259765625 c 0
 361.950195312 354.309570312 341.700195312 350.540039062 328.5 347.879882812 c 0
 312.389648438 344.629882812 286.75 342.91015625 250.5 342.629882812 c 0
 220.799804688 342.400390625 194.139648438 341.26953125 191.25 340.110351562 c 0
 187.440429688 338.580078125 185.51953125 333.280273438 184.25 320.75 c 0
 183.290039062 311.259765625 181.940429688 273.459960938 181.25 236.75 c 0
 180.48046875 195.620117188 181.150390625 167.700195312 183 164 c 0
 184.650390625 160.700195312 188.700195312 158 192 158 c 0
 195.299804688 158 210.150390625 161.379882812 225 165.5 c 0
 251.099609375 172.75 254.870117188 172.990234375 338.25 172.629882812 c 0
 385.690429688 172.4296875 529.26953125 161.139648438 540 160.440429688 c 0
 550.719726562 159.75 569.620117188 157.559570312 582 155.580078125 c 0
 594.370117188 153.610351562 607.200195312 150.809570312 610.5 149.370117188 c 0
 613.799804688 147.9296875 633.709960938 138.48046875 654.75 128.370117188 c 0
 675.790039062 118.26953125 693 108.650390625 693 107 c 0
 693 105.349609375 694.690429688 103.990234375 696.75 103.98046875 c 0
 698.809570312 103.959960938 710.299804688 94.1796875 722.280273438 82.23046875 c 0
 734.25 70.2802734375 777.490234375 30.1796875 778.799804688 25.25 c 0
 779.799804688 21.5400390625 779.169921875 13.7802734375 777.41015625 8 c 0
 775.639648438 2.2001953125 682.5703125 -86.7197265625 673.5 -92.5 c 0
 664.419921875 -98.26953125 653.959960938 -103.009765625 650.25 -103.009765625 c 0
 646.540039062 -103.01953125 638.440429688 -99.650390625 632.25 -95.509765625 c 0
 625.509765625 -91.009765625 617.990234375 -81.990234375 613.5 -73 c 0
 609.370117188 -64.75 554.419921875 22.8095703125 526.5 35.8095703125 c 0
 498.620117188 48.7802734375 96.740234375 31.8896484375 68.25 30.490234375 c 0
 51.33984375 29.66015625 32.76953125 28.26953125 27 27.3896484375 c 0
 19.6201171875 26.2802734375 14.4599609375 27.400390625 2.759765625 36.5 c 1
 7.650390625 84.5 l 2
 11.9697265625 127 27.9296875 467.299804688 27.6201171875 480.5 c 0xd5
 27.2998046875 493.700195312 26.580078125 524.75 26 549.5 c 0
 25.419921875 574.25 23.1904296875 603.950195312 21.0302734375 615.5 c 0
 17.8896484375 632.33984375 17.83984375 639.469726562 20.7998046875 651.5 c 0
 22.83984375 659.75 28.76953125 672.969726562 34 680.879882812 c 0
 39.2197265625 688.780273438 50.25 699.900390625 58.5 705.58984375 c 0
 66.75 711.26953125 78.900390625 722.330078125 85.5 730.16015625 c 0
 92.099609375 737.990234375 105.25 751.849609375 114.719726562 760.950195312 c 0
 124.200195312 770.049804688 131.959960938 779.190429688 131.969726562 781.25 c 0
 131.990234375 783.8203125 137.440429688 784.990234375 149.25 784.959960938 c 0
 158.740234375 784.940429688 169.540039062 784.259765625 173.25 783.459960938 c 0
 178.76953125 782.26953125 180.009765625 779.950195312 180.0703125 770.75 c 0xc9
 180.110351562 764.559570312 177.879882812 754.099609375 175.120117188 747.5 c 0
 171.650390625 739.219726562 169.639648438 723.400390625 168.629882812 696.5 c 0
 167.830078125 675.049804688 168.719726562 644.6796875 170.620117188 629 c 0
 172.51953125 613.330078125 174.889648438 568.780273438 175.889648438 530 c 0
 176.889648438 491.23046875 177.549804688 456.459960938 177.360351562 452.75 c 0
 177.040039062 446.75 178.41015625 446.009765625 189.75 446.049804688 c 0
 196.759765625 446.080078125 214.650390625 447.370117188 229.5 448.91015625 c 0
 244.349609375 450.450195312 265.059570312 452.120117188 275.51953125 452.610351562 c 0
 285.98046875 453.099609375 295.490234375 454.849609375 296.66015625 456.5 c 0
 297.830078125 458.150390625 297.73046875 485.830078125 296.450195312 518 c 0xd3
 295.169921875 550.1796875 292.650390625 592.030273438 290.860351562 611 c 0
 289.059570312 629.98046875 287.799804688 652.9296875 288.040039062 662 c 0
 288.299804688 671.530273438 290.849609375 682.940429688 294.0703125 689 c 0
 297.139648438 694.780273438 304.120117188 704.3203125 309.580078125 710.219726562 c 0
 315.030273438 716.110351562 323.889648438 723.200195312 329.25 725.969726562 c 0
 334.610351562 728.740234375 345.41015625 737.049804688 353.25 744.450195312 c 0
 361.08984375 751.849609375 372.559570312 760.620117188 378.75 763.950195312 c 0
 384.940429688 767.280273438 392.610351562 772.360351562 395.809570312 775.25 c 0
 399 778.139648438 404.740234375 782.9296875 408.559570312 785.900390625 c 0
 412.379882812 788.860351562 417.51953125 792.549804688 420 794.099609375 c 0
 422.469726562 795.639648438 427.200195312 796.98046875 430.5 797.0703125 c 0
 434.209960938 797.1796875 438.01953125 794.040039062 440.490234375 788.870117188 c 0
 443.129882812 783.330078125 443.969726562 773.900390625 442.98046875 761 c 0
 442.150390625 750.280273438 439.299804688 724.629882812 436.639648438 704 c 0
 433.990234375 683.379882812 431.209960938 657.73046875 430.469726562 647 c 0
 429.73046875 636.280273438 428.879882812 593.75 428.580078125 552.5 c 0
 428.280273438 511.25 428.360351562 457.26953125 431.25 456.379882812 c 0
 434.139648438 455.48046875 444.599609375 455.75 454.5 456.98046875 c 0
 467.4296875 458.580078125 474.91015625 461.360351562 481.059570312 466.849609375 c 0
 485.780273438 471.059570312 493.5 482.599609375 498.23046875 492.5 c 0
 503.379882812 503.26953125 508.330078125 520.740234375 510.5703125 536 c 0
 512.629882812 550.030273438 514.469726562 582.4296875 514.66015625 608 c 0
 514.860351562 633.580078125 515.919921875 665.98046875 517.030273438 680 c 0
 518.98046875 704.5 519.549804688 706.0703125 531.780273438 720.150390625 c 0
 538.76953125 728.209960938 548.209960938 736.650390625 552.75 738.900390625 c 0
 557.290039062 741.16015625 571.26953125 752.450195312 583.830078125 764 c 0
 596.379882812 775.549804688 608.870117188 784.990234375 611.580078125 784.98046875 c 0
 614.280273438 784.959960938 619.200195312 786.790039062 622.5 789.040039062 c 0
 625.799804688 791.290039062 632.549804688 794.559570312 637.5 796.330078125 c 0xa5
EndSplineSet
Validated: 524321
EndChar

StartChar: I
Encoding: 73 73 10
Width: 442
Flags: W
HStem: -15.9404 21G<118.5 133.61>
VStem: 13.1504 153.21<435.049 694.778> 13.1504 144.35<155.818 379.883>
LayerCount: 2
Fore
SplineSet
139.120117188 795.530273438 m 0xa0
 144.280273438 797.200195312 153.219726562 797.98046875 159 797.280273438 c 0
 166.330078125 796.389648438 171.41015625 775.620117188 173.75 770.75 c 0
 175.540039062 767.040039062 177.830078125 754.209960938 178.849609375 742.25 c 0
 179.860351562 730.290039062 179.150390625 702.280273438 177.26953125 680 c 0
 175.379882812 657.73046875 173.240234375 617.23046875 172.5 590 c 0
 171.759765625 562.780273438 170.419921875 520.25 169.51953125 495.5 c 0
 168.620117188 470.75 167.190429688 447.129882812 166.360351562 443 c 0xc0
 165.110351562 436.830078125 166.049804688 435.419921875 171.669921875 435.030273438 c 0
 175.4296875 434.76953125 182.099609375 436.120117188 186.5 438.030273438 c 0
 190.900390625 439.940429688 202.370117188 449 212 458.169921875 c 0
 221.620117188 467.330078125 232.759765625 481.509765625 236.740234375 489.669921875 c 0
 240.719726562 497.8203125 247.559570312 509.900390625 251.950195312 516.5 c 0
 256.33984375 523.099609375 265.120117188 538.629882812 271.469726562 551 c 0
 277.809570312 563.379882812 286.490234375 578.900390625 290.75 585.5 c 0
 295.009765625 592.099609375 301.870117188 602.01953125 306 607.549804688 c 0
 310.120117188 613.080078125 318.559570312 620.169921875 324.75 623.299804688 c 0
 334.41015625 628.200195312 336.740234375 628.419921875 341.25 624.879882812 c 0
 344.139648438 622.620117188 351.559570312 618.5703125 357.75 615.879882812 c 0
 366.049804688 612.280273438 368.969726562 609.23046875 368.889648438 604.25 c 0
 368.83984375 600.540039062 367.049804688 589.400390625 364.919921875 579.5 c 0
 362.790039062 569.599609375 358.8203125 557.450195312 356.099609375 552.5 c 0
 353.379882812 547.549804688 350.099609375 541.080078125 348.8203125 538.120117188 c 0
 347.549804688 535.150390625 344.469726562 532.129882812 342 531.379882812 c 0
 339.51953125 530.639648438 326.01953125 517.8203125 312 502.879882812 c 0
 297.969726562 487.940429688 276.040039062 464.98046875 263.25 451.860351562 c 0
 250.459960938 438.740234375 240 426.650390625 240 425 c 0
 240 423.349609375 232.91015625 418.76953125 224.25 414.8203125 c 0
 215.469726562 410.8203125 201.190429688 400.240234375 192 390.9296875 c 0
 182.919921875 381.740234375 171.450195312 373.059570312 157.5 369.049804688 c 1
 157.5 313.76953125 l 2
 157.5 283.370117188 173.360351562 158.5703125 176.25 155.58984375 c 0
 179.139648438 152.610351562 213.110351562 85.1396484375 213.0703125 82.25 c 0
 213.030273438 79.3603515625 208.610351562 70.6396484375 203.25 62.8798828125 c 0
 197.889648438 55.1103515625 185.400390625 40.1103515625 175.5 29.5400390625 c 0
 165.599609375 18.9697265625 148.719726562 4.41015625 118.5 -15.9404296875 c 1
 118.5 -15.9404296875 50.4501953125 49.5498046875 45.33984375 54.5 c 0
 39.2001953125 60.4404296875 34.08984375 70.1201171875 30.2802734375 83 c 0
 27.1201171875 93.73046875 22.919921875 113.98046875 20.9501953125 128 c 0
 18.98046875 142.030273438 16.830078125 194.6796875 16.16015625 245 c 0
 15.490234375 295.330078125 14.1396484375 359.450195312 13.150390625 387.5 c 0
 12.16015625 415.549804688 10.91015625 473.599609375 10.3798828125 516.5 c 0
 9.849609375 559.400390625 8.75 600.580078125 7.9404296875 608 c 0
 7.1396484375 615.4296875 4.33984375 629.940429688 1.740234375 640.25 c 0
 -2.080078125 655.33984375 49.669921875 715.780273438 78.080078125 743 c 0
 108.860351562 772.5 133.51953125 793.719726562 139.120117188 795.530273438 c 0xa0
EndSplineSet
Validated: 524321
EndChar

StartChar: J
Encoding: 74 74 11
Width: 928
Flags: W
HStem: 305 155.65<82.1278 133.5> 639.34 157.09<275.221 720.421> 651.52 146.41<275.221 732.697> 656.56 140.811<275.221 617.443>
VStem: 136.43 136.221<469.482 635.53> 137.78 142.96<31.3341 312.379> 140.21 160.26<33.0308 310.531> 150 121.19<469.482 651.996> 343.58 129.22<209.197 311.604> 685.69 121.27<252.087 417.5>
LayerCount: 2
Fore
SplineSet
425.129882812 797.9296875 m 2xa1c0
 507.969726562 798.25 630.5 795.919921875 657.469726562 796.4296875 c 0
 684.440429688 796.940429688 735.51953125 797.530273438 771 797.75 c 0
 806.469726562 797.959960938 839.889648438 797.209960938 845.25 796.0703125 c 0
 850.610351562 794.9296875 855 792.650390625 855 791 c 0
 855 789.349609375 851.959960938 783.809570312 848.25 778.690429688 c 0
 844.540039062 773.580078125 835.08984375 766.150390625 827.25 762.190429688 c 0
 819.41015625 758.240234375 711.25 650.450195312 706.370117188 645.5 c 0
 698.849609375 637.870117188 695.440429688 636.58984375 684 637.08984375 c 0
 676.5703125 637.41015625 650.25 638.419921875 625.5 639.33984375 c 0xc1c0
 600.75 640.25 577.120117188 641.790039062 573 642.76953125 c 0
 568.870117188 643.75 543.900390625 645.98046875 517.5 647.719726562 c 0
 491.099609375 649.469726562 450.599609375 651.1796875 427.5 651.51953125 c 0xa1c0
 404.400390625 651.860351562 376.719726562 652.969726562 366 654 c 0
 355.26953125 655.01953125 330.299804688 656.169921875 310.5 656.559570312 c 0
 278.009765625 657.190429688 274.5703125 656.759765625 275.25 652.129882812 c 0
 275.66015625 649.309570312 273.83984375 644.639648438 271.190429688 641.75 c 0x91c0
 267.849609375 638.099609375 272.459960938 464.790039062 272.650390625 460.25 c 0x98c0
 272.83984375 455.709960938 286.150390625 450.620117188 318.8203125 454.599609375 c 0
 337.33984375 456.860351562 370.049804688 460.549804688 391.5 462.790039062 c 0
 412.950195312 465.040039062 431.849609375 466.860351562 433.5 466.830078125 c 0
 435.150390625 466.799804688 443.919921875 466.009765625 453 465.080078125 c 0
 462.0703125 464.150390625 471.280273438 461.830078125 473.459960938 459.940429688 c 0
 476.469726562 457.330078125 477.049804688 448.900390625 475.879882812 425 c 0
 475.030273438 407.6796875 473.200195312 389.450195312 471.8203125 384.5 c 0
 470.4296875 379.549804688 469.6796875 366.389648438 470.150390625 355.25 c 0
 470.66015625 343.009765625 473.719726562 235.099609375 472.799804688 228.5 c 0
 471.879882812 221.900390625 470.25 213.129882812 469.200195312 209 c 0
 467.540039062 202.549804688 579.669921875 120.650390625 580.5 119 c 0
 581.48046875 117.040039062 584.33984375 117.16015625 588.75 119.349609375 c 0
 592.459960938 121.190429688 600.98046875 129.629882812 607.6796875 138.099609375 c 0
 614.370117188 146.5703125 623.76953125 160.25 628.549804688 168.5 c 0
 633.33984375 176.75 643.299804688 192.280273438 650.690429688 203 c 0
 658.08984375 213.73046875 667.490234375 229.9296875 671.58984375 239 c 0
 675.690429688 248.080078125 680.879882812 264.950195312 683.110351562 276.5 c 0
 685.879882812 290.83984375 686.940429688 316.540039062 685.690429688 417.5 c 1
 696.099609375 433.169921875 l 2
 701.8203125 441.790039062 707.509765625 448.879882812 708.75 448.919921875 c 0
 709.990234375 448.969726562 717.0703125 453.049804688 724.5 458 c 0
 731.919921875 462.950195312 745.08984375 468.990234375 753.75 471.419921875 c 0
 764.41015625 474.419921875 774.3203125 475.150390625 784.41015625 473.669921875 c 0
 796.110351562 471.969726562 800.129882812 469.889648438 803.110351562 464 c 0
 805.200195312 459.879882812 806.9296875 446.040039062 806.959960938 433.25 c 0
 806.98046875 419.099609375 800.969726562 256.299804688 799.099609375 251.759765625 c 0
 797.23046875 247.219726562 762.450195312 203.969726562 757.5 196.76953125 c 0
 752.549804688 189.580078125 731.330078125 166.08984375 710.349609375 144.58984375 c 0
 689.370117188 123.08984375 581.98046875 10.51953125 578.259765625 8.1103515625 c 0
 574.540039062 5.6904296875 567.450195312 1.5595703125 562.5 -1.0703125 c 0
 557.549804688 -3.7001953125 548.099609375 -7.66015625 541.5 -9.8798828125 c 0
 530.91015625 -13.4296875 528.08984375 -13.2802734375 517.5 -8.580078125 c 0
 510.900390625 -5.650390625 502.330078125 -0.3896484375 498.459960938 3.1201171875 c 0
 494.58984375 6.6298828125 486.889648438 12.2001953125 481.360351562 15.5 c 0
 475.8203125 18.7998046875 460.08984375 29.23046875 446.389648438 38.6904296875 c 0
 432.700195312 48.1396484375 412.030273438 65.009765625 400.450195312 76.1904296875 c 0
 388.870117188 87.3603515625 374.290039062 100.549804688 368.059570312 105.5 c 0
 361.8203125 110.450195312 356.759765625 115.849609375 356.799804688 117.5 c 0
 356.83984375 119.150390625 354.240234375 123.200195312 351.009765625 126.5 c 0
 346.200195312 131.4296875 344.870117188 138.139648438 343.580078125 164 c 0
 342.719726562 181.330078125 343.4296875 211.700195312 345.139648438 231.5 c 0
 346.860351562 251.299804688 349.209960938 277.799804688 352.5 313.259765625 c 1
 340.5 315.040039062 l 2
 333.900390625 316.009765625 318.370117188 317.690429688 283.5 320.719726562 c 1
 280.959960938 312.110351562 l 2
 279.5703125 307.379882812 278.759765625 287.299804688 279.16015625 267.5 c 0
 279.559570312 247.700195312 280.26953125 226.099609375 280.740234375 219.5 c 0x94c0
 281.219726562 212.900390625 283.009765625 202.099609375 284.73046875 195.5 c 0
 286.450195312 188.900390625 300.309570312 111.120117188 300.469726562 93.5 c 0
 300.650390625 73.5302734375 299.309570312 63.3798828125 295.3203125 54.5 c 0
 292.349609375 47.900390625 285.139648438 38.4501953125 279.299804688 33.5 c 0
 273.450195312 28.5498046875 264.580078125 21.7900390625 259.58984375 18.4697265625 c 0
 254.58984375 15.16015625 246.790039062 10.76953125 242.25 8.7197265625 c 0
 237.709960938 6.669921875 228.259765625 -0.349609375 221.25 -6.8896484375 c 0
 214.240234375 -13.4296875 207.150390625 -18.7998046875 205.5 -18.8203125 c 0
 203.849609375 -18.849609375 198.450195312 -23.3701171875 193.5 -28.8896484375 c 0
 188.549804688 -34.400390625 163.740234375 -48.8701171875 156.700195312 -53.7001953125 c 0
 149.669921875 -58.5400390625 143.240234375 -61.8203125 142.419921875 -61 c 0
 141.599609375 -60.169921875 140.610351562 -54.990234375 140.209960938 -49.48046875 c 0x92c0
 139.75 -42.9501953125 140.610351562 29.98046875 140.610351562 29.98046875 c 2
 141.219726562 58.3203125 139.940429688 121.330078125 137.780273438 170 c 0x94c0
 135.610351562 218.6796875 133.759765625 270.650390625 133.5 312.5 c 1
 93 311.389648438 l 2
 70.7197265625 310.780273438 49.4599609375 309.08984375 45.75 307.639648438 c 0
 42.0400390625 306.190429688 32.919921875 305 25.5 305 c 0
 12.75 305 11.669921875 305.669921875 6 317 c 0
 1.8095703125 325.379882812 0.6796875 331.389648438 2.25 336.940429688 c 0
 3.490234375 341.309570312 8.2099609375 347.379882812 12.75 350.440429688 c 0
 17.2900390625 353.5 23.3603515625 360.610351562 26.25 366.240234375 c 0
 29.1396484375 371.870117188 42.6396484375 389.419921875 56.25 405.240234375 c 0
 69.8603515625 421.059570312 83.01953125 438.73046875 85.5 444.5 c 0
 88.8896484375 452.400390625 92.419921875 455.540039062 99.75 457.16015625 c 0
 105.110351562 458.360351562 110.849609375 459.549804688 112.5 459.8203125 c 0
 114.150390625 460.08984375 119.209960938 460.459960938 123.75 460.650390625 c 0
 130.08984375 460.919921875 132.5 462.91015625 134.169921875 469.25 c 0
 135.370117188 473.790039062 136.379882812 505.1796875 136.4296875 539 c 0x98c0
 136.5 598.73046875 136.690429688 600.690429688 143.25 607.25 c 0
 146.959960938 610.959960938 150 616.030273438 150 618.5 c 0
 150 620.98046875 155.940429688 632.110351562 163.200195312 643.25 c 0
 170.450195312 654.389648438 181.9296875 674.639648438 188.700195312 688.25 c 0
 195.459960938 701.860351562 204.709960938 723.389648438 209.25 728.759765625 c 0
 213.790039062 734.129882812 219.16015625 741.219726562 221.200195312 744.509765625 c 0
 223.23046875 747.799804688 228.3203125 757.25 232.5 765.5 c 0
 238.860351562 778.030273438 242.950195312 781.889648438 274.5 797.370117188 c 1x91c0
 425.129882812 797.9296875 l 2xa1c0
EndSplineSet
Validated: 524321
EndChar

StartChar: K
Encoding: 75 75 12
Width: 862
Flags: W
HStem: -47.8076 100.549<271.517 364.08>
VStem: 366.066 179.525<221.491 395.409 449.707 644.49> 366.296 221.042<52.5099 232.95> 607.209 148.765<287.489 527.112>
LayerCount: 2
Fore
SplineSet
628.323242188 788.439453125 m 1xd0
 625.735351562 778.100585938 l 2
 624.309570312 772.412109375 619.45703125 762.755859375 614.94921875 756.645507812 c 0
 610.44140625 750.534179688 605.737304688 739.374023438 604.495117188 731.850585938 c 0
 603.2421875 724.327148438 581.288085938 678.58984375 577.734375 672 c 0
 573.858398438 664.807617188 550.560546875 599.849609375 550.112304688 571.110351562 c 0
 549.8359375 554.181640625 544.3046875 451.58203125 545.591796875 430.890625 c 0xd0
 546.868164062 410.19921875 572.927734375 165.840820312 575.458007812 143.610351562 c 0
 577.37890625 126.681640625 579.529296875 102.833007812 580.2421875 90.6005859375 c 0
 580.954101562 78.3798828125 583.163085938 66.83203125 585.140625 64.9501953125 c 0
 587.302734375 62.91015625 588.1875 51.16796875 587.337890625 35.880859375 c 0xb0
 586.233398438 15.8623046875 584.485351562 9.1015625 579.3671875 5.1005859375 c 0
 575.767578125 2.28515625 557.356445312 -3.5634765625 538.473632812 -7.8837890625 c 0
 519.580078125 -12.2041015625 499.465820312 -17.2099609375 493.7734375 -19.0107421875 c 0
 488.080078125 -20.8125 463.241210938 -23.7646484375 438.573242188 -25.587890625 c 0
 413.905273438 -27.412109375 385.178710938 -30.513671875 374.748046875 -32.4853515625 c 0
 364.305664062 -34.4580078125 331.704101562 -38.2763671875 302.297851562 -40.9560546875 c 0
 272.880859375 -43.6455078125 230.963867188 -46.7236328125 209.1484375 -47.8076171875 c 0
 187.3203125 -48.890625 166.758789062 -49.7333984375 163.435546875 -49.7001953125 c 0
 160.112304688 -49.654296875 154.338867188 -46.154296875 150.612304688 -41.9248046875 c 0
 146.875 -37.6953125 129.234375 198.034179688 128.2109375 206.025390625 c 0
 126.969726562 215.737304688 120.989257812 228.220703125 110.202148438 243.645507812 c 0
 101.313476562 256.344726562 83.85546875 276.33984375 71.3896484375 288.094726562 c 0
 58.923828125 299.84765625 44.06640625 310.711914062 38.373046875 312.239257812 c 0
 28.9208984375 314.76953125 27.6435546875 316.924804688 23.642578125 337.044921875 c 0
 21.2265625 349.15234375 -4.751953125 414.81640625 -4.751953125 422.340820312 c 0
 -4.751953125 429.864257812 21.4677734375 488.904296875 23.7919921875 492.91796875 c 0
 26.1142578125 496.942382812 31.8984375 504.294921875 36.6484375 509.25390625 c 0
 41.38671875 514.212890625 46.4345703125 518.237304688 47.8603515625 518.19140625 c 0
 49.287109375 518.134765625 55.10546875 521.178710938 60.7978515625 524.940429688 c 0
 66.9501953125 529.010742188 75.65625 531.438476562 82.2578125 530.92578125 c 0
 92.0546875 530.172851562 149.716796875 437.901367188 148.7734375 436.020507812 c 0
 147.818359375 434.138671875 193.979492188 379.88671875 201.811523438 371.895507812 c 0
 209.642578125 363.904296875 217.600585938 343.680664062 219.498046875 343.680664062 c 0
 221.396484375 343.680664062 229.227539062 349.448242188 236.909179688 356.505859375 c 0
 244.579101562 363.5625 250.790039062 371.2578125 250.708984375 373.60546875 c 0
 250.6171875 375.953125 247.833984375 378.461914062 244.510742188 379.168945312 c 0
 240.634765625 380.000976562 234.310546875 390.705078125 226.834960938 409.09375 c 0
 220.4296875 424.848632812 183.400390625 500.521484375 178.466796875 510.39453125 c 0
 173.520507812 520.266601562 168.311523438 528.349609375 166.885742188 528.349609375 c 0
 165.458984375 528.360351562 164.344726562 530.287109375 164.413085938 532.635742188 c 0
 164.470703125 534.983398438 161.3203125 539.98828125 157.3984375 543.75 c 0
 153.4765625 547.51171875 150.325195312 551.741210938 150.383789062 553.155273438 c 0
 150.452148438 554.569335938 145.840820312 562.651367188 140.1484375 571.110351562 c 0
 134.455078125 579.580078125 129.8203125 587.651367188 129.85546875 589.065429688 c 0
 129.87890625 590.479492188 123.576171875 597.787109375 115.837890625 605.310546875 c 0
 103.221679688 617.587890625 99.771484375 619.092773438 82.154296875 620.028320312 c 0
 71.3544921875 620.586914062 59.02734375 621.749023438 54.7607421875 622.592773438 c 0
 50.494140625 623.436523438 43.0078125 629.888671875 38.1318359375 636.9453125 c 0
 32.853515625 644.583984375 29.9892578125 652.540039062 31.0361328125 656.610351562 c 0
 32.001953125 660.372070312 37.9365234375 666.026367188 44.21484375 669.184570312 c 0
 50.4833984375 672.331054688 124.151367188 743.524414062 129.901367188 751.515625 c 0
 135.640625 759.506835938 140.240234375 768.365234375 140.11328125 771.180664062 c 0
 139.975585938 774.0078125 144.208007812 778.385742188 149.498046875 780.916015625 c 0
 154.822265625 783.469726562 163.354492188 784.62109375 168.610351562 783.481445312 c 0
 173.83203125 782.36328125 181.904296875 777.974609375 186.5625 773.745117188 c 0
 193.612304688 767.338867188 352.920898438 464.498046875 355.7734375 461.669921875 c 0
 358.61328125 458.854492188 360.166992188 455.001953125 359.223632812 453.120117188 c 0
 358.268554688 451.239257812 359.049804688 449.700195312 360.948242188 449.700195312 c 0
 362.845703125 449.700195312 365.146484375 458.546875 366.06640625 469.365234375 c 0
 366.985351562 480.184570312 366.606445312 515.193359375 365.203125 547.169921875 c 0
 363.811523438 579.147460938 363.443359375 610.633789062 364.3984375 617.1328125 c 0
 365.778320312 626.62890625 370.5390625 632.544921875 388.547851562 647.125 c 0
 400.875976562 657.124023438 488.505859375 714.225585938 498.948242188 722.377929688 c 0
 509.37890625 730.516601562 522.580078125 741.44921875 528.2734375 746.669921875 c 0
 533.965820312 751.891601562 598.90625 787.984375 628.323242188 788.439453125 c 1xd0
338.971679688 378.735351562 m 0
 337.775390625 374.505859375 334.463867188 370.276367188 331.623046875 369.330078125 c 0
 328.770507812 368.395507812 287.521484375 333.887695312 280.516601562 324.015625 c 0
 272.708007812 312.991210938 267.797851562 302.104492188 267.797851562 295.80078125 c 0
 267.797851562 290.157226562 266.24609375 285.540039062 264.348632812 285.540039062 c 0
 262.450195312 285.540039062 269.776367188 55.91015625 273.8359375 54.9189453125 c 0
 277.159179688 54.09765625 292.29296875 53.1171875 307.473632812 52.7412109375 c 0
 322.653320312 52.3759765625 338.94921875 52.2392578125 343.698242188 52.466796875 c 0
 348.436523438 52.6845703125 355.220703125 54.81640625 358.762695312 57.1982421875 c 0
 364.77734375 61.2451171875 365.283203125 68.49609375 366.295898438 165.840820312 c 0xb0
 366.893554688 223.216796875 368.4453125 286.315429688 369.7578125 306.060546875 c 0
 371.056640625 325.81640625 372.091796875 345.048828125 372.068359375 348.810546875 c 0
 372.034179688 352.572265625 370.676757812 364.51953125 369.06640625 375.349609375 c 0
 367.446289062 386.19140625 364.571289062 395.219726562 362.672851562 395.424804688 c 0
 360.775390625 395.630859375 358.061523438 395.607421875 356.635742188 395.391601562 c 0
 355.208984375 395.163085938 354.795898438 397.294921875 355.715820312 400.110351562 c 0
 356.624023438 402.938476562 356.716796875 405.240234375 355.911132812 405.240234375 c 0
 355.106445312 405.240234375 351.4609375 401.010742188 347.803710938 395.834960938 c 0
 344.146484375 390.66015625 340.1796875 382.96484375 338.971679688 378.735351562 c 0
749.935546875 610.327148438 m 0
 755.1796875 610.40625 759.376953125 607.111328125 762.873046875 600.180664062 c 0
 765.713867188 594.537109375 768.094726562 589.533203125 768.151367188 589.065429688 c 0
 768.208984375 588.59765625 765.495117188 584.94921875 762.114257812 580.971679688 c 0
 756.6171875 574.49609375 755.973632812 565.490234375 755.973632812 494.491210938 c 0
 755.973632812 438.061523438 800.731445312 107.450195312 798.637695312 100.860351562 c 0
 796.556640625 94.283203125 789.196289062 83.0986328125 782.30859375 76.0087890625 c 0
 775.408203125 68.9296875 767.829101562 63.16015625 765.4609375 63.18359375 c 0
 763.091796875 63.2177734375 756.100585938 57.8369140625 749.935546875 51.236328125 c 0
 743.771484375 44.634765625 736.779296875 39.2431640625 734.411132812 39.265625 c 0
 732.041992188 39.2890625 720.391601562 30.0087890625 708.536132812 18.6669921875 c 0
 696.6796875 7.3125 684.638671875 -1.853515625 681.797851562 -1.705078125 c 0
 678.9453125 -1.556640625 674.288085938 -3.8828125 671.448242188 -6.869140625 c 0
 668.595703125 -9.8564453125 662.77734375 -12.2392578125 658.510742188 -12.1474609375 c 0
 653.313476562 -12.044921875 649.541015625 -8.8994140625 647.079101562 -2.5947265625 c 0
 645.055664062 2.5810546875 639.604492188 10.6630859375 634.958007812 15.3603515625 c 0
 630.313476562 20.068359375 625.01171875 30.06640625 623.182617188 37.5908203125 c 0
 621.354492188 45.1142578125 619.8359375 58.2021484375 619.801757812 66.66015625 c 0
 619.766601562 75.1298828125 616.513671875 99.7548828125 612.568359375 121.380859375 c 0
 608.624023438 143.018554688 606.208007812 166.103515625 607.208984375 172.680664062 c 0
 608.208984375 179.26953125 607.588867188 186.188476562 605.817382812 188.0703125 c 0
 603.977539062 190.04296875 602.344726562 250.235351562 602 330 c 0
 601.608398438 416.263671875 602.79296875 477.5390625 605.138671875 492.450195312 c 0
 607.208984375 505.6171875 611.716796875 521.348632812 615.166992188 527.403320312 c 0
 618.99609375 534.151367188 634.130859375 546.737304688 654.198242188 559.858398438 c 0
 672.21875 571.645507812 699.392578125 587.799804688 714.573242188 595.74609375 c 0
 729.75390625 603.69140625 745.668945312 610.2578125 749.935546875 610.327148438 c 0
EndSplineSet
Validated: 524321
EndChar

StartChar: L
Encoding: 76 76 13
Width: 790
Flags: W
HStem: 605.04 62.8496<394.193 488.487>
VStem: 60.9004 142.689<20.7049 99.7791> 523.01 151.891<172.557 331.997 375.778 518.28> 523.8 129.55<198.4 331.997 375.778 644.856>
LayerCount: 2
Fore
SplineSet
642.700195312 796.219726562 m 0xd0
 644.450195312 798.5 648.66015625 799.209960938 653.530273438 798.049804688 c 0
 657.91015625 797.009765625 662.169921875 795.559570312 663 794.83984375 c 0
 663.8203125 794.110351562 664.129882812 779.110351562 663.6796875 761.509765625 c 0
 663.240234375 743.900390625 661.809570312 718.700195312 660.51953125 705.5 c 0
 658.860351562 688.530273438 656.76953125 603.129882812 656.639648438 599 c 0
 656.509765625 594.879882812 655.990234375 561.799804688 655.469726562 525.5 c 0
 654.959960938 489.200195312 653.58984375 416.200195312 653.349609375 374 c 0xd0
 653.150390625 338.530273438 674.950195312 203.639648438 674.900390625 200.75 c 0
 674.83984375 197.860351562 678.259765625 191.450195312 682.490234375 186.5 c 0
 686.73046875 181.549804688 695.209960938 172.48046875 701.349609375 166.349609375 c 0
 707.48046875 160.219726562 715.870117188 154.8203125 720 154.349609375 c 0
 726.700195312 153.58984375 727.580078125 151.98046875 728.25 139.25 c 0
 728.709960938 130.51953125 727.83984375 125.580078125 726 126.5 c 0
 724.349609375 127.330078125 723 126.650390625 723 125 c 0
 723 123.349609375 717.849609375 119.639648438 711.549804688 116.75 c 0
 705.259765625 113.860351562 698 109.48046875 695.4296875 107 c 0
 692.860351562 104.530273438 681.139648438 93.3896484375 669.379882812 82.25 c 0
 657.620117188 71.1103515625 611.76953125 39.6103515625 595.5 31.599609375 c 1
 580.91015625 41.5498046875 l 2
 572.889648438 47.01953125 561.01953125 56.900390625 554.530273438 63.5 c 0
 548.040039062 70.099609375 521 151.48046875 523.009765625 195.5 c 0xe0
 524.139648438 220.25 525.030273438 241.849609375 524.990234375 243.5 c 0
 524.950195312 245.150390625 524.41015625 261.349609375 523.799804688 279.5 c 0
 523.190429688 297.650390625 521.860351562 316.889648438 520.83984375 322.25 c 0
 519.830078125 327.610351562 517.650390625 332 516 332 c 0
 514.349609375 332 511.650390625 329.299804688 510 326 c 0
 508.349609375 322.700195312 503.959960938 319.0703125 500.25 317.9296875 c 0
 496.540039062 316.799804688 492.150390625 315.66015625 490.5 315.419921875 c 0
 488.849609375 315.169921875 475.690429688 309.349609375 461.25 302.48046875 c 0
 446.809570312 295.620117188 434.3203125 290 433.5 290 c 0
 432.669921875 290 417.490234375 281.83984375 399.75 271.870117188 c 0
 382.009765625 261.900390625 366.150390625 251.98046875 364.5 249.809570312 c 0
 362.849609375 247.650390625 354.75 242.290039062 346.5 237.91015625 c 0
 338.25 233.530273438 322.719726562 224.419921875 312 217.66015625 c 0
 301.26953125 210.91015625 285.0703125 199.0703125 276 191.360351562 c 0
 266.919921875 183.639648438 254.099609375 173.6796875 247.5 169.209960938 c 0
 240.900390625 164.740234375 214.66015625 134.75 209.5703125 126.5 c 0
 201.740234375 113.8203125 204.83984375 88.7802734375 203.58984375 83 c 0
 202.33984375 77.23046875 225.049804688 25.1396484375 225.030273438 22.25 c 0
 225.009765625 19.3603515625 235.799804688 6.2001953125 249 -7 c 0
 262.200195312 -20.2001953125 310.6796875 -60.669921875 307.990234375 -65.5 c 0
 306.150390625 -68.7998046875 301.91015625 -74.48046875 298.5703125 -78.1298828125 c 0
 295.23046875 -81.7802734375 290.469726562 -84.8701171875 288 -85.009765625 c 0
 285.51953125 -85.1396484375 272.629882812 -95.66015625 259.349609375 -108.370117188 c 0
 246.059570312 -121.08984375 232.900390625 -135.209960938 230.099609375 -139.75 c 0
 227.290039062 -144.290039062 218.58984375 -152.690429688 210.75 -158.4296875 c 0
 202.91015625 -164.16015625 194.809570312 -168.879882812 192.75 -168.9296875 c 0
 190.690429688 -168.969726562 185.290039062 -166.23046875 180.75 -162.83984375 c 0
 176.209960938 -159.450195312 167.66015625 -153.040039062 161.75 -148.58984375 c 0
 155.83984375 -144.139648438 137.780273438 -125.650390625 121.599609375 -107.5 c 0
 105.4296875 -89.349609375 87.650390625 -67.41015625 82.099609375 -58.75 c 0
 76.5400390625 -50.08984375 70.650390625 -43 69 -43 c 0
 67.349609375 -43 63.7099609375 -37.9404296875 60.900390625 -31.75 c 0
 57.1298828125 -23.4296875 55.76953125 -11.919921875 55.669921875 12.5 c 0
 55.5595703125 40.169921875 56.7001953125 48.650390625 62.75 65 c 0
 66.73046875 75.73046875 74.8203125 90.4697265625 80.740234375 97.759765625 c 0
 86.66015625 105.049804688 93.51953125 115.16015625 96 120.219726562 c 0
 98.4697265625 125.26953125 108.83984375 135.509765625 119.030273438 142.950195312 c 0
 129.219726562 150.400390625 142.040039062 159.509765625 147.530273438 163.1796875 c 0
 153.009765625 166.860351562 165.599609375 175.33984375 175.5 182.01953125 c 0
 185.400390625 188.700195312 200.25 196.419921875 208.5 199.169921875 c 0
 216.75 201.919921875 225.860351562 206.599609375 228.75 209.580078125 c 0
 231.639648438 212.559570312 238.080078125 216.009765625 243.0703125 217.25 c 0
 248.059570312 218.490234375 293.059570312 239.099609375 303 248 c 0
 310.419921875 254.639648438 349.5703125 281.629882812 357 285.76953125 c 0
 364.419921875 289.900390625 375.559570312 294.5703125 381.75 296.139648438 c 0
 387.940429688 297.709960938 401.099609375 303.73046875 411 309.5 c 0
 420.900390625 315.280273438 473.959960938 345.540039062 481.4296875 349.25 c 0
 488.889648438 352.959960938 513.5 367 514.5 371 c 0
 515.3203125 374.299804688 517.009765625 376.459960938 518.25 375.799804688 c 0
 519.490234375 375.129882812 520.879882812 387.620117188 521.33984375 403.549804688 c 0
 521.799804688 419.469726562 523.5703125 450.049804688 525.26953125 471.5 c 0
 527.080078125 494.299804688 527.530273438 537.91015625 526.349609375 576.5 c 0
 525.240234375 612.799804688 523.469726562 643.599609375 522.419921875 644.940429688 c 0
 521.360351562 646.290039062 518.23046875 645.26953125 515.459960938 642.690429688 c 0
 512.690429688 640.110351562 509.3203125 638.009765625 507.959960938 638.01953125 c 0
 506.610351562 638.030273438 498.75 633.58984375 490.5 628.169921875 c 0
 482.25 622.740234375 469.419921875 615.3203125 462 611.690429688 c 0
 454.5703125 608.059570312 446.809570312 605.0703125 444.75 605.040039062 c 0
 442.690429688 605.01953125 434.58984375 600.9296875 426.75 595.959960938 c 0
 418.91015625 590.98046875 410.139648438 586.9296875 407.25 586.959960938 c 0
 404.360351562 586.98046875 398.290039062 585.150390625 393.75 582.889648438 c 0
 389.209960938 580.629882812 378.75 577.780273438 370.5 576.549804688 c 0
 362.25 575.3203125 341.3203125 574.459960938 324 574.639648438 c 0
 306.669921875 574.809570312 287.76953125 575.879882812 282 577.009765625 c 0
 276.219726562 578.139648438 262.049804688 583.969726562 250.5 589.969726562 c 0
 238.950195312 595.98046875 223.5703125 604.849609375 216.330078125 609.690429688 c 0
 209.08984375 614.540039062 200.650390625 619.849609375 197.5703125 621.5 c 0
 194.490234375 623.150390625 191.98046875 625.509765625 191.990234375 626.75 c 0
 191.990234375 627.990234375 190.650390625 629 189 629 c 0
 187.349609375 629 182.799804688 632.040039062 178.889648438 635.75 c 0
 174.98046875 639.459960938 164.290039062 647.900390625 155.129882812 654.5 c 0
 145.969726562 661.099609375 137.169921875 669.200195312 135.559570312 672.5 c 0
 133.959960938 675.799804688 120.6796875 685.830078125 106.0703125 694.799804688 c 0
 81.0400390625 710.150390625 78.6298828125 711 64.5 709.469726562 c 0
 55.900390625 708.540039062 44.3798828125 704.580078125 37.5 700.190429688 c 0
 29.080078125 694.8203125 26.83984375 692.080078125 30 691.009765625 c 0
 32.4697265625 690.16015625 27.41015625 689.370117188 18.75 689.240234375 c 0
 7.259765625 689.059570312 2.58984375 690.219726562 1.5 693.5 c 0
 0.669921875 695.98046875 0 700.700195312 0 704 c 0
 0 707.419921875 6.1396484375 715.33984375 14.25 722.41015625 c 0
 22.08984375 729.23046875 34.7197265625 737.669921875 42.3203125 741.16015625 c 0
 49.919921875 744.639648438 58.6904296875 749.73046875 61.8203125 752.450195312 c 0
 64.9404296875 755.169921875 83.01953125 765.290039062 136.5 792.5 c 1
 174.599609375 792.5 l 2
 201.290039062 792.5 349.799804688 692.75 359.26953125 688.16015625 c 0
 368.75 683.5703125 383.25 678.349609375 391.5 676.559570312 c 0
 399.75 674.76953125 407.849609375 672.219726562 409.5 670.900390625 c 0
 411.150390625 669.580078125 420.599609375 668.219726562 430.5 667.889648438 c 0
 440.400390625 667.559570312 450.51953125 668 453 668.849609375 c 0
 455.469726562 669.709960938 464.25 672.030273438 472.5 674.01953125 c 0
 480.75 676 494.25 679.620117188 502.5 682.0703125 c 0
 510.75 684.51953125 552.599609375 706.969726562 562.5 714.190429688 c 0
 572.400390625 721.419921875 587.6796875 733.209960938 596.459960938 740.41015625 c 0
 605.23046875 747.610351562 617.58984375 758.23046875 623.91015625 764 c 0
 630.23046875 769.780273438 636.400390625 778.549804688 637.620117188 783.5 c 0
 638.830078125 788.450195312 641.120117188 794.169921875 642.700195312 796.219726562 c 0xd0
EndSplineSet
Validated: 524321
EndChar

StartChar: M
Encoding: 77 77 14
Width: 784
Flags: W
HStem: 233.36 127.819<82.2995 290.443> 254.93 128.17<425.946 563.949>
VStem: 248.84 165.19<584.615 641.15> 295.33 132.35<129.101 249.736 384.123 579.011>
LayerCount: 2
Fore
SplineSet
411 798.139648438 m 0xa0
 416.76953125 797.219726562 421.889648438 796.25 422.379882812 795.98046875 c 0
 422.860351562 795.719726562 424.110351562 786.73046875 425.169921875 776 c 0
 426.219726562 765.280273438 427.099609375 752.450195312 427.129882812 747.5 c 0
 427.150390625 742.549804688 426.099609375 728.379882812 424.799804688 716 c 0
 423.5 703.629882812 416.599609375 664.549804688 415.780273438 636.5 c 0
 414.969726562 608.450195312 414.1796875 568.629882812 414.030273438 548 c 0xa0
 413.889648438 527.379882812 414.98046875 492.950195312 416.450195312 471.5 c 0
 417.919921875 450.049804688 420.669921875 428.790039062 422.559570312 424.25 c 0
 424.450195312 419.709960938 426 409.9296875 426 402.5 c 0
 426 389.120117188 426.120117188 388.969726562 438.75 385.76953125 c 0
 445.759765625 384 462.299804688 382.790039062 475.5 383.099609375 c 0
 488.700195312 383.400390625 506.25 382.91015625 514.5 381.990234375 c 0
 522.75 381.080078125 542.3203125 379.66015625 558 378.83984375 c 0
 573.669921875 378.01953125 596.959960938 374.5703125 609.75 371.169921875 c 0
 622.540039062 367.780273438 638.400390625 362.299804688 645 359 c 0
 651.599609375 355.700195312 662.059570312 347.549804688 668.25 340.879882812 c 0
 674.440429688 334.209960938 717.349609375 272.75 718.990234375 264.5 c 0
 720.629882812 256.25 721.509765625 233.98046875 720.9296875 215 c 0
 720.26953125 193.299804688 718.08984375 175.490234375 715.040039062 167 c 0
 712.379882812 159.580078125 707.219726562 149.450195312 703.5703125 144.5 c 0
 699.9296875 139.549804688 673.349609375 93.16015625 669.669921875 92.75 c 0
 666 92.33984375 632.58984375 58.099609375 624.75 53.330078125 c 0
 616.91015625 48.5498046875 608.139648438 41.1298828125 605.25 36.830078125 c 0
 602.360351562 32.51953125 526.120117188 -7.7001953125 522 -11.41015625 c 0
 516.360351562 -16.490234375 426.650390625 -35.5 379.5 -37.419921875 c 0
 320.360351562 -39.830078125 302.139648438 -28.01953125 299.25 -26.9501953125 c 0
 296.360351562 -25.8798828125 293.9296875 -22.6396484375 293.830078125 -19.75 c 0
 293.740234375 -16.8603515625 293.419921875 2.3798828125 293.120117188 23 c 0
 292.8203125 43.6298828125 293.83984375 86.830078125 295.400390625 119 c 0
 296.969726562 151.1796875 298.219726562 185.599609375 298.200195312 195.5 c 0
 298.1796875 205.400390625 296.889648438 221.950195312 295.330078125 232.280273438 c 0x50
 292.51953125 250.900390625 292.419921875 251.0703125 282.75 251.030273438 c 0
 277.389648438 251.009765625 269.959960938 249.16015625 266.25 246.91015625 c 0
 262.540039062 244.66015625 239.25 240.4296875 214.5 237.509765625 c 0
 179.509765625 233.370117188 116.01953125 233.209960938 102 233.360351562 c 0
 83.7001953125 233.559570312 71 231.870117188 57 227.360351562 c 0
 46.26953125 223.900390625 33.1103515625 221.059570312 27.75 221.040039062 c 0
 22.3896484375 221.01953125 14.6201171875 222.349609375 10.5 224 c 0
 5.1298828125 226.150390625 2.66015625 229.76953125 1.7998046875 236.75 c 0
 1.1396484375 242.110351562 2.490234375 249.540039062 4.7998046875 253.25 c 0
 7.1103515625 256.959960938 85.5703125 345.1796875 93 350.509765625 c 0
 106.150390625 359.9296875 107.4296875 360.209960938 142.5 361.1796875 c 0
 162.299804688 361.719726562 191.3203125 363.580078125 207 365.290039062 c 0
 222.669921875 367.009765625 248.3203125 370.009765625 292.5 375.5 c 1
 292.370117188 395 l 2
 292.299804688 405.73046875 291.25 428.6796875 290.040039062 446 c 0
 288.8203125 463.330078125 286.4296875 494.379882812 284.719726562 515 c 0
 283.01953125 535.629882812 279.349609375 560.370117188 276.559570312 569.98046875 c 0
 273.01953125 582.23046875 268.120117188 590.76953125 260.200195312 598.48046875 c 0
 253.990234375 604.540039062 248.879882812 610.849609375 248.83984375 612.5 c 0
 248.809570312 614.150390625 243.4296875 621.240234375 236.889648438 628.25 c 0
 230.349609375 635.259765625 224.3203125 644.379882812 223.5 648.5 c 0
 222.259765625 654.719726562 225.5703125 659.450195312 242.91015625 676.25 c 0
 254.400390625 687.389648438 270.940429688 700.940429688 279.66015625 706.360351562 c 0
 288.370117188 711.790039062 301.5703125 721.990234375 309 729.040039062 c 0
 316.419921875 736.08984375 374.919921875 779.030273438 384 786.41015625 c 0
 398.41015625 798.120117188 401.830078125 799.610351562 411 798.139648438 c 0xa0
423 254 m 1
 423.030273438 229.58984375 425.129882812 211.030273438 427.6796875 197 c 0
 430.240234375 182.98046875 435.759765625 162.73046875 439.959960938 152 c 0
 444.16015625 141.280273438 448.76953125 130.48046875 450.209960938 128 c 0
 451.66015625 125.530273438 455.23046875 118.91015625 458.169921875 113.299804688 c 0
 461.209960938 107.490234375 470.58984375 98.5498046875 480 92.509765625 c 0
 496.040039062 82.2099609375 497.08984375 81.9599609375 517.5 83.8798828125 c 0
 529.049804688 84.9697265625 546.599609375 88.7099609375 556.5 92.1904296875 c 0
 566.400390625 95.669921875 576.51953125 100.26953125 579 102.41015625 c 0
 581.469726562 104.549804688 588.900390625 109.049804688 595.5 112.41015625 c 0
 602.099609375 115.76953125 631.299804688 151.549804688 634.360351562 156.5 c 0
 639.349609375 164.58984375 639.490234375 166.540039062 635.709960938 175.759765625 c 0
 633.389648438 181.400390625 628.1796875 188.150390625 624.120117188 190.759765625 c 0
 620.059570312 193.370117188 610.5703125 201.580078125 603.049804688 209 c 0
 594.080078125 217.83984375 581.610351562 225.75 566.9296875 231.91015625 c 0
 554.58984375 237.08984375 537.0703125 242.219726562 528 243.330078125 c 0
 518.919921875 244.4296875 503.400390625 247.16015625 493.5 249.400390625 c 0
 483.599609375 251.639648438 470.76953125 254.009765625 465 254.669921875 c 0
 459.219726562 255.330078125 447.41015625 255.450195312 438.75 254.9296875 c 2x50
 423 254 l 1
EndSplineSet
Validated: 524321
EndChar

StartChar: N
Encoding: 78 78 15
Width: 508
Flags: W
VStem: 1.33008 156.17<194.995 629.525> 16.4297 143.34<118.099 629.525>
LayerCount: 2
Fore
SplineSet
155.91015625 797.209960938 m 0x80
 161.740234375 798.530273438 174.599609375 798.900390625 184.5 798.030273438 c 0
 194.400390625 797.16015625 306.219726562 737.98046875 312 734.030273438 c 0
 317.76953125 730.080078125 330.599609375 719.719726562 340.5 711.009765625 c 0
 350.400390625 702.299804688 360.120117188 693.440429688 362.110351562 691.330078125 c 0
 364.08984375 689.219726562 374.259765625 678.049804688 384.719726562 666.5 c 0
 395.169921875 654.950195312 408.389648438 639.969726562 414.110351562 633.219726562 c 0
 419.8203125 626.469726562 427.099609375 617.690429688 430.280273438 613.719726562 c 0
 433.450195312 609.75 437.83984375 602.110351562 440.030273438 596.75 c 0
 442.209960938 591.389648438 444 583.629882812 444 579.5 c 0
 444 574.450195312 439.1796875 567.33984375 429.259765625 557.75 c 0
 421.150390625 549.91015625 410.009765625 539.299804688 404.509765625 534.1796875 c 0
 399 529.049804688 388.08984375 516.559570312 380.25 506.4296875 c 0
 372.41015625 496.290039062 360.599609375 484.629882812 354 480.5 c 0
 347.400390625 476.379882812 339.639648438 472.969726562 336.75 472.9296875 c 0
 333.860351562 472.889648438 322.049804688 482.650390625 310.5 494.620117188 c 0
 298.950195312 506.580078125 286.799804688 519.900390625 283.5 524.219726562 c 0
 280.200195312 528.530273438 164.809570312 638.099609375 162.75 638.059570312 c 0
 160.690429688 638.030273438 158.120117188 634.290039062 157.040039062 629.75 c 0
 155.959960938 625.209960938 156.16015625 604.629882812 157.5 584 c 0x80
 158.830078125 563.379882812 159.41015625 534.349609375 158.780273438 519.5 c 0
 158.150390625 504.650390625 157.6796875 483.049804688 157.719726562 471.5 c 0
 157.759765625 459.950195312 159.219726562 433.629882812 160.959960938 413 c 0
 162.849609375 390.540039062 163.099609375 367.6796875 161.580078125 356 c 0
 160.1796875 345.280273438 159.370117188 285.51953125 159.76953125 223.219726562 c 0
 160.41015625 123.83984375 161.049804688 110.169921875 165 111.870117188 c 0
 167.469726562 112.940429688 174.900390625 115.740234375 181.5 118.099609375 c 0
 188.099609375 120.459960938 196.200195312 121.650390625 199.5 120.740234375 c 0
 202.799804688 119.830078125 212.919921875 120.51953125 222 122.280273438 c 0
 233.580078125 124.51953125 246.549804688 124.540039062 265.5 122.349609375 c 0
 287.259765625 119.830078125 293.759765625 117.889648438 298.990234375 112.360351562 c 0
 305.330078125 105.66015625 305.370117188 105.169921875 300.490234375 91.3203125 c 0
 297.690429688 83.349609375 292.870117188 76 289.5 74.5302734375 c 0
 286.200195312 73.099609375 196.610351562 13.7802734375 185.309570312 8 c 0
 174.01953125 2.23046875 152.049804688 -12.6201171875 136.490234375 -25 c 0
 120.9296875 -37.3701171875 49.7197265625 -77.830078125 19.5 -88 c 1
 19.5 -70.8095703125 l 1
 19.16015625 -27.66015625 l 2
 18.9697265625 -3.919921875 17.740234375 70.1796875 16.4296875 137 c 0x40
 15.1201171875 203.830078125 13.6904296875 269.98046875 13.26953125 284 c 0
 12.849609375 298.030273438 11.2197265625 333.129882812 9.66015625 362 c 0
 8.08984375 390.879882812 5.1396484375 420.580078125 3.080078125 428 c 0
 0.2998046875 438.059570312 -0.150390625 460.620117188 1.330078125 516.5 c 0
 2.4404296875 558.370117188 5.1103515625 600.780273438 7.3798828125 612.5 c 0
 9.6201171875 624.049804688 12.83984375 638.900390625 14.5498046875 645.5 c 0
 16.25 652.099609375 21.080078125 664.9296875 25.2900390625 674 c 0
 29.5 683.080078125 41.33984375 711.950195312 51.6201171875 723.5 c 0
 62.2197265625 735.400390625 76.2099609375 747.48046875 83.91015625 751.370117188 c 0
 91.3798828125 755.150390625 100.870117188 761.959960938 105 766.5 c 0
 109.120117188 771.049804688 118.389648438 777.400390625 125.58984375 780.629882812 c 0
 132.790039062 783.860351562 140.1796875 788.370117188 142 790.66015625 c 0
 143.830078125 792.940429688 150.08984375 795.889648438 155.91015625 797.209960938 c 0x80
EndSplineSet
Validated: 524321
EndChar

StartChar: P
Encoding: 80 80 16
Width: 814
Flags: W
HStem: 333.26 100.36<445.5 544.858> 647.35 85.4805<245.584 298.365>
VStem: 84.1396 151<448.299 636.29> 295.23 144.649<50.9998 318.5 433.707 650.632> 304.78 129.569<50.7816 296.021 433.707 651.578>
LayerCount: 2
Fore
SplineSet
94.5 799.780273438 m 0xf0
 96.150390625 800.049804688 101.959960938 795.8203125 107.419921875 790.379882812 c 0
 112.870117188 784.950195312 121.830078125 772.400390625 127.330078125 762.5 c 0
 132.830078125 752.599609375 139.16015625 742.75 141.41015625 740.620117188 c 0
 144.440429688 737.73046875 153.049804688 737.150390625 174.75 738.370117188 c 0
 190.83984375 739.259765625 212.440429688 738.709960938 222.75 737.139648438 c 0
 233.059570312 735.559570312 254.3203125 733.620117188 270 732.830078125 c 0
 285.669921875 732.030273438 316.719726562 732.690429688 339 734.290039062 c 0
 361.26953125 735.879882812 386.919921875 737.889648438 396 738.740234375 c 0
 409.280273438 739.98046875 413.540039062 739.23046875 417.849609375 734.889648438 c 0
 420.790039062 731.9296875 433.370117188 712.459960938 432.26953125 675.1796875 c 0
 431.599609375 652.259765625 431.0703125 615.950195312 431.099609375 594.5 c 0
 431.139648438 573.049804688 432.650390625 546.73046875 434.469726562 536 c 0
 436.290039062 525.280273438 438.169921875 498.490234375 438.639648438 476.490234375 c 0
 439.110351562 454.48046875 440.849609375 435.190429688 442.5 433.620117188 c 0
 444.150390625 432.049804688 452.919921875 431.51953125 462 432.4296875 c 0
 471.0703125 433.349609375 489.299804688 435.1796875 502.5 436.5 c 0
 515.700195312 437.8203125 527.849609375 438.139648438 529.5 437.200195312 c 0
 531.150390625 436.26953125 540.599609375 433.919921875 550.5 431.98046875 c 0
 560.400390625 430.040039062 575.919921875 426.870117188 585 424.9296875 c 0
 594.0703125 423 606.559570312 418.83984375 612.75 415.709960938 c 0
 618.940429688 412.5703125 626.299804688 406.290039062 629.099609375 401.75 c 0
 631.91015625 397.209960938 639.669921875 387.360351562 646.349609375 379.849609375 c 0
 653.030273438 372.33984375 661.209960938 362.889648438 664.51953125 358.849609375 c 0
 667.830078125 354.809570312 674.950195312 344.75 680.330078125 336.5 c 0
 685.719726562 328.25 707.879882812 277.030273438 712.200195312 263 c 0
 716.51953125 248.98046875 722.040039062 226.700195312 724.48046875 213.5 c 0
 726.91015625 200.299804688 730.200195312 182.080078125 731.799804688 173 c 0
 733.389648438 163.9296875 736.110351562 142.330078125 737.830078125 125 c 0
 739.549804688 107.6796875 740.9296875 82.0302734375 740.900390625 68 c 0
 740.860351562 50.150390625 742.110351562 41.150390625 745.0703125 38 c 0
 747.389648438 35.5302734375 750.26953125 30.1298828125 751.459960938 26 c 0
 752.650390625 21.8798828125 755.299804688 15.7998046875 757.349609375 12.5 c 0
 759.400390625 9.2001953125 761.799804688 2.4501953125 762.6796875 -2.5 c 0
 763.5703125 -7.4501953125 762.4296875 -17.240234375 760.150390625 -24.25 c 0
 756.759765625 -34.66015625 644.58984375 -68.669921875 636.75 -67.0498046875 c 0
 628.91015625 -65.419921875 618.790039062 -60.7001953125 614.25 -56.5498046875 c 0
 609.190429688 -51.91015625 605.950195312 -45.8095703125 605.879882812 -40.75 c 0
 605.8203125 -36.2099609375 603.740234375 -31.150390625 601.259765625 -29.5 c 0
 598.780273438 -27.849609375 595.549804688 -21.76953125 594.080078125 -16 c 0
 592.610351562 -10.2197265625 589.360351562 1.9296875 586.860351562 11 c 0
 584.349609375 20.1396484375 580.889648438 53.599609375 579.099609375 86 c 0
 577.330078125 118.1796875 575.33984375 164.75 574.6796875 189.5 c 0
 574.030273438 214.25 571.1796875 246.650390625 568.349609375 261.5 c 0
 564.360351562 282.5 560.809570312 292.01953125 552.360351562 304.33984375 c 0
 542.469726562 318.759765625 502.169921875 331.870117188 489 333.259765625 c 0
 478.26953125 334.379882812 464.099609375 334.469726562 445.5 331.5703125 c 1
 442.879882812 290.530273438 l 2
 441.4296875 267.969726562 440.080078125 230.809570312 439.879882812 207.98046875 c 0xf0
 439.669921875 185.139648438 434.809570312 70.099609375 434.349609375 63.5 c 0
 433.599609375 52.990234375 434.33984375 51.41015625 440.25 50.75 c 0
 443.959960938 50.33984375 451.049804688 52.7001953125 456 56 c 0
 460.950195312 59.2998046875 469.719726562 62 475.5 62 c 0
 481.26953125 62 488.219726562 60.990234375 490.919921875 59.75 c 0
 493.629882812 58.509765625 497.6796875 53.7900390625 499.919921875 49.25 c 0
 503.209960938 42.58984375 503.3203125 37.9599609375 500.469726562 25.25 c 0
 498.530273438 16.58984375 493.469726562 4.23046875 489.219726562 -2.2197265625 c 0
 483.849609375 -10.3603515625 473.73046875 -18.3603515625 456 -28.48046875 c 0
 441.969726562 -36.4697265625 427.120117188 -44.509765625 423 -46.330078125 c 0
 418.870117188 -48.150390625 356.58984375 -71.3603515625 348.75 -73.01953125 c 0
 340.549804688 -74.75 330.6796875 -74.9697265625 325.5 -73.5302734375 c 0
 320.400390625 -72.1201171875 314.290039062 -67.240234375 311.400390625 -62.26953125 c 0
 307.309570312 -55.2197265625 306.009765625 -42.8798828125 304.780273438 0.5 c 0xe8
 303.940429688 30.2001953125 301.709960938 63.9501953125 299.8203125 75.5 c 0
 297.9296875 87.0498046875 295.870117188 134.98046875 295.23046875 182 c 0
 294.58984375 229.030273438 293.580078125 270.879882812 293 275 c 0
 292.419921875 279.129882812 291.73046875 290.599609375 291 318.5 c 1
 291 318.5 146.139648438 362.16015625 143.25 362.099609375 c 0
 140.360351562 362.049804688 133.870117188 367.059570312 128.830078125 373.25 c 0
 123.780273438 379.440429688 115.809570312 388.549804688 111.110351562 393.5 c 0
 103.66015625 401.33984375 101.950195312 406.75 97.8203125 435.5 c 0
 95.2197265625 453.650390625 84.1396484375 610.9296875 84.1396484375 636.5 c 1
 74.3203125 634.190429688 l 2
 68.7802734375 632.879882812 54.0498046875 633.459960938 40.5 635.530273438 c 0
 22.3798828125 638.290039062 14.3798828125 641.059570312 7.830078125 646.83984375 c 0
 -0.2998046875 654.030273438 -0.75 655.610351562 0.5703125 672.5 c 0
 1.5 684.280273438 48.4404296875 763.900390625 58.1396484375 775.110351562 c 0
 68.3701171875 786.940429688 79.0703125 796.299804688 83.6396484375 797.400390625 c 0
 87.9599609375 798.440429688 92.849609375 799.509765625 94.5 799.780273438 c 0xf0
262.509765625 647.349609375 m 0
 255.419921875 647.139648438 248.450195312 644.860351562 245.440429688 641.75 c 0
 241.5703125 637.740234375 240 629.030273438 238.83984375 605 c 0
 238 587.6796875 236.33984375 556.629882812 235.139648438 536 c 0
 233.16015625 502.120117188 239.469726562 448.75 244.5 448.8203125 c 0
 247.799804688 448.870117188 255.219726562 447.219726562 261 445.150390625 c 0
 266.76953125 443.08984375 276.219726562 439.059570312 282 436.209960938 c 0
 287.76953125 433.349609375 292.799804688 431.349609375 293.169921875 431.759765625 c 0
 293.540039062 432.169921875 295.059570312 458.830078125 296.540039062 491 c 0
 298.030273438 523.1796875 299.080078125 572.330078125 298.879882812 600.240234375 c 0
 298.650390625 631.3203125 297.33984375 651.219726562 295.5 651.610351562 c 0
 293.849609375 651.959960938 288.450195312 651.23046875 283.5 649.98046875 c 0
 278.549804688 648.73046875 269.099609375 647.549804688 262.509765625 647.349609375 c 0
EndSplineSet
Validated: 524321
EndChar

StartChar: O
Encoding: 79 79 17
Width: 853
Flags: W
HStem: 305.09 26.9102<411 447.75>
VStem: 11.8398 147.16<-1.17071 170.016 223.324 327.798> 578.94 122.21<121.383 354.432>
LayerCount: 2
Fore
SplineSet
488.169921875 795.75 m 0
 495.549804688 793.5 506.530273438 784.209960938 523.91015625 765.5 c 0
 537.709960938 750.650390625 550.41015625 737.150390625 552.150390625 735.5 c 0
 553.879882812 733.849609375 557.1796875 730.48046875 559.469726562 728 c 0
 561.759765625 725.530273438 569.450195312 716.25 576.5703125 707.389648438 c 0
 583.6796875 698.530273438 591.139648438 688.400390625 593.150390625 684.889648438 c 0
 595.150390625 681.370117188 605.059570312 669.73046875 615.16015625 659 c 0
 625.259765625 648.280273438 635.620117188 635.450195312 638.1796875 630.5 c 0
 640.740234375 625.549804688 643.790039062 620.830078125 644.950195312 620 c 0
 646.110351562 619.1796875 651.6796875 611.75 657.3203125 603.5 c 0
 662.969726562 595.25 669.830078125 583.780273438 672.5703125 578 c 0
 675.309570312 572.23046875 679.6796875 562.440429688 682.280273438 556.25 c 0
 685.129882812 549.450195312 699.919921875 368.599609375 700.700195312 345.5 c 0
 701.48046875 322.400390625 701.98046875 287.98046875 701.809570312 269 c 0
 701.639648438 250.030273438 701.349609375 220.330078125 701.150390625 203 c 0
 700.959960938 185.6796875 701.83984375 161.379882812 703.110351562 149 c 0
 704.379882812 136.629882812 707.009765625 124.129882812 708.959960938 121.240234375 c 0
 711.469726562 117.5 719.450195312 115.0703125 736.5 112.849609375 c 0
 749.700195312 111.139648438 763.540039062 109.120117188 767.25 108.370117188 c 0
 771.610351562 107.48046875 775.620117188 103.01953125 778.5703125 95.75 c 0
 781.08984375 89.5595703125 783.129882812 81.7998046875 783.099609375 78.5 c 0
 783.0703125 75.2001953125 780.330078125 67.099609375 777 60.5 c 0
 773.669921875 53.900390625 648.75 -72.0400390625 640.5 -75.8798828125 c 0
 629.51953125 -80.990234375 622.6796875 -82.3603515625 615 -80.98046875 c 0
 609.219726562 -79.9404296875 602.200195312 -76.0302734375 599.389648438 -72.2900390625 c 0
 596.580078125 -68.5595703125 592.110351562 -59.419921875 589.440429688 -52 c 0
 586.780273438 -44.5703125 581.83984375 -32.419921875 578.450195312 -25 c 0
 573.610351562 -14.3701171875 572.360351562 -5.75 572.580078125 15.5 c 0
 572.73046875 30.349609375 574.240234375 49.9296875 575.940429688 59 c 0
 577.639648438 68.080078125 578.990234375 107.23046875 578.940429688 146 c 0
 578.889648438 184.780273438 578.48046875 221.900390625 578.030273438 228.5 c 0
 577.580078125 235.099609375 576.940429688 265.809570312 576.610351562 296.75 c 0
 576.030273438 350.240234375 575.709960938 353.0703125 570 354.5 c 0
 566.370117188 355.41015625 555.4296875 351.209960938 542.25 343.83984375 c 0
 530.290039062 337.150390625 516.450195312 330.48046875 511.5 329.01953125 c 0
 506.549804688 327.559570312 469.759765625 314.08984375 462.75 310.860351562 c 0
 455.740234375 307.639648438 448.990234375 305.040039062 447.75 305.08984375 c 0
 446.509765625 305.139648438 406.419921875 282.91015625 399 280.740234375 c 0
 391.110351562 278.450195312 357.790039062 253.490234375 332.25 243.620117188 c 0
 312.860351562 236.129882812 296.3203125 230 295.5 230 c 0
 294.669921875 230 288.259765625 227.450195312 281.25 224.330078125 c 0
 274.240234375 221.219726562 259.719726562 215.26953125 249 211.120117188 c 0
 238.26953125 206.98046875 224.099609375 201.940429688 217.5 199.9296875 c 0
 210.900390625 197.919921875 198.0703125 191.450195312 189 185.549804688 c 0
 179.919921875 179.650390625 170.860351562 172.719726562 168.849609375 170.16015625 c 0
 166.559570312 167.240234375 165.16015625 154.549804688 165.099609375 136.25 c 0
 165.040039062 120.16015625 162.299804688 90.1298828125 159 69.5 c 0
 155.700195312 48.8798828125 151.650390625 29.2998046875 150 26 c 0
 148.349609375 22.7001953125 147 17.2998046875 147 14 c 0
 147 10.7001953125 139.240234375 0.08984375 129.75 -9.580078125 c 0
 116.530273438 -23.0498046875 108.639648438 -28.3896484375 96 -32.41015625 c 0
 86.919921875 -35.2998046875 66 -38.7099609375 49.5 -39.98046875 c 0
 33 -41.259765625 16.7998046875 -41.3095703125 13.5 -40.08984375 c 0
 9.6904296875 -38.6796875 6.2197265625 -33.0595703125 3.990234375 -24.6796875 c 0
 1.23046875 -14.2802734375 1.330078125 -8.330078125 4.490234375 3.5 c 0
 6.6904296875 11.75 10 29.98046875 11.83984375 44 c 0
 13.6796875 58.0302734375 15.75 74.23046875 16.4404296875 80 c 0
 17.1298828125 85.7802734375 22.3203125 448.3203125 35.4697265625 462.5 c 0
 43.1201171875 470.75 50.759765625 478.040039062 52.4404296875 478.700195312 c 0
 54.1201171875 479.360351562 56.169921875 480.799804688 57 481.900390625 c 0
 57.8203125 483 212.549804688 613.700195312 217.5 615.780273438 c 0
 222.450195312 617.849609375 286.740234375 667.9296875 291.969726562 673.33984375 c 0
 297.209960938 678.75 302.509765625 683.139648438 303.75 683.08984375 c 0
 304.990234375 683.040039062 437.75 773.900390625 445.41015625 780.5 c 0
 453.059570312 787.099609375 463.419921875 793.959960938 468.419921875 795.75 c 0
 474.959960938 798.08984375 480.51953125 798.08984375 488.169921875 795.75 c 0
307.5 642.759765625 m 0
 302.549804688 640.459960938 292.759765625 633.049804688 285.75 626.290039062 c 0
 278.740234375 619.530273438 267.400390625 610.290039062 260.549804688 605.75 c 0
 253.700195312 601.209960938 246.049804688 596.150390625 243.540039062 594.5 c 0
 241.030273438 592.849609375 236.290039062 589.48046875 233.01953125 587 c 0
 229.740234375 584.530273438 221.73046875 577.780273438 215.209960938 572 c 0
 208.690429688 566.23046875 199.990234375 554.080078125 195.879882812 545 c 0
 191.76953125 535.9296875 186.6796875 523.099609375 184.5703125 516.5 c 0
 182.459960938 509.900390625 178.620117188 492.349609375 176.040039062 477.5 c 0
 173.450195312 462.650390625 170.509765625 440.379882812 169.5 428 c 0
 168.490234375 415.629882812 167.059570312 399.759765625 166.330078125 392.75 c 0
 165.599609375 385.740234375 165.669921875 380 166.5 380 c 0
 167.3203125 380 176.099609375 384.049804688 186 389 c 0
 195.900390625 393.950195312 222.559570312 404.08984375 245.25 411.540039062 c 0
 267.940429688 418.98046875 295.950195312 428.610351562 307.5 432.919921875 c 0
 319.049804688 437.240234375 336.940429688 444.650390625 347.25 449.389648438 c 0
 357.559570312 454.120117188 367.690429688 458.030273438 369.75 458.080078125 c 0
 371.809570312 458.120117188 375.51953125 459.889648438 378 462.01953125 c 0
 380.469726562 464.150390625 393.299804688 469.030273438 406.5 472.860351562 c 0
 419.700195312 476.700195312 446.700195312 487.950195312 466.5 497.860351562 c 0
 486.299804688 507.780273438 505.530273438 517.379882812 509.23046875 519.200195312 c 0
 512.9296875 521.009765625 516 523.1796875 516.0703125 524 c 0
 516.129882812 524.830078125 507.330078125 535.629882812 496.51953125 548 c 0
 485.700195312 560.379882812 472.419921875 573.200195312 467 576.5 c 0
 461.580078125 579.799804688 450.610351562 587.900390625 442.620117188 594.5 c 0
 434.629882812 601.099609375 422.549804688 611.559570312 415.790039062 617.75 c 0
 409.030273438 623.940429688 402.490234375 629 401.25 629 c 0
 400.009765625 629 391.299804688 635.75 381.900390625 644 c 0
 372.490234375 652.25 363.040039062 659 360.900390625 659 c 0
 358.75 659 353.120117188 660.919921875 348.370117188 663.259765625 c 0
 340.139648438 667.330078125 339.200195312 667.040039062 328.120117188 657.219726562 c 0
 321.73046875 651.559570312 312.450195312 645.049804688 307.5 642.759765625 c 0
516 485.900390625 m 0
 510.219726562 483.5 499.759765625 478.940429688 492.75 475.76953125 c 0
 485.740234375 472.58984375 436.719726562 453.26953125 426 448.26953125 c 0
 415.26953125 443.259765625 402.450195312 437.08984375 397.5 434.559570312 c 0
 392.549804688 432.01953125 387.8203125 429.169921875 387 428.219726562 c 0
 386.169921875 427.26953125 317.01953125 400.469726562 303 393 c 0
 288.969726562 385.530273438 220.799804688 348.879882812 217.5 347.9296875 c 0
 214.200195312 346.98046875 203.400390625 342.5 193.5 337.98046875 c 0
 183.599609375 333.459960938 173.139648438 328.91015625 170.25 327.879882812 c 0
 165.540039062 326.190429688 164.990234375 320.849609375 164.919921875 275.75 c 0
 164.870117188 248.110351562 165.549804688 224.490234375 166.419921875 223.25 c 0
 167.290039062 222.009765625 171.709960938 222.51953125 176.25 224.370117188 c 0
 180.790039062 226.23046875 237.110351562 243.969726562 248.25 250.049804688 c 0
 259.389648438 256.120117188 281.3203125 267.73046875 297 275.830078125 c 0
 312.669921875 283.940429688 327.51953125 292.389648438 330 294.599609375 c 0
 332.469726562 296.8203125 341.25 301.559570312 349.5 305.129882812 c 0
 357.75 308.700195312 374.290039062 316.209960938 386.25 321.809570312 c 0
 398.209960938 327.419921875 409.349609375 332 411 332 c 0
 412.650390625 332 416.360351562 333.3203125 419.25 334.940429688 c 0
 422.139648438 336.549804688 435.969726562 342.129882812 450 347.330078125 c 0
 464.01953125 352.530273438 477.51953125 358.299804688 480 360.139648438 c 0
 482.469726562 361.990234375 487.540039062 365.190429688 491.25 367.25 c 0
 494.959960938 369.309570312 499.349609375 371 501 371 c 0
 502.650390625 371 509.059570312 373.139648438 515.25 375.75 c 0
 521.440429688 378.360351562 531.219726562 382.51953125 537 384.990234375 c 0
 542.76953125 387.450195312 553.240234375 392.740234375 560.25 396.740234375 c 2
 573 404 l 1
 565.629882812 433.059570312 559.849609375 452.98046875 555.400390625 467 c 0
 549.059570312 487.009765625 546.040039062 492.620117188 541.41015625 493.0703125 c 0
 538.16015625 493.379882812 533.469726562 492.879882812 531 491.950195312 c 0
 528.51953125 491.030273438 521.76953125 488.299804688 516 485.900390625 c 0
EndSplineSet
Validated: 524321
EndChar

StartChar: Q
Encoding: 81 81 18
Width: 829
Flags: W
HStem: -31 32.9902<726.277 749.865> 712.88 57.6006<276.182 521.488> 758 41.5996<720.624 737.844>
VStem: 432 99<442.381 523.986> 452.14 137.101<56.6191 184.544>
LayerCount: 2
Fore
SplineSet
726.75 799.599609375 m 0xa8
 729.639648438 799.8203125 734.700195312 798.650390625 738 797 c 0
 742.040039062 794.98046875 744.5703125 789.83984375 745.75 781.25 c 0
 746.719726562 774.240234375 746.3203125 763.780273438 744.860351562 758 c 0
 743.290039062 751.76953125 610.5703125 663.580078125 601.5 654.5 c 0
 592.419921875 645.4296875 585.030273438 636.990234375 585.059570312 635.75 c 0
 585.08984375 634.509765625 582.73046875 630.719726562 579.809570312 627.3203125 c 0
 576.889648438 623.91015625 571.459960938 615.48046875 567.75 608.5703125 c 0
 564.040039062 601.650390625 561.01953125 594.309570312 561.040039062 592.25 c 0
 561.0703125 590.190429688 557.690429688 580.059570312 553.540039062 569.75 c 0
 549.389648438 559.440429688 543.299804688 538.1796875 540 522.5 c 0
 536.700195312 506.830078125 534.669921875 492.650390625 535.5 491 c 0
 536.3203125 489.349609375 535.650390625 487.330078125 534 486.5 c 0
 532.349609375 485.6796875 531 481.629882812 531 477.5 c 0xb0
 531 473.379882812 528.139648438 458.190429688 524.629882812 443.75 c 0
 521.129882812 429.309570312 514.360351562 409.400390625 509.5703125 399.5 c 0
 504.790039062 389.599609375 500.9296875 380.150390625 500.990234375 378.5 c 0
 501.059570312 376.849609375 496.330078125 370.780273438 490.5 365 c 0
 484.669921875 359.23046875 479.919921875 353.490234375 479.950195312 352.25 c 0
 479.98046875 351.009765625 482.309570312 348.990234375 485.139648438 347.75 c 0
 487.969726562 346.509765625 494.379882812 341.690429688 499.389648438 337.030273438 c 0
 504.400390625 332.370117188 515.580078125 321.5703125 524.240234375 313.030273438 c 0
 532.889648438 304.490234375 571.150390625 253.099609375 573.860351562 246.5 c 0
 576.5703125 239.900390625 579.620117188 227.75 580.639648438 219.5 c 0
 581.650390625 211.25 583.709960938 200.450195312 585.209960938 195.5 c 0
 586.719726562 190.549804688 588.530273438 170.299804688 589.240234375 150.5 c 0
 589.950195312 130.700195312 592.120117188 107.080078125 594.059570312 98 c 0
 596 88.9296875 600.16015625 77.7900390625 603.299804688 73.25 c 0
 606.4296875 68.7099609375 609.040039062 63.3095703125 609.08984375 61.25 c 0
 609.150390625 59.1904296875 613.620117188 52.099609375 619.040039062 45.5 c 0
 625.58984375 37.509765625 714.219726562 1.91015625 720 1.990234375 c 0
 725.76953125 2.0703125 734.889648438 0.0703125 740.25 -2.4404296875 c 0
 748.860351562 -6.4697265625 750 -8.400390625 750 -19 c 0
 750 -25.599609375 748.650390625 -31 747 -31 c 0
 745.349609375 -31 744 -33.01953125 744 -35.5 c 0
 744 -37.9697265625 741.639648438 -39.9599609375 738.75 -39.919921875 c 0
 735.860351562 -39.8701171875 616.049804688 -116.790039062 604.5 -125.4296875 c 0
 592.950195312 -134.059570312 578.76953125 -143.51953125 573 -146.440429688 c 0
 565.549804688 -150.200195312 559.009765625 -151.200195312 550.5 -149.889648438 c 0
 542.610351562 -148.66015625 535.139648438 -144.690429688 528.6796875 -138.259765625 c 0
 523.290039062 -132.889648438 462.849609375 -55.9404296875 460.23046875 -49.75 c 0
 457.009765625 -42.150390625 455.049804688 -25.8603515625 454.169921875 0.5 c 0
 453.459960938 21.9501953125 452.540039062 59.75 452.139648438 84.5 c 0
 451.469726562 125.08984375 416.669921875 229.549804688 413.740234375 234.5 c 0
 410.799804688 239.450195312 403.919921875 247.849609375 398.450195312 253.169921875 c 0
 392.98046875 258.490234375 378.709960938 267.599609375 366.75 273.419921875 c 0
 354.51953125 279.370117188 311.639648438 272.790039062 307.509765625 268.25 c 0
 303.379882812 263.709960938 300 259.330078125 300 258.5 c 0
 300 257.6796875 297.51953125 253.290039062 294.48046875 248.75 c 0
 291.450195312 244.209960938 286.129882812 231.73046875 282.669921875 221 c 0
 279.219726562 210.280273438 273.76953125 191.379882812 270.580078125 179 c 0
 267.389648438 166.629882812 262.490234375 145.700195312 259.690429688 132.5 c 0
 256.900390625 119.299804688 253.360351562 104.450195312 251.83984375 99.5 c 0
 250.3203125 94.5498046875 249.0703125 87.1298828125 249.059570312 83 c 0
 249.059570312 78.8798828125 246.8203125 66.0498046875 244.099609375 54.5 c 0
 241.379882812 42.9501953125 238.169921875 30.7998046875 236.950195312 27.5 c 0
 235.740234375 24.2001953125 233.23046875 17.7900390625 231.370117188 13.25 c 0
 229.120117188 7.73046875 222.790039062 2.5400390625 212.25 -2.4404296875 c 0
 203.58984375 -6.5302734375 65.4697265625 -72.9599609375 63 -72.8798828125 c 0
 60.51953125 -72.7998046875 39.7900390625 -84.5400390625 35.25 -87.900390625 c 0
 30.7099609375 -91.25 23.9599609375 -94.0400390625 20.25 -94.099609375 c 0
 16.5400390625 -94.150390625 11.3203125 -91.7900390625 8.650390625 -88.849609375 c 0
 5.990234375 -85.91015625 2.9501953125 -79.7900390625 1.900390625 -75.25 c 0
 0.3203125 -68.3798828125 1.919921875 -65.1103515625 11.4599609375 -55.75 c 0
 17.76953125 -49.5595703125 28.7802734375 -33.7001953125 35.9404296875 -20.5 c 0
 43.099609375 -7.2998046875 54.0498046875 10.25 60.26953125 18.5 c 0
 66.490234375 26.75 74.4599609375 39.580078125 77.9697265625 47 c 0
 81.490234375 54.4296875 126.1796875 140.900390625 129.08984375 147.5 c 0
 132.009765625 154.099609375 138.799804688 168.950195312 144.190429688 180.5 c 0
 149.580078125 192.049804688 154.969726562 205.549804688 156.150390625 210.5 c 0
 157.33984375 215.450195312 162.5 233.6796875 167.610351562 251 c 0
 172.719726562 268.330078125 176.969726562 285.200195312 177.040039062 288.5 c 0
 177.120117188 292.009765625 174.030273438 296.049804688 169.58984375 298.25 c 0
 165.41015625 300.309570312 118.990234375 334.98046875 117.75 334.950195312 c 0
 116.509765625 334.9296875 110.580078125 339.990234375 104.580078125 346.200195312 c 0
 98.5703125 352.419921875 92.6796875 360.879882812 91.48046875 365 c 0
 90.2900390625 369.129882812 86.8603515625 377.23046875 83.8603515625 383 c 0
 80.8603515625 388.780273438 76.3603515625 400.25 73.83984375 408.5 c 0
 71.330078125 416.75 50.6904296875 690.240234375 50.7998046875 697.25 c 0
 50.919921875 705.169921875 54.1201171875 715.740234375 59.25 725.169921875 c 0
 66.41015625 738.330078125 131.919921875 775.08984375 141 780.059570312 c 0
 150.0703125 785.030273438 163.240234375 790.200195312 170.25 791.549804688 c 0
 180.4296875 793.509765625 185.5703125 792.76953125 195.75 787.900390625 c 0
 202.759765625 784.549804688 212.549804688 779.509765625 217.5 776.700195312 c 0
 224.809570312 772.559570312 236.639648438 771.389648438 280.5 770.48046875 c 0xc8
 313.950195312 769.799804688 344.76953125 770.809570312 361.5 773.16015625 c 0
 376.349609375 775.240234375 411.450195312 777.1796875 439.5 777.469726562 c 0
 467.549804688 777.759765625 501.969726562 779.650390625 516 781.66015625 c 0
 530.01953125 783.6796875 549.599609375 786.629882812 559.5 788.219726562 c 0
 569.400390625 789.799804688 603.150390625 790.490234375 634.5 789.740234375 c 0
 684.139648438 788.549804688 693.440429688 789.0703125 706.5 793.790039062 c 0
 714.75 796.759765625 723.860351562 799.379882812 726.75 799.599609375 c 0xa8
282 703.139648438 m 0
 264.669921875 701.870117188 243.0703125 700.120117188 234 699.25 c 0
 224.919921875 698.379882812 215.469726562 696.440429688 213 694.9296875 c 0
 209.509765625 692.809570312 207.900390625 681.610351562 205.809570312 644.849609375 c 0
 204.33984375 618.809570312 203.3203125 585.009765625 203.559570312 569.75 c 0
 203.91015625 547.940429688 205.870117188 536.379882812 212.73046875 515.75 c 0
 217.530273438 501.309570312 226.990234375 476 233.740234375 459.5 c 0
 240.5 443 247.040039062 428.51953125 248.26953125 427.330078125 c 0
 249.490234375 426.129882812 257.919921875 422.66015625 267 419.620117188 c 0
 281.33984375 414.799804688 288.799804688 414.360351562 324 416.240234375 c 0
 354.259765625 417.860351562 368.48046875 420 380.25 424.709960938 c 0
 388.91015625 428.169921875 399.040039062 432.91015625 402.75 435.240234375 c 0
 406.459960938 437.580078125 413.549804688 445.33984375 418.5 452.490234375 c 0
 423.450195312 459.650390625 428.509765625 465.83984375 429.75 466.25 c 0
 430.990234375 466.66015625 432 468.349609375 432 470 c 0
 432 471.650390625 435.219726562 480.08984375 439.16015625 488.75 c 0
 443.08984375 497.41015625 448.490234375 509.900390625 451.139648438 516.5 c 0
 453.799804688 523.099609375 457.98046875 537.280273438 460.4296875 548 c 0
 462.879882812 558.73046875 468.830078125 578.98046875 473.650390625 593 c 0
 478.469726562 607.030273438 486.419921875 627.280273438 491.3203125 638 c 0
 496.219726562 648.73046875 503.440429688 666.950195312 507.360351562 678.5 c 0
 511.290039062 690.049804688 516.190429688 700.509765625 518.25 701.75 c 0
 520.309570312 702.990234375 522 706.030273438 522 708.5 c 0
 522 712.099609375 517.639648438 712.98046875 500.25 712.879882812 c 0xd0
 486.280273438 712.799804688 299.3203125 704.41015625 282 703.139648438 c 0
EndSplineSet
Validated: 524321
EndChar

StartChar: R
Encoding: 82 82 19
Width: 814
Flags: W
HStem: 601.687 47.7607<113.206 149.691>
VStem: 148.431 150.881<299.061 601.777> 475 169.615<129.245 549>
LayerCount: 2
Fore
SplineSet
375.083007812 788.961914062 m 0
 376.491210938 790.323242188 388.736328125 791.571289062 402.303710938 791.7421875 c 0
 415.860351562 791.912109375 437.766601562 790.44921875 450.981445312 788.506835938 c 0
 464.186523438 786.5546875 478.59765625 783.013671875 483.006835938 780.620117188 c 0
 487.405273438 778.224609375 494.610351562 774.637695312 499.01953125 772.651367188 c 0
 503.416992188 770.67578125 510.623046875 767.94140625 515.03125 766.590820312 c 0
 519.4296875 765.251953125 575.96484375 716.185546875 575.87890625 712.439453125 c 0
 575.772460938 707.638671875 625.357421875 657.028320312 627.119140625 657.959960938 c 0
 628.901367188 658.90234375 637.7734375 612.423828125 638.776367188 598.372070312 c 0
 639.780273438 584.33203125 640.697265625 516.833984375 640.997070312 502.499023438 c 0
 641.284179688 488.1640625 642.608398438 477.052734375 643.932617188 477.8125 c 0
 645.255859375 478.573242188 645.565429688 461.196289062 644.615234375 439.188476562 c 0
 643.67578125 417.181640625 662.538085938 140.661132812 663.446289062 128.482421875 c 0
 664.353515625 116.315429688 708.100585938 53.447265625 711.184570312 53.4921875 c 0
 714.397460938 53.5380859375 718.208984375 49.578125 720.120117188 44.208984375 c 0
 721.956054688 39.0556640625 722.479492188 32.552734375 721.283203125 29.7373046875 c 0
 719.62890625 25.85546875 711.697265625 12.4853515625 708.088867188 9.16015625 c 0
 704.951171875 6.265625 675.15625 -32.3134765625 675.15625 -33.2548828125 c 0
 675.15625 -34.1865234375 670.833984375 -38.783203125 665.548828125 -43.4697265625 c 0
 659.998046875 -48.384765625 604.040039062 -89.4833984375 595.09375 -89.3359375 c 0
 585.465820312 -89.17578125 580.501953125 -85.5 559.866210938 -63.23046875 c 0
 546.651367188 -48.986328125 531.524414062 -35.3662109375 526.240234375 -32.9716796875 c 0
 520.956054688 -30.587890625 514.11328125 -25.4580078125 511.028320312 -21.576171875 c 0
 507.944335938 -17.705078125 505.487304688 -12.609375 505.5625 -10.271484375 c 0
 505.6484375 -7.93359375 503.407226562 -3.7109375 500.578125 -0.9072265625 c 0
 497.759765625 1.9072265625 496.147460938 5.7314453125 497.001953125 7.6044921875 c 0
 497.85546875 9.478515625 496.670898438 17.9111328125 494.364257812 26.33203125 c 0
 492.0703125 34.7646484375 489.155273438 65.41015625 487.885742188 94.4326171875 c 0
 486.625 123.465820312 485.173828125 152.579101562 484.661132812 159.126953125 c 0
 484.159179688 165.6875 482.258789062 183.302734375 480.456054688 198.28515625 c 0
 478.640625 213.266601562 475.416015625 241.619140625 473.29296875 261.27734375 c 0
 470.805664062 284.374023438 470.217773438 314.509765625 471.6484375 346.40234375 c 0
 472.865234375 373.5625 474.125 430.255859375 475 549 c 1
 475 549 412.348632812 622.34375 410.149414062 622.297851562 c 0
 407.951171875 622.2421875 396.420898438 630.356445312 384.530273438 640.322265625 c 0
 372.638671875 650.298828125 357.1484375 660.446289062 350.102539062 662.896484375 c 0
 339.44921875 666.59765625 334.485351562 666.177734375 320.127929688 662.658203125 c 0
 292.86328125 655.973632812 301.318359375 655.973632812 299.311523438 653.556640625 c 0
 296.556640625 650.21875 304.8828125 421.483398438 305.940429688 419.609375 c 0
 307.0078125 417.736328125 308.139648438 411.608398438 308.44921875 405.990234375 c 0
 308.76953125 400.37109375 318.6328125 304.350585938 321.280273438 298.732421875 c 0
 324.055664062 292.830078125 362.272460938 270.90234375 369.318359375 266.374023438 c 0
 376.36328125 261.844726562 386.451171875 255.840820312 391.735351562 253.014648438 c 0
 397.01953125 250.188476562 406.958007812 242.844726562 413.822265625 236.704101562 c 0
 424.528320312 227.114257812 426.237304688 223.708984375 425.83203125 212.755859375 c 0
 425.522460938 204.208984375 359.43359375 158.297851562 349.302734375 148.958007812 c 0
 339.171875 139.616210938 327.280273438 128.811523438 322.881835938 124.94140625 c 0
 318.47265625 121.083007812 312.708007812 116.6328125 310.071289062 115.043945312 c 0
 307.423828125 113.465820312 286.71484375 110.526367188 281.03515625 111.45703125 c 0
 275.357421875 112.399414062 270.189453125 115.078125 269.5703125 117.416015625 c 0
 268.952148438 119.75390625 266.634765625 121.626953125 264.436523438 121.5703125 c 0
 262.237304688 121.513671875 244.387695312 137.993164062 224.767578125 158.173828125 c 0
 205.157226562 178.366210938 188.291015625 197.944335938 187.288085938 201.689453125 c 0
 186.284179688 205.435546875 178.779296875 216.161132812 170.602539062 225.524414062 c 0
 162.436523438 234.888671875 154.6328125 245.614257812 153.266601562 249.359375 c 0
 151.911132812 253.10546875 149.733398438 266.895507812 148.430664062 280.004882812 c 0
 147.12890625 293.114257812 146.072265625 343.677734375 146.08203125 392.370117188 c 0
 146.092773438 441.061523438 146.958007812 508.094726562 149.946289062 601.77734375 c 1
 142.741210938 601.686523438 l 2
 138.567382812 601.629882812 126.771484375 593.264648438 114.71875 581.801757812 c 0
 99.3037109375 567.16015625 60.212890625 542.870117188 53.72265625 535.379882812 c 0
 46.5595703125 527.094726562 37.6982421875 520.783203125 31.091796875 519.262695312 c 0
 23.9384765625 517.616210938 18.8359375 518.196289062 16.103515625 520.96484375 c 0
 13.8193359375 523.280273438 11.97265625 528.229492188 12.0048828125 531.974609375 c 0
 12.025390625 535.719726562 16.4130859375 542.99609375 21.7509765625 548.1484375 c 0
 27.087890625 553.301757812 31.4541015625 559.043945312 31.4541015625 560.916992188 c 0
 31.4541015625 562.791015625 41.9052734375 572.483398438 54.671875 582.448242188 c 0
 67.439453125 592.4140625 89.056640625 611.572265625 102.709960938 625.010742188 c 0
 116.36328125 638.448242188 129.077148438 649.447265625 130.956054688 649.447265625 c 0
 132.845703125 649.447265625 141.854492188 657.17578125 150.971679688 666.630859375 c 0
 160.098632812 676.07421875 170.080078125 686.029296875 173.165039062 688.763671875 c 0
 176.249023438 691.487304688 179.846679688 693.7578125 181.170898438 693.803710938 c 0
 182.495117188 693.859375 190.778320312 699.795898438 199.584960938 706.9921875 c 0
 208.392578125 714.19921875 222.803710938 724.290039062 231.610351562 729.430664062 c 0
 240.416992188 734.561523438 251.924804688 742.029296875 257.1875 746.03515625 c 0
 262.439453125 750.03125 315.99609375 772.333007812 321.280273438 772.254882812 c 0
 326.564453125 772.174804688 340.249023438 775.341796875 351.704101562 779.302734375 c 0
 363.147460938 783.251953125 373.673828125 787.599609375 375.083007812 788.961914062 c 0
EndSplineSet
Validated: 524321
EndChar

StartChar: S
Encoding: 83 83 20
Width: 409
Flags: W
HStem: -148.021 33.8125<130.103 155.628>
VStem: 207.292 107.444<-15.9211 182.341> 289.461 40.4736<738.916 777.915>
LayerCount: 2
Fore
SplineSet
327.912109375 781.733398438 m 0xa0
 328.95703125 781.326171875 331.012695312 774.856445312 332.487304688 767.366210938 c 0
 334.86328125 755.282226562 334.576171875 752.711914062 329.934570312 744.659179688 c 0xa0
 325.022460938 736.122070312 321.9140625 16.173828125 318.63671875 12.869140625 c 0
 316.512695312 10.7333984375 314.751953125 8.3974609375 314.736328125 7.6796875 c 0
 314.709960938 6.9697265625 305.872070312 -2.7001953125 295.080078125 -13.798828125 c 0
 284.296875 -24.896484375 269.780273438 -39.7744140625 262.829101562 -46.8671875 c 0
 255.87890625 -53.9599609375 248.481445312 -59.7392578125 246.400390625 -59.6953125 c 0
 244.310546875 -59.66015625 233.796875 -68.423828125 223.021484375 -79.1748046875 c 0
 212.245117188 -89.91796875 202.58203125 -98.6640625 201.537109375 -98.603515625 c 0
 200.4921875 -98.5341796875 196.229492188 -101.924804688 192.059570312 -106.12890625 c 0
 187.888671875 -110.33203125 180.491210938 -116.170898438 175.630859375 -119.103515625 c 0
 170.760742188 -122.036132812 161.391601562 -127.701171875 154.803710938 -131.689453125 c 0
 148.20703125 -135.677734375 142.234375 -140.979492188 141.53515625 -143.479492188 c 0
 140.750976562 -146.239257812 137.768554688 -148.020507812 133.926757812 -148.020507812 c 0
 129.713867188 -148.020507812 127.186523438 -146.290039062 126.34375 -142.830078125 c 0
 125.551757812 -139.569335938 128.138671875 -133.263671875 133.294921875 -125.884765625 c 0
 137.810546875 -119.423828125 142.360351562 -114.172851562 143.405273438 -114.208007812 c 0
 144.44921875 -114.250976562 148.788085938 -109.3203125 153.051757812 -103.256835938 c 0
 157.314453125 -97.193359375 163.57421875 -90.765625 166.953125 -88.984375 c 0
 171.401367188 -86.6396484375 183.88671875 -64.6259765625 190.87890625 -57.84375 c 0
 199.608398438 -49.3935546875 205.235351562 -30.787109375 207.291992188 -28.650390625 c 0xc0
 210.172851562 -25.6494140625 205.513671875 139.4453125 205 153 c 0
 204.291992188 171.571289062 82.7451171875 351.5859375 77.900390625 358.004882812 c 0
 73.064453125 364.431640625 62.642578125 377.190429688 54.7568359375 386.375976562 c 0
 46.86328125 395.5546875 34.435546875 409.861328125 27.1396484375 418.165039062 c 0
 19.84375 426.469726562 13.1455078125 436.46875 12.26953125 440.395507812 c 0
 11.384765625 444.323242188 11.9580078125 449.57421875 13.533203125 452.073242188 c 0
 15.1083984375 454.573242188 16.3974609375 458.950195312 16.3974609375 461.8046875 c 0
 16.3974609375 464.659179688 17.6953125 469.624023438 19.279296875 472.833007812 c 0
 20.86328125 476.041992188 33.087890625 490.116210938 46.4501953125 504.103515625 c 0
 59.8125 518.090820312 72.0625 532.102539062 73.6796875 535.243164062 c 0
 75.296875 538.3828125 82.12109375 545.234375 88.8447265625 550.458984375 c 0
 95.5673828125 555.69140625 113.65625 573.208007812 129.032226562 589.383789062 c 0
 144.416015625 605.567382812 158.350585938 621.431640625 159.994140625 624.640625 c 0
 161.645507812 627.849609375 166.118164062 632.088867188 169.943359375 634.043945312 c 0
 173.768554688 636.006835938 181.62109375 643.895507812 187.391601562 651.559570312 c 0
 193.171875 659.232421875 206.819335938 674.9921875 217.721679688 686.57421875 c 0
 228.631835938 698.157226562 249.255859375 718.59765625 263.553710938 731.987304688 c 0
 277.859375 745.377929688 289.51953125 757.798828125 289.4609375 759.581054688 c 0
 289.41015625 761.362304688 294.204101562 766.8125 300.109375 771.682617188 c 0
 306.015625 776.543945312 314.263671875 780.97265625 318.434570312 781.5 c 0
 322.604492188 782.036132812 326.8671875 782.139648438 327.912109375 781.733398438 c 0xa0
137.844726562 568.19921875 m 0
 126.479492188 556.072265625 117.557617188 544.395507812 118.002929688 542.25 c 0
 118.458007812 540.11328125 131.071289062 517.934570312 139.61328125 509.163085938 c 0
 145.51953125 503.099609375 150.35546875 496.966796875 150.35546875 495.540039062 c 0
 150.35546875 494.112304688 154.97265625 487.979492188 160.625976562 481.916015625 c 0
 166.26953125 475.852539062 173.380859375 466.484375 176.422851562 461.094726562 c 0
 179.463867188 455.71484375 183.650390625 451.329101562 185.740234375 451.346679688 c 0
 189.03515625 451.389648438 189.237304688 455.922851562 187.274414062 485.791015625 c 0
 186.026367188 504.708007812 184.973632812 522.52734375 184.939453125 525.381835938 c 0
 184.897460938 528.236328125 185.571289062 536.411132812 186.431640625 543.546875 c 0
 187.290039062 550.68359375 189.068359375 559.4453125 190.374023438 563.009765625 c 0
 191.688476562 566.58203125 193.01953125 577.091796875 193.331054688 586.364257812 c 0
 193.642578125 595.646484375 193.76953125 607.029296875 193.6171875 611.666015625 c 0
 193.440429688 616.725585938 192 620.099609375 190.020507812 620.099609375 c 0
 188.200195312 620.099609375 180.365234375 613.387695312 172.614257812 605.178710938 c 0
 164.854492188 596.969726562 149.208984375 580.3359375 137.844726562 568.19921875 c 0
EndSplineSet
Validated: 524321
EndChar

StartChar: T
Encoding: 84 84 21
Width: 781
Flags: W
HStem: -59.1602 116.66<147.153 363.002> 349.42 136.86<177.837 369.614> 351.57 119.279<170.487 290.818>
VStem: 1.84961 164.86<474.798 726.653> 366.49 137.2<67.8997 207.993 513.24 683.096> 375 124.5<512.46 699.106> 380 122.05<277.072 347.577>
LayerCount: 2
Fore
SplineSet
151.5 799.860351562 m 0xb2
 156.450195312 799.889648438 162.009765625 798.919921875 163.849609375 797.700195312 c 0
 165.690429688 796.490234375 170.240234375 789.4296875 173.950195312 782 c 0
 178.150390625 773.610351562 181.3203125 760.549804688 182.309570312 747.5 c 0
 183.190429688 735.950195312 182.370117188 718.400390625 180.48046875 708.5 c 0
 178.58984375 698.599609375 174.98046875 670.9296875 172.459960938 647 c 0
 169.940429688 623.080078125 167.349609375 583.9296875 166.709960938 560 c 0
 166.040039062 535.219726562 167.040039062 507.190429688 172.5 473.209960938 c 1
 187.5 471.33984375 l 2
 195.75 470.299804688 211.26953125 470.08984375 222 470.849609375 c 0xb2
 232.719726562 471.620117188 260.400390625 474.440429688 283.5 477.129882812 c 0
 306.599609375 479.809570312 332.58984375 483.349609375 341.25 485 c 0
 349.91015625 486.650390625 358.690429688 487.23046875 360.75 486.280273438 c 0
 362.809570312 485.33984375 366.860351562 486.690429688 369.75 489.280273438 c 0
 373.690429688 492.8203125 375 498.690429688 375 512.75 c 0
 374.990234375 523.059570312 373.129882812 542.299804688 370.849609375 555.5 c 0
 368.5703125 568.700195312 366.98046875 593 367.3203125 609.5 c 0
 367.73046875 629.349609375 369.8203125 645.080078125 373.509765625 656 c 0
 376.5703125 665.080078125 382.150390625 677.23046875 385.91015625 683 c 0
 389.669921875 688.780273438 396.509765625 698.76953125 401.120117188 705.209960938 c 0
 405.73046875 711.650390625 414.259765625 721.76953125 420.0703125 727.709960938 c 0
 425.889648438 733.639648438 440.740234375 745.370117188 453.0703125 753.759765625 c 0
 468.91015625 764.540039062 477.700195312 768.6796875 483 767.860351562 c 0
 487.120117188 767.219726562 492.190429688 764.0703125 494.25 760.849609375 c 0
 497.059570312 756.469726562 498.190429688 724.540039062 499.5 512.459960938 c 1xd4
 508.5 511.240234375 l 2
 513.450195312 510.5703125 526.26953125 511.259765625 537 512.76953125 c 0
 547.719726562 514.280273438 558.860351562 516.75 561.75 518.259765625 c 0
 564.639648438 519.76953125 580.16015625 522.849609375 596.25 525.110351562 c 0
 617.400390625 528.08984375 630.900390625 528.440429688 645 526.370117188 c 0
 655.719726562 524.799804688 669.219726562 520.740234375 675 517.349609375 c 0
 680.76953125 513.969726562 691.280273438 506.3203125 698.349609375 500.349609375 c 0
 707.080078125 492.98046875 712.25 485.650390625 714.450195312 477.5 c 0
 716.3203125 470.58984375 716.91015625 456.26953125 715.849609375 443.75 c 0
 714.830078125 431.790039062 685.309570312 348.290039062 683.25 346.200195312 c 0
 681.190429688 344.099609375 676.91015625 337.690429688 673.75 331.950195312 c 0
 670.58984375 326.200195312 664.1796875 317.110351562 659.5 311.75 c 0
 654.830078125 306.389648438 651 300.990234375 651 299.75 c 0
 650.990234375 298.509765625 647.959960938 294.049804688 644.25 289.830078125 c 0
 640.540039062 285.610351562 626.129882812 272.790039062 612.240234375 261.330078125 c 0
 598.349609375 249.870117188 582.150390625 237.530273438 576.240234375 233.900390625 c 0
 570.330078125 230.26953125 557.400390625 223.41015625 547.5 218.650390625 c 0
 537.599609375 213.889648438 524.440429688 209.099609375 518.25 208 c 0
 509.73046875 206.48046875 506.200195312 204 503.690429688 197.75 c 0xd8
 501.469726562 192.240234375 500.9296875 172.08984375 502.049804688 137 c 0xd2
 502.969726562 108.129882812 505.23046875 75.73046875 507.0703125 65 c 0
 509.580078125 50.4296875 509.549804688 40.9501953125 506.940429688 27.5 c 0
 504.290039062 13.8701171875 501.150390625 7.2998046875 493.969726562 0.4501953125 c 0
 488.759765625 -4.5302734375 481.799804688 -12.0703125 478.5 -16.2998046875 c 0
 475.200195312 -20.5400390625 468.450195312 -26.240234375 463.5 -28.9697265625 c 0
 458.549804688 -31.7001953125 443.01953125 -38.5400390625 429 -44.16015625 c 0
 414.969726562 -49.7802734375 351.700195312 -73.759765625 328.5 -71.7998046875 c 0
 313.650390625 -70.5498046875 291.370117188 -67.6201171875 279 -65.2998046875 c 0
 266.620117188 -62.9697265625 239.620117188 -60.2099609375 219 -59.16015625 c 0
 196.049804688 -57.990234375 173.059570312 -58.5498046875 159.75 -60.6201171875 c 0
 147.790039062 -62.48046875 126.860351562 -67.5 113.25 -71.76953125 c 0
 93.7197265625 -77.91015625 86.2802734375 -81.9501953125 78 -90.919921875 c 0
 72.2197265625 -97.1796875 64.1201171875 -104 60 -106.099609375 c 0
 53.7900390625 -109.25 52.259765625 -109.1796875 51.080078125 -105.700195312 c 0
 50.3095703125 -103.389648438 47.9404296875 -99.8095703125 45.830078125 -97.75 c 0
 42.73046875 -94.7197265625 43.740234375 -91.849609375 51.0703125 -82.75 c 0
 56.0595703125 -76.5595703125 69.5498046875 -61.3701171875 81.0400390625 -49 c 0
 92.5302734375 -36.6201171875 105.110351562 -21.76953125 109 -16 c 0
 112.879882812 -10.2197265625 119.790039062 -1.4501953125 124.33984375 3.5 c 0
 128.889648438 8.4501953125 135.01953125 17.23046875 137.959960938 23 c 0
 140.889648438 28.7802734375 147.83984375 37.849609375 153.400390625 43.16015625 c 0
 160.059570312 49.5302734375 167.58984375 53.3896484375 175.5 54.48046875 c 0
 182.099609375 55.3896484375 203.700195312 56.75 223.5 57.5 c 0
 243.299804688 58.259765625 268.950195312 59.6201171875 280.5 60.5400390625 c 0
 292.049804688 61.4501953125 308.919921875 62.7001953125 318 63.3203125 c 0
 327.0703125 63.9404296875 340.280273438 66.25 347.349609375 68.4697265625 c 0
 358.129882812 71.849609375 361.219726562 74.6796875 366.490234375 86 c 0xd8
 371.9296875 97.6904296875 381.379882812 344.639648438 380 346.009765625 c 0
 378.629882812 347.379882812 339.48046875 348.91015625 293 349.419921875 c 0xd2
 246.530273438 349.919921875 194.3203125 350.889648438 177 351.5703125 c 0
 159.669921875 352.25 141.450195312 354.08984375 136.5 355.66015625 c 0
 131.549804688 357.23046875 121.419921875 359.330078125 114 360.3203125 c 0
 106.5703125 361.3203125 94.259765625 365.139648438 86.6396484375 368.8203125 c 0
 79.01953125 372.490234375 64.490234375 382.9296875 54.349609375 392 c 0
 44.2197265625 401.080078125 35.9404296875 409.509765625 35.9599609375 410.75 c 0
 35.98046875 411.990234375 31.5400390625 420.08984375 26.08984375 428.75 c 0
 19.740234375 438.830078125 13.5400390625 455.290039062 8.83984375 474.5 c 0
 2.1298828125 501.91015625 1.5302734375 510.059570312 1.849609375 569 c 0
 2.0400390625 604.48046875 3.849609375 653.080078125 5.8701171875 677 c 0
 7.8896484375 700.9296875 11.2001953125 723.349609375 13.2197265625 726.830078125 c 0
 15.25 730.3203125 21.2001953125 734.030273438 26.4501953125 735.080078125 c 0
 31.7001953125 736.139648438 44.4404296875 742.9296875 54.75 750.169921875 c 0
 65.0595703125 757.419921875 82.9501953125 768.459960938 94.5 774.700195312 c 0
 106.049804688 780.950195312 121.5703125 789.150390625 129 792.940429688 c 0
 136.419921875 796.719726562 146.549804688 799.830078125 151.5 799.860351562 c 0xb2
509.120117188 359.809570312 m 2
 505.950195312 347.099609375 504.040039062 327.4296875 504.030273438 307.25 c 0
 504.009765625 282.860351562 504.91015625 275.259765625 507.75 276.080078125 c 0
 509.809570312 276.6796875 529.059570312 297.200195312 530.030273438 300.5 c 0
 531.009765625 303.799804688 535.6796875 310.889648438 540.400390625 316.25 c 0
 545.129882812 321.610351562 549.009765625 329.040039062 549.030273438 332.75 c 0
 549.049804688 336.459960938 549.75 344.23046875 550.58984375 350 c 0
 551.75 358.030273438 550.509765625 362.389648438 545.309570312 368.530273438 c 0
 540.809570312 373.8203125 534.370117188 377.16015625 526.33984375 378.330078125 c 2
 514.190429688 380.110351562 l 1
 509.120117188 359.809570312 l 2
EndSplineSet
Validated: 524321
EndChar

StartChar: U
Encoding: 85 85 22
Width: 976
Flags: W
HStem: 453.4 121.6<310.989 598.42>
VStem: 138.54 137.33<-24.0323 190.339> 163.43 127.431<31.3582 436.776> 169.5 141.44<606.5 702.13> 594.19 155.81<237.886 463.957> 594.37 142.13<237.886 463.957> 630 107.16<615.723 665.692>
LayerCount: 2
Fore
SplineSet
276.75 799.790039062 m 0xa0
 284.58984375 799.91015625 294.709960938 798.139648438 299.25 795.860351562 c 0
 303.790039062 793.580078125 309.190429688 788.1796875 311.25 783.860351562 c 0
 313.309570312 779.540039062 319.75 725.23046875 319.259765625 698 c 0
 318.76953125 670.780273438 316.3203125 632.98046875 313.799804688 614 c 0
 311.290039062 595.030273438 310 578.830078125 310.940429688 578 c 0
 311.879882812 577.1796875 318.919921875 575.8203125 326.580078125 575 c 0
 334.23046875 574.169921875 385.049804688 573.620117188 439.5 573.759765625 c 0
 505.719726562 573.940429688 549.389648438 575.4296875 604.25 582.5 c 1
 607.740234375 594.5 l 2
 609.650390625 601.099609375 615.450195312 614.259765625 620.610351562 623.75 c 0
 625.76953125 633.240234375 630 642.349609375 630 644 c 0x92
 630 645.650390625 633.490234375 652.059570312 637.75 658.25 c 0
 642.009765625 664.440429688 648.290039062 675.580078125 651.709960938 683 c 0
 655.129882812 690.4296875 659.740234375 698.190429688 661.959960938 700.25 c 0
 664.1796875 702.309570312 666 705.349609375 666 707 c 0
 666 708.650390625 673.08984375 717.950195312 681.75 727.66015625 c 0
 690.41015625 737.370117188 700.349609375 748.509765625 703.830078125 752.41015625 c 0
 707.309570312 756.309570312 715.16015625 762.879882812 721.259765625 767 c 0
 727.360351562 771.129882812 733.969726562 776 735.9296875 777.830078125 c 0
 737.889648438 779.669921875 744.900390625 784.059570312 751.5 787.599609375 c 0
 759.9296875 792.129882812 769.299804688 794.139648438 783 794.389648438 c 0
 793.719726562 794.580078125 805.870117188 793.040039062 810 790.959960938 c 0
 814.120117188 788.889648438 819.860351562 786.700195312 822.75 786.099609375 c 0
 825.639648438 785.490234375 830.700195312 782.299804688 834 779 c 0
 837.299804688 775.700195312 842.01953125 773 844.5 773 c 0
 846.969726562 773 866.75 751.290039062 870.099609375 746.75 c 0
 873.459960938 742.209960938 906.799804688 651.799804688 905.099609375 648.5 c 0
 903.400390625 645.200195312 903 630.280273438 903 624.5 c 0
 903 618.73046875 901.990234375 613.66015625 900.75 613.25 c 0
 899.509765625 612.83984375 883.809570312 568.41015625 876.08984375 556.25 c 0
 869.540039062 545.940429688 858.83984375 532.099609375 852.309570312 525.5 c 0
 845.780273438 518.900390625 837.98046875 511.240234375 834.969726562 508.48046875 c 0
 831.959960938 505.719726562 825.450195312 501.900390625 820.5 500 c 0
 815.549804688 498.099609375 804.0703125 495.169921875 795 493.5 c 0
 785.919921875 491.8203125 776.809570312 489.219726562 774.75 487.719726562 c 0
 772.690429688 486.23046875 768.639648438 485.51953125 765.75 486.150390625 c 0
 762.860351562 486.780273438 757.120117188 484.830078125 753 481.8203125 c 0
 746.860351562 477.330078125 745.469726562 473.719726562 745.309570312 461.919921875 c 0
 745.209960938 453.990234375 737.91015625 346.1796875 736.5 314 c 0x84
 734.9296875 278.110351562 746.509765625 182.009765625 747.75 182 c 0
 748.990234375 182 750 179.98046875 750 177.5 c 0
 750 175.030273438 833.540039062 100.6796875 834.240234375 98.4501953125 c 0
 835.08984375 95.7099609375 871.469726562 92.349609375 874.169921875 87.5 c 0
 876 84.2001953125 878.549804688 80.830078125 879.830078125 80 c 0
 881.110351562 79.1796875 882.959960938 73.099609375 883.919921875 66.5 c 0
 885.25 57.490234375 884.440429688 53.3798828125 880.709960938 50 c 0
 877.969726562 47.5302734375 875.799804688 44.150390625 875.879882812 42.5 c 0
 875.959960938 40.849609375 873.3203125 37.8095703125 870.009765625 35.75 c 0
 866.700195312 33.6904296875 794.900390625 -63.8203125 789.080078125 -69.08984375 c 0
 783.259765625 -74.3701171875 773.76953125 -79.5302734375 768 -80.5498046875 c 0
 762.219726562 -81.580078125 749.059570312 -83 738.75 -83.7099609375 c 0
 727.389648438 -84.490234375 720 -83.8203125 720 -82 c 0
 720 -80.349609375 717.969726562 -79 715.5 -79 c 0
 713.01953125 -79 698.509765625 -63.0595703125 696.299804688 -58.75 c 0
 694.809570312 -55.8603515625 693.120117188 -52.150390625 692.549804688 -50.5 c 0
 691.969726562 -48.849609375 690.490234375 -47.83984375 689.25 -48.25 c 0
 688.009765625 -48.66015625 686.150390625 -45.9599609375 685.120117188 -42.25 c 0
 684.08984375 -38.5400390625 681.459960938 -33.4697265625 679.299804688 -31 c 0
 677.129882812 -28.51953125 670.889648438 -21.16015625 665.4296875 -14.6396484375 c 0
 659.969726562 -8.1201171875 648.75 3.919921875 640.5 12.1201171875 c 0
 631.4296875 21.1396484375 621.509765625 35.4296875 615.41015625 48.26953125 c 0
 609.860351562 59.9501953125 603.450195312 78.2802734375 601.150390625 89 c 0
 598.860351562 99.73046875 595.73046875 122 594.190429688 138.5 c 0x88
 592.440429688 157.280273438 592.509765625 206.0703125 594.370117188 269 c 0
 596.009765625 324.280273438 598.110351562 384.349609375 599.049804688 402.5 c 0
 599.98046875 420.650390625 600.650390625 441.580078125 600.51953125 449 c 0
 600.389648438 456.4296875 599.469726562 463.1796875 598.48046875 464 c 0
 597.490234375 464.830078125 576.83984375 463.120117188 552.58984375 460.219726562 c 0
 527.610351562 457.219726562 476 454.26953125 433.5 453.400390625 c 0
 392.25 452.549804688 348.370117188 450.469726562 336 448.76953125 c 0
 323.620117188 447.059570312 312.150390625 444.780273438 310.5 443.6796875 c 0
 308.849609375 442.58984375 305.120117188 439.620117188 302.219726562 437.099609375 c 0
 298.030273438 433.440429688 288.990234375 219.650390625 290.860351562 201.5 c 0xa4
 292.719726562 183.349609375 294.23046875 148.9296875 294.209960938 125 c 0
 294.190429688 101.080078125 293.419921875 74.080078125 292.490234375 65 c 0
 291.559570312 55.9296875 289.16015625 40.580078125 287.150390625 30.900390625 c 0
 285.139648438 21.23046875 281.75 11.7802734375 279.620117188 9.900390625 c 0
 277.48046875 8.0302734375 275.790039062 4.8095703125 275.870117188 2.75 c 0
 275.940429688 0.6904296875 268.91015625 -8.75 260.25 -18.2197265625 c 0
 251.58984375 -27.7001953125 234.0703125 -45.580078125 221.330078125 -57.9697265625 c 0
 208.58984375 -70.3603515625 180.8203125 -99.099609375 180 -100 c 0
 179.169921875 -100.900390625 175.120117188 -103.8203125 171 -106.48046875 c 0
 166.870117188 -109.150390625 158.76953125 -112.299804688 153 -113.5 c 0
 146.790039062 -114.780273438 139.740234375 -114.309570312 135.75 -112.330078125 c 0
 129.360351562 -109.1796875 129.099609375 -107.759765625 130.809570312 -85.75 c 0
 131.809570312 -72.9599609375 133.490234375 -61.150390625 134.559570312 -59.5 c 0
 135.629882812 -57.849609375 137.419921875 -37.599609375 138.540039062 -14.5 c 0xc0
 139.66015625 8.599609375 141.889648438 39.650390625 143.5 54.5 c 0
 145.120117188 69.349609375 147.75 86.23046875 149.360351562 92 c 0
 150.969726562 97.7802734375 153.790039062 115.330078125 155.639648438 131 c 0
 157.490234375 146.6796875 159.76953125 175.030273438 160.700195312 194 c 0
 161.629882812 212.98046875 162.860351562 229.1796875 163.4296875 230 c 0
 164 230.830078125 164.919921875 281.450195312 166.5 453.5 c 1
 154.5 452.540039062 l 2
 147.51953125 451.98046875 103.799804688 449.040039062 100.5 451.169921875 c 0
 97.2001953125 453.299804688 92.1396484375 455.040039062 89.25 455.01953125 c 0
 86.3603515625 455.009765625 72.8603515625 460.719726562 59.25 467.709960938 c 0
 45.6396484375 474.709960938 32.0302734375 483.139648438 29.01953125 486.459960938 c 0
 26 489.780273438 18.5703125 502.629882812 1.5 537.5 c 1
 1.5 579.5 l 2
 1.5 618.389648438 2.0595703125 622.58984375 9 636.16015625 c 0
 13.6904296875 645.33984375 26.599609375 660.129882812 43.5 675.700195312 c 0
 58.349609375 689.389648438 74.5498046875 704.030273438 79.5 708.25 c 0
 84.4501953125 712.459960938 97.1904296875 720.3203125 107.809570312 725.709960938 c 0
 118.440429688 731.08984375 129.91015625 737.740234375 133.309570312 740.469726562 c 0
 136.719726562 743.200195312 145.5703125 748.299804688 153 751.799804688 c 0
 160.419921875 755.309570312 175.950195312 763.530273438 187.5 770.0703125 c 0
 199.049804688 776.620117188 211.540039062 783.330078125 215.25 784.990234375 c 0
 218.959960938 786.639648438 223.690429688 788.040039062 225.75 788.080078125 c 0
 227.809570312 788.129882812 236.919921875 790.740234375 246 793.870117188 c 0
 255.0703125 797.009765625 268.91015625 799.669921875 276.75 799.790039062 c 0xa0
123.75 635.780273438 m 0
 124.379882812 621.240234375 125.4296875 618.389648438 130.5 617.469726562 c 0
 133.799804688 616.870117188 138.51953125 614.530273438 141 612.259765625 c 0
 143.469726562 610 150.900390625 607.780273438 157.5 607.3203125 c 2
 169.5 606.5 l 1
 168.33984375 641.379882812 167.379882812 658.25 166.599609375 666.5 c 0
 165.830078125 674.75 163.469726562 686.559570312 161.349609375 692.75 c 0
 159.080078125 699.389648438 155.559570312 704.009765625 152.759765625 704 c 0
 150.150390625 704 145.059570312 700.959960938 141.459960938 697.25 c 0
 137.6796875 693.360351562 123.3203125 645.759765625 123.75 635.780273438 c 0
737.16015625 641.379882812 m 0
 737.669921875 625.66015625 739.120117188 620.240234375 744.080078125 615.5 c 0
 749.110351562 610.690429688 752.549804688 609.919921875 761.4296875 611.629882812 c 0
 767.51953125 612.799804688 777.559570312 615.83984375 783.75 618.379882812 c 2
 795 623 l 1
 775.240234375 639.8203125 756.139648438 664.099609375 754.490234375 666.379882812 c 0
 751.940429688 669.879882812 750.309570312 669.799804688 743.990234375 665.889648438 c 0
 737.110351562 661.639648438 736.559570312 659.6796875 737.16015625 641.379882812 c 0
EndSplineSet
Validated: 524321
EndChar

StartChar: V
Encoding: 86 86 23
Width: 805
Flags: W
HStem: 306.02 134.521<68.8495 282.632> 309.88 122.62<63.4752 283.406> 326.24 119.97<424.065 676.865>
VStem: 271.95 155.93<72.1895 304.15> 281.71 146.17<72.1895 294.874> 283.5 136.5<65.1547 309.004 441.17 721.231>
LayerCount: 2
Fore
SplineSet
407.009765625 800 m 0x44
 411.530273438 800 415.860351562 796.91015625 419.25 791.25 c 0
 422.66015625 785.5703125 424.98046875 768.049804688 422.959960938 756.5 c 0
 420.950195312 744.950195312 416.080078125 445.23046875 420 442.780273438 c 0x44
 422.599609375 441.16015625 470.200195312 440.080078125 532.5 440.23046875 c 0
 593.5 440.370117188 646.370117188 441.799804688 654 443.509765625 c 0
 661.419921875 445.1796875 676.950195312 446.400390625 688.5 446.209960938 c 0
 700.049804688 446.01953125 715.91015625 444.540039062 723.75 442.9296875 c 0
 736.9296875 440.219726562 738 439.330078125 738 431 c 0
 738 426.049804688 664.879882812 326.01953125 654.75 326.240234375 c 0
 648.559570312 326.370117188 632.01953125 325.650390625 618 324.639648438 c 0
 603.969726562 323.629882812 574.26953125 320.549804688 552 317.790039062 c 0
 529.719726562 315.030273438 507.450195312 312.799804688 502.5 312.830078125 c 0
 497.549804688 312.860351562 479.030273438 313.469726562 461.349609375 314.190429688 c 0
 433.700195312 315.3203125 428.440429688 314.76953125 423.849609375 310.280273438 c 0
 419.389648438 305.9296875 419.030273438 303.419921875 421.650390625 295.280273438 c 0
 423.559570312 289.360351562 426.98046875 105.4296875 427.879882812 98 c 0
 429.3203125 86 307.91015625 -20.0400390625 299.25 -24.9697265625 c 0
 290.58984375 -29.91015625 280.120117188 -33.9697265625 276 -34 c 0
 270.240234375 -34.0400390625 267.669921875 -31.7802734375 264.91015625 -24.2802734375 c 0
 262.290039062 -17.1201171875 262.139648438 -9.2802734375 264.33984375 5 c 0
 266 15.73046875 268.16015625 25.849609375 269.16015625 27.5 c 0
 270.150390625 29.150390625 271.41015625 41.98046875 271.950195312 56 c 0x30
 272.5 70.0302734375 274.330078125 89.599609375 276.030273438 99.5 c 0
 277.740234375 109.400390625 279.830078125 131.6796875 280.6796875 149 c 0
 281.540039062 166.330078125 282 185.23046875 281.709960938 191 c 0
 281.4296875 196.780273438 281.259765625 204.200195312 281.330078125 207.5 c 0
 281.41015625 210.799804688 282.610351562 234.66015625 286.5 307.530273438 c 1
 277.5 309.740234375 l 2
 272.549804688 310.950195312 250.950195312 311.009765625 229.5 309.879882812 c 0x48
 208.049804688 308.75 179.700195312 307.009765625 166.5 306.01953125 c 0
 153.299804688 305.01953125 120.219726562 305.900390625 93 307.959960938 c 0
 48.6796875 311.3203125 41.76953125 311.200195312 27 306.76953125 c 0
 10.6201171875 301.860351562 10.4599609375 301.879882812 5.1396484375 308.66015625 c 0
 1.75 312.98046875 0.51953125 317.709960938 1.8095703125 321.5 c 0
 2.9296875 324.799804688 11.419921875 335.290039062 20.669921875 344.8203125 c 0
 29.9296875 354.33984375 39.51953125 366.610351562 42 372.080078125 c 0
 44.4697265625 377.549804688 48.080078125 383.9296875 50 386.259765625 c 0
 51.9296875 388.58984375 54.2900390625 393.879882812 55.259765625 398 c 0
 56.2197265625 402.129882812 62.0703125 411.099609375 68.259765625 417.940429688 c 0
 74.4404296875 424.790039062 84.2197265625 432.58984375 90 435.280273438 c 0
 95.76953125 437.959960938 105.219726562 440.330078125 111 440.540039062 c 0x88
 116.76953125 440.75 124.870117188 440.559570312 129 440.120117188 c 0
 133.120117188 439.6796875 145.950195312 440.290039062 157.5 441.469726562 c 0
 170.099609375 442.759765625 188.099609375 442.200195312 202.5 440.059570312 c 0
 215.700195312 438.099609375 233.919921875 435.75 243 434.83984375 c 0
 252.0703125 433.9296875 264.900390625 433.030273438 283.5 432.5 c 1
 283.120117188 473 l 2
 282.91015625 495.280273438 282.450195312 549.950195312 282.08984375 594.5 c 0
 281.709960938 642.120117188 282.790039062 683.83984375 284.719726562 695.75 c 0
 287.080078125 710.290039062 364.360351562 776.75 377.009765625 785 c 0
 389.669921875 793.25 403.169921875 800 407.009765625 800 c 0x44
562.5 663.669921875 m 0
 567.450195312 662.8203125 630.98046875 580.509765625 628.040039062 573.5 c 0
 625.969726562 568.549804688 566.530273438 510.549804688 560.58984375 510.620117188 c 0
 555.040039062 510.6796875 548.240234375 512.030273438 545.48046875 513.620117188 c 0
 542.719726562 515.200195312 532.259765625 524.259765625 522.23046875 533.75 c 0
 512.200195312 543.240234375 502.990234375 550.959960938 501.75 550.91015625 c 0
 500.509765625 550.860351562 496.51953125 553.219726562 492.870117188 556.16015625 c 0
 489.23046875 559.099609375 486.240234375 563.530273438 486.240234375 566 c 0
 486.240234375 568.48046875 556.58984375 664.669921875 562.5 663.669921875 c 0
EndSplineSet
Validated: 524321
EndChar

StartChar: W
Encoding: 87 87 24
Width: 505
Flags: W
HStem: 284.74 160.14<73.9265 183.902>
VStem: 193.2 154.67<78.5829 282.401> 206.92 150.08<469.027 718.71>
LayerCount: 2
Fore
SplineSet
322.650390625 796.509765625 m 0xa0
 327.51953125 798.169921875 333.190429688 799.629882812 335.25 799.759765625 c 0
 337.309570312 799.889648438 343.049804688 795.950195312 348 791 c 0
 354.5703125 784.4296875 357 779.169921875 357 771.5 c 0xa0
 357 765.73046875 346.290039062 144.540039062 347.870117188 131.75 c 0
 349.76953125 116.4296875 353.599609375 103.099609375 359.120117188 92.66015625 c 0
 363.73046875 83.9501953125 369.190429688 76.8701171875 371.25 76.91015625 c 0
 373.309570312 76.9599609375 379.389648438 71.650390625 384.75 65.099609375 c 0
 390.110351562 58.5498046875 395.509765625 53.150390625 396.75 53.099609375 c 0
 397.990234375 53.0498046875 404.059570312 47.6396484375 410.25 41.08984375 c 0
 416.440429688 34.5498046875 423.190429688 29.150390625 425.25 29.08984375 c 0
 427.309570312 29.0400390625 428.870117188 26.6396484375 428.700195312 23.75 c 0
 428.540039062 20.8603515625 350.009765625 -70.2802734375 341.309570312 -79.7900390625 c 0
 332.120117188 -89.849609375 321.419921875 -98.3203125 315.75 -100.040039062 c 0
 307.209960938 -102.629882812 305.0703125 -102.0703125 298.5 -95.5 c 0
 294.370117188 -91.3701171875 284.51953125 -72.099609375 276.709960938 -65.509765625 c 0
 268.889648438 -58.91015625 251.9296875 -42.7099609375 239.01953125 -29.509765625 c 0
 226.099609375 -16.2998046875 212.370117188 -1.4501953125 208.490234375 3.5 c 0
 202.540039062 11.099609375 200.959960938 18.08984375 198.33984375 48.5 c 0
 196.629882812 68.2998046875 194.3203125 98.6796875 193.200195312 116 c 0xc0
 192.080078125 133.330078125 190.98046875 177.200195312 190.76953125 213.5 c 0
 190.549804688 249.799804688 189.509765625 280.849609375 188.459960938 282.5 c 0
 187.290039062 284.33984375 169.299804688 285.209960938 142.030273438 284.740234375 c 0
 117.540039062 284.3203125 88.7197265625 283.3203125 78 282.51953125 c 0
 67.26953125 281.709960938 54.4501953125 279.790039062 49.5 278.240234375 c 0
 44.5498046875 276.6796875 33.75 274.549804688 25.5 273.490234375 c 0
 13.240234375 271.91015625 9.5498046875 272.559570312 5.2802734375 277.030273438 c 0
 1.330078125 281.169921875 0.599609375 284.889648438 2.2802734375 292.3203125 c 0
 3.5 297.719726562 5.509765625 302.110351562 6.75 302.0703125 c 0
 7.990234375 302.030273438 8.9599609375 304.360351562 8.900390625 307.25 c 0
 8.849609375 310.139648438 11.6396484375 315.200195312 15.099609375 318.5 c 0
 18.5595703125 321.799804688 28.5498046875 339.349609375 37.2998046875 357.5 c 0
 46.0498046875 375.650390625 55.009765625 395.900390625 57.2197265625 402.5 c 0
 59.4296875 409.099609375 62.9501953125 416.530273438 65.0400390625 419 c 0
 67.1396484375 421.48046875 68.9296875 425.530273438 69.01953125 428 c 0
 69.1103515625 430.48046875 71.23046875 435.200195312 73.73046875 438.5 c 0
 77.91015625 444.040039062 82.01953125 444.530273438 126.879882812 444.879882812 c 0
 153.620117188 445.08984375 179.389648438 446.440429688 184.139648438 447.879882812 c 0
 188.900390625 449.3203125 193.959960938 452.860351562 195.389648438 455.75 c 0
 196.830078125 458.639648438 198.83984375 474.83984375 199.870117188 491.75 c 0
 200.900390625 508.66015625 203.349609375 529.25 205.3203125 537.5 c 0
 207.780273438 547.809570312 208.280273438 566.559570312 206.919921875 597.5 c 0
 205.83984375 622.25 205.75 658.51953125 206.719726562 678.099609375 c 0
 208.400390625 711.719726562 208.919921875 713.990234375 216 718.940429688 c 0
 220.120117188 721.8203125 232.610351562 729.759765625 243.75 736.58984375 c 0
 254.889648438 743.41015625 314.73046875 789.240234375 314.400390625 790.75 c 0
 314.0703125 792.259765625 317.780273438 794.860351562 322.650390625 796.509765625 c 0xa0
EndSplineSet
Validated: 524321
EndChar

StartChar: X
Encoding: 88 88 25
Width: 567
Flags: W
VStem: 48.0869 92.166<540.587 604.294> 189.519 146.197<142.439 218.504 251.597 311.148> 359.591 143.926<492.435 587.759>
LayerCount: 2
Fore
SplineSet
315.001953125 783.083007812 m 4
 317.56640625 783.22265625 330.747070312 779.91796875 344.290039062 775.751953125 c 4
 357.833007812 771.586914062 371.314453125 766.961914062 374.243164062 765.478515625 c 4
 377.170898438 763.993164062 385.860351562 756.883789062 393.545898438 749.684570312 c 4
 401.231445312 742.485351562 408.419921875 736.59765625 409.520507812 736.60546875 c 4
 410.622070312 736.614257812 415.458984375 731.349609375 420.27734375 724.919921875 c 4
 425.10546875 718.483398438 496.3984375 617.221679688 498.793945312 611.12890625 c 4
 501.190429688 605.044921875 503.321289062 594.524414062 503.516601562 587.758789062 c 4
 503.719726562 580.994140625 503.178710938 567.709960938 502.30859375 558.239257812 c 4
 501.2265625 546.3984375 498.279296875 536.411132812 492.892578125 526.258789062 c 4
 487.647460938 516.39453125 476.8203125 503.7421875 460.258789062 488.104492188 c 4
 446.63671875 475.239257812 427.989257812 458.35546875 418.83984375 450.588867188 c 4
 409.689453125 442.82421875 401.595703125 436.46875 400.868164062 436.46875 c 4
 400.130859375 436.46875 387.999023438 427.334960938 373.887695312 416.173828125 c 4
 359.78515625 405.013671875 345.745117188 394.772460938 342.692382812 393.418945312 c 4
 338.893554688 391.73046875 336.497070312 387.474609375 335.077148438 379.889648438 c 4
 333.94140625 373.8046875 334.13671875 357.749023438 335.512695312 344.21875 c 4
 337.065429688 328.983398438 337.083007812 302.30078125 335.556640625 274.109375 c 4
 333.995117188 245.122070312 334.047851562 218.32421875 335.715820312 200.309570312 c 4
 337.154296875 184.75390625 339.81640625 166.131835938 341.64453125 158.931640625 c 4
 343.836914062 150.240234375 346.969726562 144.655273438 350.946289062 142.327148438 c 4
 354.23828125 140.391601562 362.625976562 137.5546875 369.583007812 136.020507812 c 4
 376.541015625 134.49609375 388.69140625 131.4453125 396.58984375 129.255859375 c 4
 406.715820312 126.451171875 416.708984375 114.208984375 418.173828125 114.208984375 c 4
 419.638671875 114.208984375 423.427734375 110.060546875 426.587890625 104.984375 c 4
 429.755859375 99.908203125 432.346679688 92.4384765625 432.346679688 88.37890625 c 4
 432.356445312 83.1728515625 429.28515625 77.990234375 421.9375 70.7744140625 c 4
 414.659179688 63.6396484375 407.09765625 59.2607421875 396.874023438 56.28515625 c 4
 388.815429688 53.931640625 376.833984375 49.896484375 370.249023438 47.3212890625 c 4
 363.655273438 44.7470703125 351.079101562 41.138671875 342.29296875 39.302734375 c 4
 333.505859375 37.4736328125 316.733398438 32.99609375 305.017578125 29.34765625 c 4
 293.302734375 25.70703125 277.124023438 19.638671875 269.07421875 15.8671875 c 4
 258.814453125 11.0693359375 248.84765625 8.6337890625 235.79296875 7.732421875 c 4
 223.509765625 6.8955078125 214.883789062 7.5107421875 210.499023438 9.552734375 c 4
 206.780273438 11.283203125 201.641601562 17.43359375 198.86328125 23.4599609375 c 4
 196.12109375 29.396484375 192.5 39.7939453125 190.814453125 46.5595703125 c 4
 189.127929688 53.32421875 188.4453125 64.951171875 189.287109375 72.3896484375 c 4
 190.139648438 79.8349609375 190.610351562 103.081054688 190.334960938 124.048828125 c 4
 190.059570312 145.024414062 189.6953125 194.83984375 189.518554688 234.749023438 c 4
 189.234375 300.49609375 188.763671875 307.696289062 184.540039062 311.3203125 c 4
 181.974609375 313.517578125 173.889648438 317.741210938 166.567382812 320.693359375 c 4
 159.24609375 323.653320312 151.453125 327.588867188 149.26171875 329.451171875 c 4
 147.060546875 331.3125 138.079101562 336.35546875 129.29296875 340.668945312 c 4
 120.505859375 344.973632812 106.12890625 354.764648438 97.3427734375 362.431640625 c 4
 88.556640625 370.08984375 75.0048828125 381.30859375 67.220703125 387.350585938 c 4
 59.2958984375 393.509765625 48.57421875 405.3671875 42.8330078125 414.329101562 c 4
 37.2060546875 423.127929688 29.09375 436.411132812 24.81640625 443.849609375 c 4
 20.5302734375 451.294921875 15.41796875 465.685546875 13.447265625 475.829101562 c 4
 10.5009765625 491.024414062 10.474609375 496.88671875 13.2958984375 509.0390625 c 4
 15.1865234375 517.157226562 21.0888671875 531.556640625 26.4140625 541.03515625 c 4
 31.7470703125 550.514648438 38.8037109375 561.85546875 42.095703125 566.25 c 4
 45.388671875 570.637695312 48.0869140625 574.786132812 48.0869140625 575.458984375 c 4
 48.0869140625 576.139648438 98.1064453125 644.405273438 104.1328125 650.489257812 c 4
 110.158203125 656.581054688 118.403320312 664.879882812 122.450195312 668.939453125 c 4
 126.48828125 672.998046875 131.609375 679.639648438 133.828125 683.69921875 c 4
 136.046875 687.758789062 176.952148438 716.532226562 179.879882812 719.344726562 c 4
 182.80859375 722.1484375 186.403320312 724.36328125 187.868164062 724.255859375 c 4
 189.33203125 724.158203125 192.322265625 725.904296875 194.524414062 728.143554688 c 4
 196.715820312 730.381835938 209.30078125 737.958984375 222.48046875 744.978515625 c 4
 235.659179688 751.989257812 251.830078125 760.197265625 258.423828125 763.206054688 c 4
 265.008789062 766.215820312 279.38671875 771.865234375 290.374023438 775.759765625 c 4
 301.352539062 779.655273438 312.4375 782.952148438 315.001953125 783.083007812 c 4
207.836914062 687.98828125 m 4
 204.170898438 685.872070312 196.387695312 681.272460938 190.530273438 677.770507812 c 4
 184.672851562 674.26953125 178.682617188 670.111328125 177.217773438 668.529296875 c 4
 175.752929688 666.955078125 172.291992188 665.290039062 169.532226562 664.838867188 c 4
 166.762695312 664.388671875 159.502929688 657.377929688 153.388671875 649.258789062 c 4
 142.490234375 634.794921875 142.232421875 633.958007812 140.252929688 607.439453125 c 4
 138.88671875 589.095703125 139.286132812 574.8359375 141.504882812 563.159179688 c 4
 143.297851562 553.688476562 147.655273438 540.961914062 151.1875 534.869140625 c 4
 154.728515625 528.78515625 160.231445312 519.756835938 163.42578125 514.811523438 c 4
 166.62109375 509.8671875 204.357421875 464.5703125 208.252929688 461.142578125 c 4
 212.140625 457.723632812 218.725585938 452.557617188 222.897460938 449.663085938 c 4
 227.059570312 446.776367188 243.043945312 439.2734375 258.423828125 433 c 4
 280.975585938 423.791992188 288.182617188 421.889648438 295.69921875 423.127929688 c 4
 301.228515625 424.045898438 344.12109375 458.543945312 349.606445312 468.60546875 c 4
 355.098632812 478.666015625 359.590820312 489.391601562 359.590820312 492.434570312 c 4
 359.598632812 495.4765625 361.516601562 504.890625 363.858398438 513.34375 c 4
 366.912109375 524.33203125 340.916992188 619.493164062 340.07421875 622.19921875 c 4
 339.221679688 624.905273438 336.036132812 629.333007812 333.000976562 632.0390625 c 4
 329.965820312 634.745117188 312.162109375 660.518554688 307.875 665.249023438 c 4
 303.59765625 669.989257812 296.409179688 675.942382812 291.900390625 678.4921875 c 4
 287.401367188 681.041992188 278.924804688 684.708007812 273.067382812 686.642578125 c 4
 267.2109375 688.5703125 257.625 690.915039062 251.767578125 691.841796875 c 4
 245.91015625 692.776367188 235.126953125 693.154296875 227.805664062 692.686523438 c 4
 220.483398438 692.21875 211.493164062 690.102539062 207.836914062 687.98828125 c 4
EndSplineSet
Validated: 524321
EndChar

StartChar: Y
Encoding: 89 89 26
Width: 712
Flags: W
HStem: 673.437 97.6699<138.476 273.691>
VStem: 442.051 98.5029<386.579 509.465> 455.54 98.3887<414.159 569.181>
LayerCount: 2
Fore
SplineSet
361.313476562 803.3125 m 0xa0
 362.122070312 804.166992188 368.352539062 804.17578125 375.159179688 803.330078125 c 0
 381.958007812 802.475585938 392.314453125 800.509765625 398.171875 798.943359375 c 0
 404.029296875 797.37890625 411.813476562 795.813476562 415.478515625 795.458984375 c 0
 419.134765625 795.103515625 520.416992188 770.305664062 529.903320312 766.657226562 c 0
 540.72265625 762.498046875 551.177734375 755.956054688 557.965820312 749.103515625 c 0
 565.45703125 741.55078125 585.790039062 688.979492188 586.748046875 682.21875 c 0
 587.706054688 675.465820312 587.600585938 651.887695312 586.516601562 629.829101562 c 0
 585.23046875 603.649414062 553.928710938 475.010742188 553.928710938 472.0078125 c 0xa0
 553.928710938 469.005859375 550.901367188 460.71484375 547.209960938 453.581054688 c 0
 543.517578125 446.446289062 540.517578125 439.075195312 540.553710938 437.201171875 c 0
 540.588867188 435.326171875 536.80859375 424.87890625 532.149414062 413.99609375 c 0
 527.498046875 403.112304688 520.16796875 388.6796875 515.86328125 381.91796875 c 0
 511.55859375 375.166015625 506.53515625 366.56640625 504.708007812 362.80859375 c 0
 502.879882812 359.05859375 501.6640625 354.145507812 502.009765625 351.888671875 c 0
 502.365234375 349.640625 506.39453125 339.502929688 510.982421875 329.366210938 c 0
 515.561523438 319.228515625 540.544921875 253.3359375 544.502929688 241.323242188 c 0
 548.4609375 229.311523438 554.087890625 213.958984375 557.0078125 207.198242188 c 0
 559.918945312 200.446289062 566.44140625 186.932617188 571.4921875 177.16796875 c 0
 576.532226562 167.413085938 584.875976562 150.823242188 590.022460938 140.313476562 c 0
 595.1796875 129.802734375 641.560546875 28.9287109375 641.90625 22.9228515625 c 0
 642.251953125 16.91796875 642.368164062 9.2373046875 642.163085938 5.8603515625 c 0
 641.87890625 1.18359375 547.502929688 -77.66796875 542.692382812 -80.4892578125 c 0
 535.655273438 -84.6298828125 532.796875 -85.0302734375 527.96875 -82.5361328125 c 0
 522.848632812 -79.8974609375 495.82421875 -8.6630859375 485.013671875 12.23046875 c 0
 474.204101562 33.1240234375 461.415039062 58.212890625 456.604492188 67.96875 c 0
 451.786132812 77.7333984375 443.36328125 96.7705078125 437.896484375 110.283203125 c 0
 432.4296875 123.796875 425.391601562 138.5390625 422.25 143.04296875 c 0
 419.108398438 147.547851562 414.821289062 154.918945312 412.727539062 159.422851562 c 0
 410.624023438 163.927734375 404.6953125 174.110351562 399.547851562 182.045898438 c 0
 394.400390625 189.990234375 389.288085938 196.44140625 388.1875 196.37890625 c 0
 387.086914062 196.323242188 386.190429688 198.735351562 386.190429688 201.73828125 c 0
 386.190429688 204.741210938 384.993164062 207.198242188 383.528320312 207.198242188 c 0
 382.063476562 207.198242188 380.217773438 209.346679688 379.418945312 211.975585938 c 0
 378.620117188 214.60546875 376.526367188 219.51953125 374.759765625 222.904296875 c 0
 372.993164062 226.290039062 370.135742188 229.055664062 368.405273438 229.046875 c 0
 366.68359375 229.046875 363.204101562 226.890625 360.68359375 224.260742188 c 0
 358.163085938 221.630859375 352.98046875 217.334960938 349.181640625 214.706054688 c 0
 345.374023438 212.076171875 328.423828125 196.10546875 311.516601562 179.215820312 c 0
 294.609375 162.326171875 274.2421875 142.3515625 266.25390625 134.826171875 c 0
 258.266601562 127.30078125 249.337890625 117.581054688 246.409179688 113.231445312 c 0
 243.481445312 108.881835938 238.359375 100.291015625 235.03125 94.1484375 c 0
 231.694335938 88.005859375 227.0625 76.8408203125 224.71875 69.3330078125 c 0
 221.84375 60.0966796875 221.008789062 51.2705078125 222.145507812 42.033203125 c 0
 223.059570312 34.525390625 246.267578125 -15.8056640625 247.723632812 -21.439453125 c 0
 249.178710938 -27.072265625 250.403320312 -34.1337890625 250.438476562 -37.13671875 c 0
 250.465820312 -40.1396484375 154.233398438 -112.8125 151.98828125 -115.223632812 c 0
 149.734375 -117.625976562 141.010742188 -123.459960938 132.587890625 -128.19140625 c 0
 124.165039062 -132.9140625 115.778320312 -136.8359375 113.950195312 -136.900390625 c 0
 112.122070312 -136.97265625 105.119140625 -130.521484375 98.3916015625 -122.567382812 c 0
 91.65625 -114.624023438 84.5029296875 -105.041015625 82.4970703125 -101.291992188 c 0
 80.482421875 -97.533203125 67.0283203125 -16.87109375 70.90625 -4.376953125 c 0
 73.240234375 3.130859375 76.35546875 13.578125 77.8291015625 18.828125 c 0
 79.310546875 24.087890625 83.0029296875 33.916015625 86.046875 40.66796875 c 0
 89.0830078125 47.4296875 93.8037109375 56.029296875 96.51953125 59.7783203125 c 0
 99.2353515625 63.5361328125 104.125 70.2890625 107.374023438 74.79296875 c 0
 110.622070312 79.2978515625 124.068359375 93.9033203125 137.247070312 107.252929688 c 0
 150.42578125 120.59375 164.803710938 133.215820312 169.197265625 135.290039062 c 0
 173.590820312 137.364257812 185.571289062 145.91015625 195.822265625 154.291015625 c 0
 206.072265625 162.671875 265.543945312 205.069335938 271.038085938 209.145507812 c 0
 276.53125 213.213867188 287.012695312 221.9765625 294.334960938 228.610351562 c 0
 301.65625 235.25390625 310.637695312 243.388671875 314.303710938 246.709960938 c 0
 317.959960938 250.022460938 330.543945312 259.696289062 342.259765625 268.213867188 c 0
 353.974609375 276.731445312 367.748046875 287.55078125 372.877929688 292.255859375 c 0
 377.999023438 296.969726562 391.178710938 309.727539062 402.166015625 320.611328125 c 0
 416.560546875 334.879882812 424.903320312 346.000976562 432.06640625 360.479492188 c 0
 437.5234375 371.517578125 442.014648438 383.62890625 442.05078125 387.377929688 c 0xc0
 442.076171875 391.13671875 443.354492188 398.5078125 444.880859375 403.7578125 c 0
 446.407226562 409.018554688 455.442382812 511.73046875 455.540039062 525.243164062 c 0
 455.665039062 542.624023438 454.040039062 555.809570312 450.001953125 570.288085938 c 0
 445.458007812 586.604492188 442.31640625 592.555664062 434.541992188 599.58203125 c 0
 429.181640625 604.421875 416.41015625 613.904296875 406.159179688 620.638671875 c 0
 395.909179688 627.373046875 304.8515625 668.177734375 291.671875 671.080078125 c 0
 275.706054688 674.610351562 264.603515625 675.674804688 258.390625 674.283203125 c 0
 253.260742188 673.135742188 241.279296875 672.75390625 231.765625 673.436523438 c 0
 221.887695312 674.137695312 201.883789062 672.599609375 185.171875 669.842773438 c 0
 166.41015625 666.756835938 153.008789062 663.026367188 147.897460938 659.458984375 c 0
 143.50390625 656.401367188 136.528320312 650.131835938 132.392578125 645.536132812 c 0
 126.659179688 639.157226562 125.159179688 635.2265625 126.073242188 628.983398438 c 0
 126.73046875 624.478515625 129.073242188 614.041015625 131.2734375 605.778320312 c 0
 133.483398438 597.524414062 136.00390625 586.46875 136.8828125 581.208007812 c 0
 137.850585938 575.366210938 142.13671875 567.940429688 147.897460938 562.098632812 c 0
 153.071289062 556.84765625 186.5390625 526.298828125 189.831054688 525.92578125 c 0
 195.325195312 525.297851562 195.8046875 523.88671875 195.662109375 508.86328125 c 0
 195.520507812 494.712890625 194.170898438 490.444335938 185.7578125 477.46875 c 0
 180.397460938 469.213867188 172.081054688 456.948242188 167.280273438 450.22265625 c 0
 162.478515625 443.498046875 156.301757812 434.2890625 153.55078125 429.747070312 c 0
 150.80859375 425.215820312 147.7109375 420.893554688 146.680664062 420.138671875 c 0
 145.651367188 419.391601562 141.41015625 411.40234375 137.255859375 402.393554688 c 0
 133.102539062 393.383789062 127.209960938 383.892578125 124.15625 381.299804688 c 0
 121.103515625 378.706054688 115.317382812 376.548828125 111.288085938 376.522460938 c 0
 106.530273438 376.475585938 35.2119140625 432.877929688 27.6494140625 438.529296875 c 0
 18.126953125 445.645507812 13.0322265625 451.743164062 11.0625 458.358398438 c 0
 9.4912109375 463.618164062 7.671875 479.588867188 7.0146484375 493.848632812 c 0
 6.349609375 508.1171875 5.0888671875 566.693359375 7.9560546875 592.127929688 c 0
 9.740234375 607.8984375 14.177734375 638.611328125 17.81640625 660.377929688 c 0
 21.455078125 682.154296875 103.62890625 770.997070312 114.616210938 771.106445312 c 0
 125.594726562 771.224609375 153.75390625 775.220703125 177.184570312 779.998046875 c 0
 200.615234375 784.766601562 360.497070312 802.465820312 361.313476562 803.3125 c 0xa0
EndSplineSet
Validated: 524321
EndChar

